<svg width="227" height="43" viewBox="0 0 227 43" fill="none" xmlns="http://www.w3.org/2000/svg">
<path d="M60.37 32.0517C59.8388 32.0517 59.3739 31.862 58.9755 31.4825C58.596 31.0841 58.4062 30.6192 58.4062 30.088V10.9911H62.1915V29.2626L61.1954 28.2665H74.344V32.0517H60.37Z" fill="white"/>
<path d="M89.4775 32.3079C87.7699 32.3079 86.1951 31.8904 84.7531 31.0556C83.3111 30.2208 82.1632 29.0824 81.3094 27.6404C80.4746 26.1984 80.0572 24.6331 80.0572 22.9444V10.9911H83.8424V22.9444C83.8424 23.95 84.0891 24.8797 84.5824 25.7335C85.0947 26.5873 85.7777 27.2704 86.6315 27.7827C87.5043 28.276 88.453 28.5226 89.4775 28.5226C90.4831 28.5226 91.4128 28.276 92.2666 27.7827C93.1394 27.2704 93.8225 26.5873 94.3158 25.7335C94.8281 24.8797 95.0842 23.95 95.0842 22.9444V10.9911H98.8694V22.9444C98.8694 24.6331 98.452 26.1984 97.6172 27.6404C96.7823 29.0824 95.6439 30.2208 94.2019 31.0556C92.7599 31.8904 91.1851 32.3079 89.4775 32.3079Z" fill="white"/>
<path d="M123.996 32.3648C123.711 32.3648 123.436 32.2984 123.171 32.1656C122.905 32.0327 122.687 31.8715 122.516 31.6817L110.62 17.1101L111.274 16.9109V32.0517H107.489V12.528C107.489 11.9967 107.669 11.5508 108.03 11.1903C108.409 10.8109 108.865 10.6211 109.396 10.6211C109.681 10.6211 109.946 10.6875 110.193 10.8204C110.458 10.9342 110.677 11.0955 110.847 11.3042L122.744 26.0751L122.089 26.3027V10.9911H125.903V30.4579C125.903 30.9892 125.713 31.4446 125.334 31.824C124.973 32.1845 124.527 32.3648 123.996 32.3648Z" fill="white"/>
<path d="M140.781 11.8734C140.933 11.5129 141.16 11.2283 141.464 11.0196C141.786 10.8109 142.147 10.7065 142.545 10.7065C142.925 10.7065 143.257 10.8109 143.541 11.0196C143.845 11.2283 144.073 11.5129 144.224 11.8734L152.791 32.0517H148.579L141.948 16.5124H143.058L136.398 32.0517H132.157L140.781 11.8734Z" fill="white"/>
<path d="M159.073 12.9549C159.073 12.4236 159.263 11.9683 159.643 11.5888C160.041 11.1903 160.506 10.9911 161.037 10.9911H169.604C170.894 10.9911 172.089 11.3137 173.19 11.9588C174.29 12.6039 175.153 13.4861 175.78 14.6056C176.425 15.706 176.747 16.9014 176.747 18.1916C176.747 19.4818 176.425 20.6486 175.78 21.6922C175.153 22.7357 174.29 23.5516 173.19 24.1398C172.108 24.7279 170.913 25.022 169.604 25.022H162.261V21.493H169.604C170.23 21.493 170.789 21.3507 171.283 21.0661C171.795 20.7625 172.203 20.364 172.507 19.8707C172.81 19.3584 172.962 18.7987 172.962 18.1916C172.962 17.5844 172.81 17.0247 172.507 16.5124C172.203 15.9812 171.795 15.5637 171.283 15.2602C170.771 14.9376 170.211 14.7763 169.604 14.7763H161.862L162.859 13.7802V32.0517H159.073V12.9549ZM167.014 24.1398L170.002 22.2898L176.889 32.0517H172.507L167.014 24.1398Z" fill="white"/>
<path d="M186.69 32.0517C186.159 32.0517 185.694 31.862 185.296 31.4825C184.916 31.0841 184.727 30.6192 184.727 30.088V12.9549C184.727 12.4236 184.916 11.9683 185.296 11.5888C185.694 11.1903 186.159 10.9911 186.69 10.9911H201.006V14.7763H187.516L188.512 13.7802V29.2626L187.516 28.2665H201.006V32.0517H186.69ZM187.829 19.6146H200.152V23.4283H187.829V19.6146Z" fill="white"/>
<path d="M217.065 32.3648C215.338 32.3458 213.669 32.1466 212.056 31.7671C210.443 31.3687 208.916 30.79 207.474 30.031L209.068 26.5873C210.32 27.2324 211.62 27.7163 212.967 28.0388C214.314 28.3614 215.68 28.5321 217.065 28.5511C218.298 28.5701 219.342 28.4847 220.196 28.295C221.068 28.0863 221.723 27.7827 222.159 27.3842C222.596 26.9858 222.823 26.5209 222.842 25.9897C222.861 25.2877 222.634 24.7469 222.159 24.3674C221.704 23.969 221.106 23.6844 220.366 23.5136C219.626 23.3239 218.611 23.1531 217.321 23.0014C215.348 22.7547 213.764 22.4891 212.568 22.2045C211.373 21.9199 210.329 21.3696 209.438 20.5538C208.546 19.7189 208.1 18.5236 208.1 16.9678C208.119 15.6776 208.546 14.5487 209.381 13.581C210.215 12.6134 211.344 11.8734 212.767 11.3611C214.209 10.8488 215.813 10.6022 217.577 10.6211C219.076 10.6401 220.575 10.8014 222.074 11.105C223.573 11.4085 224.967 11.8449 226.258 12.4141L224.721 15.8009C222.387 14.8143 220.006 14.302 217.577 14.264C216.382 14.2451 215.386 14.321 214.589 14.4917C213.792 14.6625 213.166 14.9566 212.711 15.374C212.255 15.7724 212.018 16.3132 211.999 16.9962C211.999 17.5844 212.246 18.0493 212.739 18.3908C213.232 18.7133 213.811 18.941 214.475 19.0738C215.158 19.2066 216.126 19.349 217.378 19.5007C219.218 19.7094 220.793 19.9941 222.102 20.3545C223.431 20.715 224.54 21.3507 225.432 22.2614C226.343 23.1531 226.789 24.3959 226.77 25.9897C226.751 27.2799 226.315 28.4183 225.461 29.4049C224.607 30.3726 223.44 31.1125 221.96 31.6248C220.499 32.1371 218.867 32.3838 217.065 32.3648Z" fill="white"/>
<path fill-rule="evenodd" clip-rule="evenodd" d="M29.4075 2.06487C28.1649 1.78025 26.8712 1.62991 25.5425 1.62991C16.0051 1.62991 8.27357 9.37551 8.27357 18.9302C8.27357 28.4849 16.0051 36.2305 25.5425 36.2305C31.7246 36.2305 37.1479 32.9762 40.1987 28.0842C37.5355 36.7376 29.7637 43 20.5911 43C9.21895 43 0 33.3741 0 21.5C0 9.62588 9.21895 0 20.5911 0C23.7459 0 26.735 0.740793 29.4075 2.06487Z" fill="white"/>
<path fill-rule="evenodd" clip-rule="evenodd" d="M25.528 35.6646C34.7625 35.6646 42.2485 28.1587 42.2485 18.8997C42.2485 9.64067 34.7625 2.13477 25.528 2.13477C16.2936 2.13477 8.80762 9.64067 8.80762 18.8997C8.80762 28.1587 16.2936 35.6646 25.528 35.6646ZM25.5276 35.1285C34.4673 35.1285 41.7144 27.8616 41.7144 18.8973C41.7144 9.933 34.4673 2.66602 25.5276 2.66602C16.5879 2.66602 9.34082 9.933 9.34082 18.8973C9.34082 27.8616 16.5879 35.1285 25.5276 35.1285Z" fill="white"/>
<path d="M15.4465 21.2563C15.4329 21.2245 15.4476 21.1877 15.4794 21.174L15.7957 21.0383C15.8275 21.0247 15.8643 21.0394 15.8779 21.0712L16.1293 21.6586L15.698 21.8437L15.4465 21.2563Z" fill="white"/>
<path d="M11.6157 23.0486C11.465 22.5543 14.643 21.4768 15.4836 21.3411L15.5612 21.5225C15.3231 21.7045 12.4271 23.2424 11.7669 23.2189C11.6874 23.2161 11.6663 23.2144 11.6157 23.0486Z" fill="white"/>
<path d="M19.8149 19.5276C19.5614 19.0774 16.5904 20.6387 15.9125 21.1546L15.9902 21.336C16.2861 21.2889 19.3955 20.2496 19.8338 19.7547C19.8866 19.695 19.8999 19.6786 19.8149 19.5276Z" fill="white"/>
<path d="M15.4807 21.0966C15.4671 21.0648 15.4818 21.028 15.5136 21.0144L15.6574 20.9527C15.6891 20.939 15.7259 20.9538 15.7395 20.9856L15.7617 21.0374C15.7753 21.0692 15.7606 21.106 15.7288 21.1197L15.5851 21.1814C15.5533 21.195 15.5165 21.1803 15.5029 21.1485L15.4807 21.0966Z" fill="white"/>
<path d="M34.2627 13.1781C34.249 13.1463 34.2123 13.1316 34.1805 13.1452L33.8642 13.281C33.8324 13.2946 33.8177 13.3314 33.8313 13.3633L34.0827 13.9506L34.5141 13.7655L34.2627 13.1781Z" fill="white"/>
<path d="M38.2036 11.6345C37.95 11.1843 34.979 12.7457 34.3012 13.2615L34.3788 13.4429C34.6748 13.3958 37.7842 12.3566 38.2225 11.8616C38.2752 11.802 38.2886 11.7855 38.2036 11.6345Z" fill="white"/>
<path d="M30.0044 15.1536C29.8536 14.6593 33.0317 13.5818 33.8722 13.446L33.9499 13.6274C33.7117 13.8095 30.8158 15.3474 30.1556 15.3239C30.076 15.3211 30.0549 15.3193 30.0044 15.1536Z" fill="white"/>
<path d="M34.1292 13.0925C34.1156 13.0607 34.0788 13.046 34.047 13.0596L33.9032 13.1213C33.8715 13.1349 33.8567 13.1718 33.8704 13.2036L33.8925 13.2554C33.9062 13.2872 33.9429 13.3019 33.9747 13.2883L34.1185 13.2266C34.1503 13.213 34.165 13.1761 34.1514 13.1443L34.1292 13.0925Z" fill="white"/>
<path d="M24.3474 17.0036C24.3338 16.9718 24.3485 16.9349 24.3803 16.9213L24.6765 16.7942L24.9132 17.347L24.5594 17.4988L24.3474 17.0036Z" fill="white"/>
<path d="M25.0549 16.7C25.0413 16.6682 25.0045 16.6535 24.9727 16.6671L24.6765 16.7942L24.9132 17.347L25.2669 17.1952L25.0549 16.7Z" fill="white"/>
<path d="M23.1183 18.7921C22.895 18.2705 23.1363 17.6665 23.6573 17.4429L24.7529 16.9727L25.9362 19.7369L24.8405 20.2071C24.3196 20.4307 23.7163 20.1891 23.493 19.6675L23.1183 18.7921Z" fill="white"/>
<path d="M27.1961 17.0422C26.9728 16.5206 26.3695 16.279 25.8486 16.5025L24.7529 16.9727L25.9362 19.7369L27.0318 19.2667C27.5528 19.0432 27.7941 18.4391 27.5708 17.9175L27.1961 17.0422Z" fill="white"/>
<path d="M35.4043 13.4583C35.3907 13.4265 35.3539 13.4118 35.3221 13.4254L33.2918 14.2967C33.2601 14.3103 33.2454 14.3472 33.259 14.379L33.6608 15.3177C33.6744 15.3495 33.7112 15.3642 33.743 15.3506L35.7732 14.4793C35.805 14.4657 35.8197 14.4288 35.8061 14.397L35.4043 13.4583Z" fill="white"/>
<path d="M14.9224 22.4048L25.1917 17.9978L25.4653 18.637L15.1961 23.044L14.9224 22.4048Z" fill="white"/>
<path d="M14.8657 22.2723C14.8521 22.2405 14.8668 22.2037 14.8986 22.19L16.9289 21.3188C16.9606 21.3051 16.9974 21.3199 17.011 21.3517L17.4128 22.2903C17.4265 22.3221 17.4117 22.359 17.38 22.3726L15.3497 23.2439C15.3179 23.2575 15.2812 23.2428 15.2675 23.211L14.8657 22.2723Z" fill="white"/>
<path d="M24.2308 20.1347L25.8154 19.4547L26.2862 20.5547L25.2981 20.9787C25.2826 20.9853 25.2705 20.9979 25.2644 21.0135L24.6931 22.479L24.2186 22.6826L24.4548 20.7772C24.4623 20.7166 24.4536 20.6551 24.4296 20.599L24.2308 20.1347Z" fill="white"/>
<path d="M19.3544 21.2595C22.9663 19.7094 24.2222 20.1146 24.3985 20.5263L23.8808 19.317L19.3544 21.2595Z" fill="white"/>
<path d="M35.461 13.5908L25.1917 17.9978L25.4653 18.637L35.7346 14.23L35.461 13.5908Z" fill="white"/>
<path d="M27.3999 18.7747L25.8154 19.4547L26.2862 20.5547L27.2744 20.1306C27.2898 20.124 27.3072 20.1238 27.3227 20.1302L28.7766 20.7265L29.2511 20.5229L27.7101 19.3802C27.6611 19.3439 27.6227 19.2951 27.5986 19.239L27.3999 18.7747Z" fill="white"/>
<path d="M31.5763 16.0145C27.9644 17.5646 27.3913 18.7546 27.5675 19.1663L27.0499 17.957L31.5763 16.0145Z" fill="white"/>
<path d="M25.7386 20.7624L26.2763 20.5316L26.4021 20.8253L26.1576 20.9302C25.9956 20.9997 25.808 20.9246 25.7386 20.7624Z" fill="white"/>
<path d="M26.8141 20.3008L26.2735 20.5329L26.3992 20.8266L26.6465 20.7204C26.8085 20.6509 26.8835 20.463 26.8141 20.3008Z" fill="white"/>
<path d="M25.8144 21.4166C25.7344 21.2298 25.8208 21.0134 26.0074 20.9333L26.3799 20.7735L26.6695 21.45L26.297 21.6098C26.1104 21.6899 25.8943 21.6034 25.8144 21.4166Z" fill="white"/>
<path d="M27.235 20.8069C27.155 20.6201 26.9389 20.5336 26.7524 20.6136L26.3799 20.7735L26.6695 21.45L27.0419 21.2902C27.2285 21.2101 27.315 20.9937 27.235 20.8069Z" fill="white"/>
</svg>
