<svg width="48" height="48" viewBox="0 0 48 48" fill="none" xmlns="http://www.w3.org/2000/svg">
<rect width="48" height="48" rx="8" fill="#353535"/>
<path d="M35.264 17.3226H35.263H18.792C18.2042 17.3226 17.73 17.8044 17.73 18.3844V34.8521C17.73 35.4398 18.2119 35.914 18.792 35.914H35.263C35.8508 35.914 36.325 35.4321 36.325 34.8521V18.3844C36.325 17.8035 35.8501 17.3301 35.264 17.3226ZM14.053 30.2591C14.502 30.2591 14.86 30.6178 14.86 31.0589C14.86 31.4995 14.4953 31.859 14.0595 31.8657H12.737C11.2664 31.8657 10.075 30.6745 10.075 29.2042V12.7365C10.075 11.2662 11.2664 10.075 12.737 10.075H29.208C30.6786 10.075 31.87 11.2662 31.87 12.7365V13.6533C31.87 14.0948 31.5116 14.4531 31.07 14.4531C30.6284 14.4531 30.27 14.0948 30.27 13.6533V12.7365C30.27 12.1488 29.7881 11.6747 29.208 11.6747H12.737C12.1492 11.6747 11.675 12.1565 11.675 12.7365V29.1973C11.675 29.7849 12.1569 30.2591 12.737 30.2591H14.053ZM35.263 15.7229C36.7336 15.7229 37.925 16.9141 37.925 18.3844V34.8521C37.925 36.3224 36.7336 37.5136 35.263 37.5136H18.792C17.3214 37.5136 16.13 36.3224 16.13 34.8521V18.3844C16.13 16.9141 17.3214 15.7229 18.792 15.7229H35.263Z" fill="white" stroke="#353535" stroke-width="0.15"/>
</svg>
