<svg width="48" height="48" viewBox="0 0 48 48" fill="none" xmlns="http://www.w3.org/2000/svg">
<g clip-path="url(#clip0_2588_10120)">
<rect width="48" height="48" rx="8" fill="#222222"/>
<path d="M26.7014 15.8494C26.7823 15.6613 26.9341 15.5128 27.1239 15.436C27.3136 15.3592 27.526 15.3603 27.7149 15.4391C27.9038 15.5179 28.054 15.6681 28.1329 15.8569C28.2118 16.0458 28.2131 16.2582 28.1363 16.448C27.9756 16.8335 27.8931 17.247 27.8934 17.6647C27.8934 18.2797 28.0758 18.8809 28.4175 19.3923C28.7592 19.9037 29.2449 20.3023 29.8131 20.5377C30.3813 20.773 31.0066 20.8346 31.6098 20.7146C32.213 20.5947 32.7671 20.2985 33.202 19.8636C33.6369 19.4287 33.9331 18.8746 34.0531 18.2713C34.1731 17.6681 34.1115 17.0428 33.8762 16.4746C33.6408 15.9064 33.2422 15.4207 32.7308 15.079C32.2194 14.7373 31.6182 14.5549 31.0031 14.5549C30.6457 14.5521 30.2907 14.6143 29.9554 14.7382C29.7624 14.8109 29.5484 14.804 29.3606 14.7189C29.1727 14.6338 29.0263 14.4776 28.9537 14.2846C28.881 14.0916 28.8879 13.8777 28.973 13.6898C29.0581 13.5019 29.2143 13.3556 29.4073 13.2829C29.9178 13.0932 30.4585 12.9974 31.0031 13.0001C32.0012 13.0031 32.9718 13.3272 33.7714 13.9244C34.5711 14.5216 35.1574 15.3602 35.4438 16.3163C35.7301 17.2724 35.7012 18.2952 35.3614 19.2337C35.0217 20.1721 34.389 20.9763 33.5569 21.5274C32.7248 22.0786 31.7375 22.3474 30.7409 22.2942C29.7442 22.2409 28.7912 21.8685 28.0225 21.2319C27.2539 20.5952 26.7104 19.7282 26.4725 18.7589C26.2346 17.7896 26.3149 16.7695 26.7014 15.8494ZM13.1449 16.9404C13.1951 16.8515 13.2624 16.7733 13.3428 16.7103C13.4232 16.6474 13.5152 16.6009 13.6136 16.5735C13.712 16.5461 13.8148 16.5384 13.9162 16.5507C14.0175 16.5631 14.1155 16.5952 14.2044 16.6454C14.2933 16.6956 14.3715 16.7629 14.4345 16.8433C14.4974 16.9237 14.5439 17.0157 14.5713 17.1141C14.5987 17.2125 14.6065 17.3153 14.5941 17.4167C14.5818 17.518 14.5496 17.616 14.4994 17.7049C13.9527 18.6782 13.7744 19.8156 13.9971 20.9095C14.2197 22.0033 14.8285 22.9806 15.7121 23.6627C16.5958 24.3448 17.6953 24.6862 18.8099 24.6246C19.9245 24.563 20.9797 24.1025 21.7828 23.3271C22.5859 22.5518 23.0832 21.5134 23.184 20.4017C23.2848 19.29 22.9822 18.1791 22.3316 17.272C21.681 16.3649 20.7258 15.7222 19.6404 15.4612C18.5551 15.2002 17.4121 15.3384 16.4202 15.8505C16.2379 15.9408 16.0274 15.9561 15.834 15.893C15.6406 15.8299 15.4796 15.6935 15.3856 15.5131C15.2916 15.3326 15.2721 15.1225 15.3312 14.9278C15.3904 14.7332 15.5235 14.5695 15.702 14.4718C17.0277 13.7853 18.5561 13.5988 20.008 13.9466C21.4598 14.2943 22.738 15.1529 23.6088 16.3655C24.4797 17.5781 24.885 19.0636 24.7507 20.5504C24.6164 22.0372 23.9514 23.4261 22.8773 24.463C21.8033 25.4998 20.3919 26.1155 18.9013 26.1974C17.4106 26.2793 15.9403 25.822 14.7591 24.909C13.578 23.996 12.7648 22.6884 12.4684 21.2252C12.172 19.7621 12.4122 18.2411 13.1449 16.9404ZM26.8168 33.8263C26.6524 33.948 26.4475 34.0019 26.2445 33.9769C26.0414 33.9519 25.8558 33.8498 25.7258 33.6918C24.8933 32.578 23.8125 31.6738 22.5693 31.051C21.3261 30.4281 19.9547 30.1038 18.5642 30.1038C17.1737 30.1038 15.8023 30.4281 14.5591 31.051C13.3159 31.6738 12.2351 32.578 11.4025 33.6918C11.3408 33.7752 11.263 33.8455 11.1737 33.8984C11.0845 33.9513 10.9855 33.9858 10.8826 33.9998C10.7798 34.0139 10.6752 34.0072 10.575 33.9802C10.4748 33.9531 10.381 33.9063 10.2992 33.8425C10.2173 33.7786 10.1491 33.699 10.0985 33.6084C10.048 33.5177 10.0161 33.4179 10.0047 33.3147C9.99331 33.2116 10.0027 33.1072 10.0323 33.0077C10.062 32.9082 10.1112 32.8157 10.1771 32.7355C11.155 31.4354 12.4217 30.3804 13.8773 29.6539C15.3328 28.9274 16.9374 28.5492 18.5642 28.5492C20.191 28.5492 21.7955 28.9274 23.2511 29.6539C24.7066 30.3804 25.9734 31.4354 26.9512 32.7355C27.078 32.898 27.1351 33.1041 27.1099 33.3086C27.0846 33.5131 26.9792 33.6995 26.8168 33.8263ZM37.7404 28.7403C37.5864 28.8774 37.3844 28.9478 37.1786 28.9361C36.9728 28.9245 36.78 28.8317 36.6426 28.6781C35.9226 27.9018 35.0501 27.2824 34.0797 26.8589C33.1093 26.4353 32.0619 26.2167 31.0031 26.2167C29.9443 26.2167 28.8969 26.4353 27.9265 26.8589C26.9562 27.2824 26.0837 27.9018 25.3637 28.6781C25.2957 28.7543 25.2134 28.8163 25.1214 28.8607C25.0294 28.905 24.9296 28.9308 24.8277 28.9366C24.7257 28.9424 24.6237 28.928 24.5273 28.8944C24.4309 28.8607 24.3421 28.8084 24.2659 28.7404C24.1897 28.6724 24.1277 28.59 24.0833 28.4981C24.039 28.4061 24.0132 28.3063 24.0074 28.2044C24.0016 28.1024 24.016 28.0003 24.0496 27.9039C24.0833 27.8075 24.1356 27.7187 24.2036 27.6426C25.0695 26.7028 26.1208 25.9528 27.2911 25.4398C28.4614 24.9268 29.7253 24.6619 31.0031 24.6619C32.2809 24.6619 33.5449 24.9268 34.7152 25.4398C35.8855 25.9528 36.9368 26.7028 37.8026 27.6426C37.9399 27.7964 38.0104 27.9984 37.9988 28.2042C37.9871 28.41 37.8941 28.603 37.7404 28.7403Z" fill="white"/>
</g>
<defs>
<clipPath id="clip0_2588_10120">
<rect width="48" height="48" fill="white"/>
</clipPath>
</defs>
</svg>
