<svg width="48" height="48" viewBox="0 0 48 48" fill="none" xmlns="http://www.w3.org/2000/svg">
<g clip-path="url(#clip0_2588_10103)">
<rect width="48" height="48" rx="8" fill="#353535"/>
<mask id="path-2-inside-1_2588_10103" fill="white">
<path fill-rule="evenodd" clip-rule="evenodd" d="M19 35C19.6905 35.0012 20.2523 34.4394 20.2511 33.7489V30.7511L23.2489 30.7511C23.9394 30.7523 24.5012 30.1905 24.5 29.5C24.5012 28.8095 23.9394 28.2477 23.2489 28.2489L20.2511 28.2489L20.2511 25.2511C20.2523 24.5606 19.6904 23.9988 19 24C18.3095 23.9988 17.7477 24.5606 17.7489 25.2511L17.7489 28.2489L14.7511 28.2489C14.0606 28.2477 13.4988 28.8095 13.5 29.5C13.4988 30.1904 14.0606 30.7523 14.7511 30.7511L17.7489 30.7511L17.7489 33.7489C17.7477 34.4394 18.3095 35.0012 19 35Z"/>
</mask>
<path fill-rule="evenodd" clip-rule="evenodd" d="M19 35C19.6905 35.0012 20.2523 34.4394 20.2511 33.7489V30.7511L23.2489 30.7511C23.9394 30.7523 24.5012 30.1905 24.5 29.5C24.5012 28.8095 23.9394 28.2477 23.2489 28.2489L20.2511 28.2489L20.2511 25.2511C20.2523 24.5606 19.6904 23.9988 19 24C18.3095 23.9988 17.7477 24.5606 17.7489 25.2511L17.7489 28.2489L14.7511 28.2489C14.0606 28.2477 13.4988 28.8095 13.5 29.5C13.4988 30.1904 14.0606 30.7523 14.7511 30.7511L17.7489 30.7511L17.7489 33.7489C17.7477 34.4394 18.3095 35.0012 19 35Z" fill="white"/>
<path d="M20.2511 33.7489H19.7511L19.7511 33.7498L20.2511 33.7489ZM19 35L19.0009 34.5L18.9991 34.5L19 35ZM20.2511 30.7511V30.2511H19.7511V30.7511H20.2511ZM23.2489 30.7511L23.2498 30.2511H23.2489V30.7511ZM24.5 29.5L24 29.4991L24 29.5009L24.5 29.5ZM23.2489 28.2489V28.7489L23.2498 28.7489L23.2489 28.2489ZM20.2511 28.2489H19.7511V28.7489H20.2511V28.2489ZM20.2511 25.2511L19.7511 25.2502V25.2511L20.2511 25.2511ZM19 24L18.9991 24.5L19.0009 24.5L19 24ZM17.7489 25.2511L18.2489 25.2511L18.2489 25.2502L17.7489 25.2511ZM17.7489 28.2489V28.7489H18.2489V28.2489H17.7489ZM14.7511 28.2489L14.7502 28.7489H14.7511L14.7511 28.2489ZM13.5 29.5L14 29.5009L14 29.4991L13.5 29.5ZM14.7511 30.7511L14.7511 30.2511L14.7502 30.2511L14.7511 30.7511ZM17.7489 30.7511H18.2489V30.2511H17.7489V30.7511ZM17.7489 33.7489L18.2489 33.7498V33.7489H17.7489ZM19.7511 33.7498C19.7518 34.1634 19.4145 34.5007 19.0009 34.5L18.9991 35.5C19.9664 35.5017 20.7527 34.7153 20.7511 33.7481L19.7511 33.7498ZM19.7511 30.7511V33.7489H20.7511V30.7511H19.7511ZM23.2489 30.2511L20.2511 30.2511V31.2511L23.2489 31.2511V30.2511ZM24 29.5009C24.0007 29.9145 23.6634 30.2518 23.2498 30.2511L23.2481 31.2511C24.2153 31.2527 25.0017 30.4664 25 29.4991L24 29.5009ZM23.2498 28.7489C23.6634 28.7482 24.0007 29.0855 24 29.4991L25 29.5009C25.0017 28.5336 24.2153 27.7473 23.2481 27.7489L23.2498 28.7489ZM20.2511 28.7489L23.2489 28.7489V27.7489L20.2511 27.7489V28.7489ZM19.7511 25.2511L19.7511 28.2489H20.7511L20.7511 25.2511L19.7511 25.2511ZM19.0009 24.5C19.4145 24.4993 19.7518 24.8366 19.7511 25.2502L20.7511 25.2519C20.7527 24.2847 19.9664 23.4983 18.9991 23.5L19.0009 24.5ZM18.2489 25.2502C18.2482 24.8366 18.5855 24.4993 18.9991 24.5L19.0009 23.5C18.0336 23.4983 17.2473 24.2847 17.2489 25.2519L18.2489 25.2502ZM18.2489 28.2489L18.2489 25.2511L17.2489 25.2511L17.2489 28.2489H18.2489ZM14.7511 28.7489L17.7489 28.7489V27.7489L14.7511 27.7489L14.7511 28.7489ZM14 29.4991C13.9993 29.0855 14.3366 28.7482 14.7502 28.7489L14.7519 27.7489C13.7847 27.7473 12.9983 28.5336 13 29.5009L14 29.4991ZM14.7502 30.2511C14.3366 30.2518 13.9993 29.9145 14 29.5009L13 29.4991C12.9983 30.4664 13.7847 31.2527 14.7519 31.2511L14.7502 30.2511ZM17.7489 30.2511L14.7511 30.2511L14.7511 31.2511L17.7489 31.2511V30.2511ZM18.2489 33.7489L18.2489 30.7511H17.2489L17.2489 33.7489H18.2489ZM18.9991 34.5C18.5855 34.5007 18.2482 34.1634 18.2489 33.7498L17.2489 33.7481C17.2473 34.7153 18.0336 35.5017 19.0009 35.5L18.9991 34.5Z" fill="#353535" mask="url(#path-2-inside-1_2588_10103)"/>
<path d="M37.875 14.8837V33.1163C37.875 35.7444 35.7444 37.875 33.1163 37.875H14.8837C12.2556 37.875 10.125 35.7444 10.125 33.1163V14.8837C10.125 12.2556 12.2556 10.125 14.8837 10.125H33.1163C35.7444 10.125 37.875 12.2556 37.875 14.8837ZM36.1715 14.8837C36.1715 13.1959 34.8041 11.8285 33.1163 11.8285H14.8837C13.1959 11.8285 11.8285 13.1959 11.8285 14.8837V33.1163C11.8285 34.8041 13.1959 36.1715 14.8837 36.1715H33.1163C34.8041 36.1715 36.1715 34.8041 36.1715 33.1163V14.8837Z" fill="white" stroke="#353535" stroke-width="0.25"/>
<path d="M30.4423 33.7138C30.6196 33.5365 30.7193 33.2961 30.7195 33.0454V32.9819C30.7192 32.7312 30.6194 32.4909 30.4421 32.3137C30.2649 32.1365 30.0245 32.0369 29.7739 32.0367C29.7739 32.0367 29.7739 32.0367 29.7738 32.0367M30.4423 33.7138L29.7739 31.9667L29.7738 32.0367M30.4423 33.7138C30.265 33.8911 30.0246 33.9908 29.7738 33.991H29.7099M30.4423 33.7138L29.7099 33.991M29.7738 32.0367H29.7099M29.7738 32.0367H29.7099M29.7099 32.0367L29.7098 32.0367L29.7099 32.0367ZM28.7647 33.0454L28.7647 33.0454V32.9819L29.7098 34.061C29.4406 34.0607 29.1826 33.9536 28.9923 33.7632C28.8019 33.5728 28.6949 33.3146 28.6947 33.0454H28.7647ZM28.7647 33.0454C28.7649 33.2961 28.8646 33.5364 29.0418 33.7137C29.219 33.891 29.4593 33.9907 29.7099 33.991M28.7647 33.0454L29.7099 33.991M29.774 30.8074H29.7739L29.7098 30.8074L29.7098 30.8074C29.1333 30.8082 28.5807 31.0375 28.1731 31.4451C27.7655 31.8527 27.5362 32.4053 27.5355 32.9817V32.9818L27.5355 33.0454L27.5355 33.0455C27.5361 33.622 27.7653 34.1748 28.1729 34.5825C28.5806 34.9902 29.1332 35.2195 29.7098 35.2202H29.7098H29.7739H29.774C30.3506 35.2196 30.9034 34.9903 31.3111 34.5826C31.7188 34.1749 31.9481 33.6221 31.9487 33.0455V33.0454V32.9818V32.9817C31.948 32.4052 31.7186 31.8525 31.3109 31.4449C30.9032 31.0373 30.3505 30.808 29.774 30.8074Z" fill="white" stroke="white" stroke-width="0.14"/>
<path d="M31.6815 24.43H31.6814C31.1063 24.43 30.5441 24.6005 30.0659 24.9201C29.5878 25.2396 29.2151 25.6937 28.995 26.225C28.775 26.7564 28.7174 27.341 28.8297 27.9051C28.9419 28.4691 29.2189 28.9872 29.6255 29.3938C30.0322 29.8004 30.5504 30.0773 31.1144 30.1895C31.6785 30.3016 32.2631 30.244 32.7944 30.0238C33.3257 29.8037 33.7798 29.4309 34.0992 28.9527C34.4187 28.4745 34.5891 27.9123 34.589 27.3372V27.3371C34.5881 26.5663 34.2814 25.8274 33.7364 25.2824C33.1913 24.7374 32.4523 24.4308 31.6815 24.43ZM31.6813 29.0156C31.3494 29.0156 31.0249 28.9172 30.7489 28.7328C30.4729 28.5483 30.2578 28.2862 30.1307 27.9795C30.0037 27.6728 29.9705 27.3353 30.0352 27.0098C30.1 26.6842 30.2598 26.3851 30.4946 26.1504C30.7293 25.9157 31.0284 25.7558 31.3539 25.691C31.6795 25.6263 32.017 25.6595 32.3237 25.7866C32.6304 25.9136 32.8925 26.1287 33.077 26.4047C33.2614 26.6807 33.3598 27.0052 33.3598 27.3371C33.3594 27.7822 33.1824 28.2088 32.8677 28.5235C32.553 28.8382 32.1264 29.0152 31.6813 29.0156Z" fill="white" stroke="white" stroke-width="0.14"/>
<path d="M25.5138 17.7965C25.4825 17.7481 25.4407 17.7068 25.3918 17.6748V17.6715L25.3511 17.6505L22.584 16.227L22.584 16.227C22.5174 16.1928 22.4424 16.175 22.3664 16.175C22.2905 16.175 22.2155 16.1928 22.1489 16.2271C22.0822 16.2614 22.0258 16.3113 21.9861 16.3726C21.9463 16.4339 21.925 16.5043 21.925 16.5766C21.925 16.5766 21.925 16.5766 21.925 16.5766L21.925 19.4236L21.925 19.4237C21.9251 19.4959 21.9465 19.5662 21.9863 19.6276C22.026 19.6888 22.0824 19.7386 22.149 19.7729C22.2156 19.8071 22.2905 19.8249 22.3664 19.825C22.4423 19.8251 22.5173 19.8074 22.5839 19.7732L22.584 19.7731L25.3511 18.3499L25.3511 18.3499C25.4177 18.3156 25.4741 18.2658 25.5138 18.2045C25.5536 18.1431 25.575 18.0728 25.575 18.0005C25.575 17.9282 25.5536 17.8578 25.5138 17.7965ZM22.808 18.7347V17.265L24.2366 17.9998L22.808 18.7347Z" fill="white" stroke="white" stroke-width="0.15"/>
<rect x="13.65" y="13.65" width="20.7" height="8.7" rx="2.35" stroke="white" stroke-width="1.3"/>
</g>
<defs>
<clipPath id="clip0_2588_10103">
<rect width="48" height="48" fill="white"/>
</clipPath>
</defs>
</svg>
