<svg width="48" height="48" viewBox="0 0 48 48" fill="none" xmlns="http://www.w3.org/2000/svg">
<rect width="48" height="48" rx="8" fill="#222222"/>
<mask id="path-2-outside-1_2588_10093" maskUnits="userSpaceOnUse" x="9" y="9" width="30" height="30" fill="black">
<rect fill="white" x="9" y="9" width="30" height="30"/>
<path fill-rule="evenodd" clip-rule="evenodd" d="M13.7937 27.6604C14.9708 27.316 16.231 27.3926 17.3576 27.877L17.6265 27.6092C18.5871 26.6461 19.1265 25.3412 19.1265 23.9808C19.1265 22.6204 18.5871 21.3156 17.6265 20.3525L17.3871 20.1132C16.262 20.6045 15.0007 20.6874 13.8209 20.3476C12.6411 20.0078 11.617 19.2667 10.9253 18.2521C10.2336 17.2376 9.91781 16.0133 10.0324 14.7907C10.1469 13.5681 10.6847 12.4238 11.5528 11.5555C12.4209 10.6872 13.5649 10.1493 14.7872 10.0347C16.0095 9.9201 17.2335 10.236 18.2478 10.9279C19.2621 11.6197 20.0031 12.6441 20.3428 13.8241C20.6824 15.0042 20.5996 16.2658 20.1084 17.3913L20.3472 17.63C21.3105 18.5899 22.6149 19.1288 23.9746 19.1288C25.3344 19.1288 26.6387 18.5899 27.602 17.63L27.8699 17.3621C27.386 16.2338 27.3102 14.972 27.6557 13.7939C28.0012 12.6158 28.7464 11.5949 29.763 10.9069C30.7797 10.2189 32.0042 9.90678 33.2261 10.0242C34.4479 10.1417 35.5906 10.6813 36.4577 11.5504C37.3247 12.4194 37.8619 13.5635 37.9768 14.7859C38.0917 16.0083 37.7771 17.2325 37.0872 18.248C36.3973 19.2634 35.3751 20.0067 34.1966 20.3499C33.018 20.693 31.7568 20.6147 30.6298 20.1282L30.3647 20.3934C29.4055 21.3572 28.8671 22.6618 28.8671 24.0217C28.8671 25.3816 29.4055 26.6862 30.3647 27.65L30.6009 27.8863C31.7248 27.396 32.9846 27.3136 34.1628 27.6533C35.3409 27.9929 36.3636 28.7333 37.0543 29.7467C37.7449 30.7601 38.0602 31.9828 37.9458 33.2039C37.8313 34.425 37.2943 35.5678 36.4273 36.4351C35.5604 37.3024 34.4179 37.8397 33.1972 37.9544C31.9764 38.0691 30.7539 37.7539 29.7407 37.0632C28.7275 36.3726 27.9871 35.3498 27.6473 34.1714C27.3076 32.9929 27.3897 31.7329 27.8797 30.6086L27.6438 30.3723C26.6809 29.4116 25.3764 28.872 24.0163 28.872C22.6563 28.872 21.3517 29.4116 20.3889 30.3723L20.1204 30.6403C20.6048 31.7672 20.6814 33.0277 20.3372 34.205C19.993 35.3823 19.2494 36.4029 18.2343 37.0912C17.2192 37.7794 15.9961 38.0924 14.7753 37.9763C13.5544 37.8602 12.4122 37.3222 11.545 36.4548C10.6779 35.5875 10.1399 34.445 10.0237 33.2239C9.90755 32.0028 10.2204 30.7793 10.9084 29.764C11.5965 28.7486 12.6167 28.0047 13.7937 27.6604ZM20.0005 23.9807C20.0005 22.3885 19.3691 20.8613 18.2448 19.7342L18.1897 19.6779C18.4835 19.483 18.7571 19.2592 19.0064 19.0099C19.2555 18.7605 19.4791 18.4869 19.6739 18.1931L19.7297 18.2487C20.8571 19.3725 22.3839 20.0034 23.9756 20.0034C25.5672 20.0034 27.094 19.3725 28.2215 18.2487L28.3019 18.1683C28.7001 18.7762 29.2189 19.2958 29.8261 19.6949L29.747 19.7746C28.6236 20.9024 27.9928 22.4296 27.9928 24.0217C27.9928 25.6137 28.6236 27.1409 29.747 28.2688L29.8017 28.3234C29.2133 28.715 28.7087 29.2196 28.317 29.808L28.2623 29.7533C27.1354 28.6284 25.6084 27.9967 24.0164 27.9967C22.4244 27.9967 20.8974 28.6284 19.7705 29.7533L19.69 29.8341C19.4916 29.5306 19.2625 29.2484 19.0062 28.9919C18.7497 28.7356 18.4676 28.5062 18.1643 28.3075L18.2448 28.2272C19.3691 27.1001 20.0005 25.5729 20.0005 23.9807ZM19.0394 17.5589C18.8566 17.8618 18.6376 18.1415 18.3874 18.3916C18.1372 18.6419 17.8576 18.8609 17.5547 19.044L15.0781 16.5667C14.5129 16.0014 14.8282 15.3841 15.1044 15.108C15.3806 14.8318 15.9976 14.5162 16.5628 15.0816L19.0394 17.5589ZM14.289 19.5671C13.4851 19.3819 12.7494 18.9747 12.1656 18.3916C11.6101 17.8362 11.2132 17.1419 11.0165 16.3813C10.8197 15.6206 10.8302 14.8212 11.0468 14.0659C11.2634 13.3107 11.6782 12.6272 12.2481 12.0866C12.8181 11.5459 13.5223 11.1677 14.2878 10.9913C15.0532 10.8149 15.8519 10.8467 16.6009 11.0834C17.3499 11.3201 18.0219 11.7531 18.5471 12.3373C19.0722 12.9216 19.4314 13.6359 19.5873 14.4059C19.7432 15.176 19.6901 15.9738 19.4336 16.7164L17.1811 14.463C16.3048 13.5866 15.1618 13.812 14.4857 14.4888C13.8096 15.1657 13.5832 16.3085 14.4593 17.1849L16.7125 19.4388C15.9327 19.7078 15.0929 19.7522 14.289 19.5671ZM32.9131 16.6077L30.4607 19.061C30.1489 18.8738 29.8614 18.649 29.6044 18.3916C29.347 18.1345 29.1226 17.8464 28.9363 17.5339L31.3874 15.0816C31.9503 14.5184 32.5807 14.8482 32.8638 15.1314C33.147 15.4146 33.476 16.0444 32.9131 16.6077ZM28.4332 14.2762C28.6199 13.4781 29.0255 12.748 29.6044 12.168C30.116 11.6567 30.7455 11.2794 31.4377 11.0697C32.1299 10.8599 32.8631 10.8241 33.5724 10.9654C34.2817 11.1067 34.9452 11.4208 35.5042 11.8798C36.0633 12.3388 36.5005 12.9286 36.7772 13.5969C37.054 14.2653 37.1617 14.9916 37.0909 15.7115C37.02 16.4315 36.7728 17.1228 36.3711 17.7244C35.9694 18.326 35.4256 18.8192 34.7879 19.1604C34.1501 19.5016 33.4381 19.6802 32.7149 19.6805C32.2365 19.6806 31.7612 19.603 31.3077 19.4507L33.5317 17.2267C34.0208 16.7366 34.2041 16.0898 34.0329 15.4517C33.9316 15.0972 33.7416 14.7743 33.4809 14.5136C33.2203 14.2529 32.8975 14.0629 32.5431 13.9616C32.2296 13.8776 31.8994 13.8799 31.5871 13.9681C31.2749 14.0564 30.9922 14.2273 30.7691 14.463L28.5478 16.6853C28.2862 15.9086 28.2466 15.0742 28.4332 14.2762ZM31.4289 32.9207L28.9521 30.4435C29.3195 29.8356 29.8291 29.3259 30.4369 28.9584L32.9132 31.4359C33.4789 32.0018 33.1629 32.6187 32.8874 32.8944C32.7011 33.0871 32.4526 33.2076 32.186 33.2346C32.0444 33.242 31.903 33.2176 31.772 33.1633C31.641 33.109 31.5238 33.0262 31.4289 32.9207ZM31.2788 28.5642C31.7411 28.4055 32.2265 28.3245 32.7153 28.3245C33.6485 28.3242 34.5579 28.6206 35.3118 29.1709C36.0656 29.7211 36.6251 30.4967 36.9094 31.3858C37.1938 32.2748 37.1883 33.2313 36.8937 34.117C36.5991 35.0027 36.0307 35.7719 35.2706 36.3134C34.5105 36.8549 33.598 37.1407 32.6648 37.1296C31.7317 37.1185 30.8262 36.8111 30.0792 36.2516C29.3321 35.6922 28.7822 34.9098 28.5087 34.0173C28.2353 33.1248 28.2525 32.1685 28.5579 31.2865L30.8105 33.5401C30.9788 33.7186 31.1813 33.8613 31.406 33.9598C31.6307 34.0582 31.8728 34.1104 32.1181 34.1132C32.6414 34.1032 33.1399 33.888 33.5061 33.5139C34.1819 32.8375 34.4081 31.6942 33.5319 30.8178L31.2788 28.5642ZM15.0776 31.3949L17.5293 28.9427C18.1567 29.317 18.6811 29.8416 19.055 30.4693L16.6038 32.9207C16.041 33.484 15.4106 33.1542 15.1274 32.871C14.8443 32.5877 14.5153 31.9579 15.0776 31.3949ZM19.558 33.7263C19.3714 34.5243 18.9658 35.2545 18.3869 35.8346C17.8755 36.3464 17.2457 36.7244 16.5535 36.9346C15.8612 37.1448 15.1278 37.1809 14.4183 37.0398C13.7087 36.8988 13.0449 36.5848 12.4856 36.1258C11.9263 35.6668 11.4888 35.0769 11.2119 34.4084C10.935 33.7399 10.8273 33.0133 10.8982 32.2932C10.969 31.5731 11.2164 30.8815 11.6184 30.2798C12.0203 29.6782 12.5644 29.1849 13.2024 28.8439C13.8405 28.5028 14.5528 28.3244 15.2762 28.3244C15.754 28.3247 16.2285 28.4022 16.6815 28.554L14.4593 30.7763C13.5854 31.6504 13.8224 32.8033 14.5091 33.4896C15.1958 34.1759 16.3476 34.4137 17.2222 33.5394L19.4436 31.3171C19.7051 32.0938 19.7447 32.9282 19.558 33.7263Z"/>
</mask>
<path fill-rule="evenodd" clip-rule="evenodd" d="M13.7937 27.6604C14.9708 27.316 16.231 27.3926 17.3576 27.877L17.6265 27.6092C18.5871 26.6461 19.1265 25.3412 19.1265 23.9808C19.1265 22.6204 18.5871 21.3156 17.6265 20.3525L17.3871 20.1132C16.262 20.6045 15.0007 20.6874 13.8209 20.3476C12.6411 20.0078 11.617 19.2667 10.9253 18.2521C10.2336 17.2376 9.91781 16.0133 10.0324 14.7907C10.1469 13.5681 10.6847 12.4238 11.5528 11.5555C12.4209 10.6872 13.5649 10.1493 14.7872 10.0347C16.0095 9.9201 17.2335 10.236 18.2478 10.9279C19.2621 11.6197 20.0031 12.6441 20.3428 13.8241C20.6824 15.0042 20.5996 16.2658 20.1084 17.3913L20.3472 17.63C21.3105 18.5899 22.6149 19.1288 23.9746 19.1288C25.3344 19.1288 26.6387 18.5899 27.602 17.63L27.8699 17.3621C27.386 16.2338 27.3102 14.972 27.6557 13.7939C28.0012 12.6158 28.7464 11.5949 29.763 10.9069C30.7797 10.2189 32.0042 9.90678 33.2261 10.0242C34.4479 10.1417 35.5906 10.6813 36.4577 11.5504C37.3247 12.4194 37.8619 13.5635 37.9768 14.7859C38.0917 16.0083 37.7771 17.2325 37.0872 18.248C36.3973 19.2634 35.3751 20.0067 34.1966 20.3499C33.018 20.693 31.7568 20.6147 30.6298 20.1282L30.3647 20.3934C29.4055 21.3572 28.8671 22.6618 28.8671 24.0217C28.8671 25.3816 29.4055 26.6862 30.3647 27.65L30.6009 27.8863C31.7248 27.396 32.9846 27.3136 34.1628 27.6533C35.3409 27.9929 36.3636 28.7333 37.0543 29.7467C37.7449 30.7601 38.0602 31.9828 37.9458 33.2039C37.8313 34.425 37.2943 35.5678 36.4273 36.4351C35.5604 37.3024 34.4179 37.8397 33.1972 37.9544C31.9764 38.0691 30.7539 37.7539 29.7407 37.0632C28.7275 36.3726 27.9871 35.3498 27.6473 34.1714C27.3076 32.9929 27.3897 31.7329 27.8797 30.6086L27.6438 30.3723C26.6809 29.4116 25.3764 28.872 24.0163 28.872C22.6563 28.872 21.3517 29.4116 20.3889 30.3723L20.1204 30.6403C20.6048 31.7672 20.6814 33.0277 20.3372 34.205C19.993 35.3823 19.2494 36.4029 18.2343 37.0912C17.2192 37.7794 15.9961 38.0924 14.7753 37.9763C13.5544 37.8602 12.4122 37.3222 11.545 36.4548C10.6779 35.5875 10.1399 34.445 10.0237 33.2239C9.90755 32.0028 10.2204 30.7793 10.9084 29.764C11.5965 28.7486 12.6167 28.0047 13.7937 27.6604ZM20.0005 23.9807C20.0005 22.3885 19.3691 20.8613 18.2448 19.7342L18.1897 19.6779C18.4835 19.483 18.7571 19.2592 19.0064 19.0099C19.2555 18.7605 19.4791 18.4869 19.6739 18.1931L19.7297 18.2487C20.8571 19.3725 22.3839 20.0034 23.9756 20.0034C25.5672 20.0034 27.094 19.3725 28.2215 18.2487L28.3019 18.1683C28.7001 18.7762 29.2189 19.2958 29.8261 19.6949L29.747 19.7746C28.6236 20.9024 27.9928 22.4296 27.9928 24.0217C27.9928 25.6137 28.6236 27.1409 29.747 28.2688L29.8017 28.3234C29.2133 28.715 28.7087 29.2196 28.317 29.808L28.2623 29.7533C27.1354 28.6284 25.6084 27.9967 24.0164 27.9967C22.4244 27.9967 20.8974 28.6284 19.7705 29.7533L19.69 29.8341C19.4916 29.5306 19.2625 29.2484 19.0062 28.9919C18.7497 28.7356 18.4676 28.5062 18.1643 28.3075L18.2448 28.2272C19.3691 27.1001 20.0005 25.5729 20.0005 23.9807ZM19.0394 17.5589C18.8566 17.8618 18.6376 18.1415 18.3874 18.3916C18.1372 18.6419 17.8576 18.8609 17.5547 19.044L15.0781 16.5667C14.5129 16.0014 14.8282 15.3841 15.1044 15.108C15.3806 14.8318 15.9976 14.5162 16.5628 15.0816L19.0394 17.5589ZM14.289 19.5671C13.4851 19.3819 12.7494 18.9747 12.1656 18.3916C11.6101 17.8362 11.2132 17.1419 11.0165 16.3813C10.8197 15.6206 10.8302 14.8212 11.0468 14.0659C11.2634 13.3107 11.6782 12.6272 12.2481 12.0866C12.8181 11.5459 13.5223 11.1677 14.2878 10.9913C15.0532 10.8149 15.8519 10.8467 16.6009 11.0834C17.3499 11.3201 18.0219 11.7531 18.5471 12.3373C19.0722 12.9216 19.4314 13.6359 19.5873 14.4059C19.7432 15.176 19.6901 15.9738 19.4336 16.7164L17.1811 14.463C16.3048 13.5866 15.1618 13.812 14.4857 14.4888C13.8096 15.1657 13.5832 16.3085 14.4593 17.1849L16.7125 19.4388C15.9327 19.7078 15.0929 19.7522 14.289 19.5671ZM32.9131 16.6077L30.4607 19.061C30.1489 18.8738 29.8614 18.649 29.6044 18.3916C29.347 18.1345 29.1226 17.8464 28.9363 17.5339L31.3874 15.0816C31.9503 14.5184 32.5807 14.8482 32.8638 15.1314C33.147 15.4146 33.476 16.0444 32.9131 16.6077ZM28.4332 14.2762C28.6199 13.4781 29.0255 12.748 29.6044 12.168C30.116 11.6567 30.7455 11.2794 31.4377 11.0697C32.1299 10.8599 32.8631 10.8241 33.5724 10.9654C34.2817 11.1067 34.9452 11.4208 35.5042 11.8798C36.0633 12.3388 36.5005 12.9286 36.7772 13.5969C37.054 14.2653 37.1617 14.9916 37.0909 15.7115C37.02 16.4315 36.7728 17.1228 36.3711 17.7244C35.9694 18.326 35.4256 18.8192 34.7879 19.1604C34.1501 19.5016 33.4381 19.6802 32.7149 19.6805C32.2365 19.6806 31.7612 19.603 31.3077 19.4507L33.5317 17.2267C34.0208 16.7366 34.2041 16.0898 34.0329 15.4517C33.9316 15.0972 33.7416 14.7743 33.4809 14.5136C33.2203 14.2529 32.8975 14.0629 32.5431 13.9616C32.2296 13.8776 31.8994 13.8799 31.5871 13.9681C31.2749 14.0564 30.9922 14.2273 30.7691 14.463L28.5478 16.6853C28.2862 15.9086 28.2466 15.0742 28.4332 14.2762ZM31.4289 32.9207L28.9521 30.4435C29.3195 29.8356 29.8291 29.3259 30.4369 28.9584L32.9132 31.4359C33.4789 32.0018 33.1629 32.6187 32.8874 32.8944C32.7011 33.0871 32.4526 33.2076 32.186 33.2346C32.0444 33.242 31.903 33.2176 31.772 33.1633C31.641 33.109 31.5238 33.0262 31.4289 32.9207ZM31.2788 28.5642C31.7411 28.4055 32.2265 28.3245 32.7153 28.3245C33.6485 28.3242 34.5579 28.6206 35.3118 29.1709C36.0656 29.7211 36.6251 30.4967 36.9094 31.3858C37.1938 32.2748 37.1883 33.2313 36.8937 34.117C36.5991 35.0027 36.0307 35.7719 35.2706 36.3134C34.5105 36.8549 33.598 37.1407 32.6648 37.1296C31.7317 37.1185 30.8262 36.8111 30.0792 36.2516C29.3321 35.6922 28.7822 34.9098 28.5087 34.0173C28.2353 33.1248 28.2525 32.1685 28.5579 31.2865L30.8105 33.5401C30.9788 33.7186 31.1813 33.8613 31.406 33.9598C31.6307 34.0582 31.8728 34.1104 32.1181 34.1132C32.6414 34.1032 33.1399 33.888 33.5061 33.5139C34.1819 32.8375 34.4081 31.6942 33.5319 30.8178L31.2788 28.5642ZM15.0776 31.3949L17.5293 28.9427C18.1567 29.317 18.6811 29.8416 19.055 30.4693L16.6038 32.9207C16.041 33.484 15.4106 33.1542 15.1274 32.871C14.8443 32.5877 14.5153 31.9579 15.0776 31.3949ZM19.558 33.7263C19.3714 34.5243 18.9658 35.2545 18.3869 35.8346C17.8755 36.3464 17.2457 36.7244 16.5535 36.9346C15.8612 37.1448 15.1278 37.1809 14.4183 37.0398C13.7087 36.8988 13.0449 36.5848 12.4856 36.1258C11.9263 35.6668 11.4888 35.0769 11.2119 34.4084C10.935 33.7399 10.8273 33.0133 10.8982 32.2932C10.969 31.5731 11.2164 30.8815 11.6184 30.2798C12.0203 29.6782 12.5644 29.1849 13.2024 28.8439C13.8405 28.5028 14.5528 28.3244 15.2762 28.3244C15.754 28.3247 16.2285 28.4022 16.6815 28.554L14.4593 30.7763C13.5854 31.6504 13.8224 32.8033 14.5091 33.4896C15.1958 34.1759 16.3476 34.4137 17.2222 33.5394L19.4436 31.3171C19.7051 32.0938 19.7447 32.9282 19.558 33.7263Z" fill="white"/>
<path fill-rule="evenodd" clip-rule="evenodd" d="M13.7937 27.6604C14.9708 27.316 16.231 27.3926 17.3576 27.877L17.6265 27.6092C18.5871 26.6461 19.1265 25.3412 19.1265 23.9808C19.1265 22.6204 18.5871 21.3156 17.6265 20.3525L17.3871 20.1132C16.262 20.6045 15.0007 20.6874 13.8209 20.3476C12.6411 20.0078 11.617 19.2667 10.9253 18.2521C10.2336 17.2376 9.91781 16.0133 10.0324 14.7907C10.1469 13.5681 10.6847 12.4238 11.5528 11.5555C12.4209 10.6872 13.5649 10.1493 14.7872 10.0347C16.0095 9.9201 17.2335 10.236 18.2478 10.9279C19.2621 11.6197 20.0031 12.6441 20.3428 13.8241C20.6824 15.0042 20.5996 16.2658 20.1084 17.3913L20.3472 17.63C21.3105 18.5899 22.6149 19.1288 23.9746 19.1288C25.3344 19.1288 26.6387 18.5899 27.602 17.63L27.8699 17.3621C27.386 16.2338 27.3102 14.972 27.6557 13.7939C28.0012 12.6158 28.7464 11.5949 29.763 10.9069C30.7797 10.2189 32.0042 9.90678 33.2261 10.0242C34.4479 10.1417 35.5906 10.6813 36.4577 11.5504C37.3247 12.4194 37.8619 13.5635 37.9768 14.7859C38.0917 16.0083 37.7771 17.2325 37.0872 18.248C36.3973 19.2634 35.3751 20.0067 34.1966 20.3499C33.018 20.693 31.7568 20.6147 30.6298 20.1282L30.3647 20.3934C29.4055 21.3572 28.8671 22.6618 28.8671 24.0217C28.8671 25.3816 29.4055 26.6862 30.3647 27.65L30.6009 27.8863C31.7248 27.396 32.9846 27.3136 34.1628 27.6533C35.3409 27.9929 36.3636 28.7333 37.0543 29.7467C37.7449 30.7601 38.0602 31.9828 37.9458 33.2039C37.8313 34.425 37.2943 35.5678 36.4273 36.4351C35.5604 37.3024 34.4179 37.8397 33.1972 37.9544C31.9764 38.0691 30.7539 37.7539 29.7407 37.0632C28.7275 36.3726 27.9871 35.3498 27.6473 34.1714C27.3076 32.9929 27.3897 31.7329 27.8797 30.6086L27.6438 30.3723C26.6809 29.4116 25.3764 28.872 24.0163 28.872C22.6563 28.872 21.3517 29.4116 20.3889 30.3723L20.1204 30.6403C20.6048 31.7672 20.6814 33.0277 20.3372 34.205C19.993 35.3823 19.2494 36.4029 18.2343 37.0912C17.2192 37.7794 15.9961 38.0924 14.7753 37.9763C13.5544 37.8602 12.4122 37.3222 11.545 36.4548C10.6779 35.5875 10.1399 34.445 10.0237 33.2239C9.90755 32.0028 10.2204 30.7793 10.9084 29.764C11.5965 28.7486 12.6167 28.0047 13.7937 27.6604ZM20.0005 23.9807C20.0005 22.3885 19.3691 20.8613 18.2448 19.7342L18.1897 19.6779C18.4835 19.483 18.7571 19.2592 19.0064 19.0099C19.2555 18.7605 19.4791 18.4869 19.6739 18.1931L19.7297 18.2487C20.8571 19.3725 22.3839 20.0034 23.9756 20.0034C25.5672 20.0034 27.094 19.3725 28.2215 18.2487L28.3019 18.1683C28.7001 18.7762 29.2189 19.2958 29.8261 19.6949L29.747 19.7746C28.6236 20.9024 27.9928 22.4296 27.9928 24.0217C27.9928 25.6137 28.6236 27.1409 29.747 28.2688L29.8017 28.3234C29.2133 28.715 28.7087 29.2196 28.317 29.808L28.2623 29.7533C27.1354 28.6284 25.6084 27.9967 24.0164 27.9967C22.4244 27.9967 20.8974 28.6284 19.7705 29.7533L19.69 29.8341C19.4916 29.5306 19.2625 29.2484 19.0062 28.9919C18.7497 28.7356 18.4676 28.5062 18.1643 28.3075L18.2448 28.2272C19.3691 27.1001 20.0005 25.5729 20.0005 23.9807ZM19.0394 17.5589C18.8566 17.8618 18.6376 18.1415 18.3874 18.3916C18.1372 18.6419 17.8576 18.8609 17.5547 19.044L15.0781 16.5667C14.5129 16.0014 14.8282 15.3841 15.1044 15.108C15.3806 14.8318 15.9976 14.5162 16.5628 15.0816L19.0394 17.5589ZM14.289 19.5671C13.4851 19.3819 12.7494 18.9747 12.1656 18.3916C11.6101 17.8362 11.2132 17.1419 11.0165 16.3813C10.8197 15.6206 10.8302 14.8212 11.0468 14.0659C11.2634 13.3107 11.6782 12.6272 12.2481 12.0866C12.8181 11.5459 13.5223 11.1677 14.2878 10.9913C15.0532 10.8149 15.8519 10.8467 16.6009 11.0834C17.3499 11.3201 18.0219 11.7531 18.5471 12.3373C19.0722 12.9216 19.4314 13.6359 19.5873 14.4059C19.7432 15.176 19.6901 15.9738 19.4336 16.7164L17.1811 14.463C16.3048 13.5866 15.1618 13.812 14.4857 14.4888C13.8096 15.1657 13.5832 16.3085 14.4593 17.1849L16.7125 19.4388C15.9327 19.7078 15.0929 19.7522 14.289 19.5671ZM32.9131 16.6077L30.4607 19.061C30.1489 18.8738 29.8614 18.649 29.6044 18.3916C29.347 18.1345 29.1226 17.8464 28.9363 17.5339L31.3874 15.0816C31.9503 14.5184 32.5807 14.8482 32.8638 15.1314C33.147 15.4146 33.476 16.0444 32.9131 16.6077ZM28.4332 14.2762C28.6199 13.4781 29.0255 12.748 29.6044 12.168C30.116 11.6567 30.7455 11.2794 31.4377 11.0697C32.1299 10.8599 32.8631 10.8241 33.5724 10.9654C34.2817 11.1067 34.9452 11.4208 35.5042 11.8798C36.0633 12.3388 36.5005 12.9286 36.7772 13.5969C37.054 14.2653 37.1617 14.9916 37.0909 15.7115C37.02 16.4315 36.7728 17.1228 36.3711 17.7244C35.9694 18.326 35.4256 18.8192 34.7879 19.1604C34.1501 19.5016 33.4381 19.6802 32.7149 19.6805C32.2365 19.6806 31.7612 19.603 31.3077 19.4507L33.5317 17.2267C34.0208 16.7366 34.2041 16.0898 34.0329 15.4517C33.9316 15.0972 33.7416 14.7743 33.4809 14.5136C33.2203 14.2529 32.8975 14.0629 32.5431 13.9616C32.2296 13.8776 31.8994 13.8799 31.5871 13.9681C31.2749 14.0564 30.9922 14.2273 30.7691 14.463L28.5478 16.6853C28.2862 15.9086 28.2466 15.0742 28.4332 14.2762ZM31.4289 32.9207L28.9521 30.4435C29.3195 29.8356 29.8291 29.3259 30.4369 28.9584L32.9132 31.4359C33.4789 32.0018 33.1629 32.6187 32.8874 32.8944C32.7011 33.0871 32.4526 33.2076 32.186 33.2346C32.0444 33.242 31.903 33.2176 31.772 33.1633C31.641 33.109 31.5238 33.0262 31.4289 32.9207ZM31.2788 28.5642C31.7411 28.4055 32.2265 28.3245 32.7153 28.3245C33.6485 28.3242 34.5579 28.6206 35.3118 29.1709C36.0656 29.7211 36.6251 30.4967 36.9094 31.3858C37.1938 32.2748 37.1883 33.2313 36.8937 34.117C36.5991 35.0027 36.0307 35.7719 35.2706 36.3134C34.5105 36.8549 33.598 37.1407 32.6648 37.1296C31.7317 37.1185 30.8262 36.8111 30.0792 36.2516C29.3321 35.6922 28.7822 34.9098 28.5087 34.0173C28.2353 33.1248 28.2525 32.1685 28.5579 31.2865L30.8105 33.5401C30.9788 33.7186 31.1813 33.8613 31.406 33.9598C31.6307 34.0582 31.8728 34.1104 32.1181 34.1132C32.6414 34.1032 33.1399 33.888 33.5061 33.5139C34.1819 32.8375 34.4081 31.6942 33.5319 30.8178L31.2788 28.5642ZM15.0776 31.3949L17.5293 28.9427C18.1567 29.317 18.6811 29.8416 19.055 30.4693L16.6038 32.9207C16.041 33.484 15.4106 33.1542 15.1274 32.871C14.8443 32.5877 14.5153 31.9579 15.0776 31.3949ZM19.558 33.7263C19.3714 34.5243 18.9658 35.2545 18.3869 35.8346C17.8755 36.3464 17.2457 36.7244 16.5535 36.9346C15.8612 37.1448 15.1278 37.1809 14.4183 37.0398C13.7087 36.8988 13.0449 36.5848 12.4856 36.1258C11.9263 35.6668 11.4888 35.0769 11.2119 34.4084C10.935 33.7399 10.8273 33.0133 10.8982 32.2932C10.969 31.5731 11.2164 30.8815 11.6184 30.2798C12.0203 29.6782 12.5644 29.1849 13.2024 28.8439C13.8405 28.5028 14.5528 28.3244 15.2762 28.3244C15.754 28.3247 16.2285 28.4022 16.6815 28.554L14.4593 30.7763C13.5854 31.6504 13.8224 32.8033 14.5091 33.4896C15.1958 34.1759 16.3476 34.4137 17.2222 33.5394L19.4436 31.3171C19.7051 32.0938 19.7447 32.9282 19.558 33.7263Z" stroke="white" stroke-width="0.4" mask="url(#path-2-outside-1_2588_10093)"/>
</svg>
