<svg width="16" height="17" viewBox="0 0 16 17" fill="none" xmlns="http://www.w3.org/2000/svg">
<g clip-path="url(#clip0_4134_1110)">
<path d="M11.4003 7.35029C11.4913 7.25598 11.5417 7.12968 11.5406 6.99859C11.5395 6.86749 11.4869 6.74208 11.3942 6.64938C11.3015 6.55667 11.1761 6.50409 11.045 6.50295C10.9139 6.50181 10.7876 6.55221 10.6933 6.64329L7.04325 10.2933L5.39325 8.64329C5.29895 8.55221 5.17265 8.50181 5.04155 8.50295C4.91046 8.50409 4.78505 8.55667 4.69234 8.64938C4.59964 8.74208 4.54706 8.86749 4.54592 8.99858C4.54478 9.12968 4.59518 9.25598 4.68625 9.35029L6.68625 11.3503C6.78002 11.444 6.90717 11.4967 7.03975 11.4967C7.17234 11.4967 7.29949 11.444 7.39325 11.3503L11.3933 7.35029H11.4003Z" fill="#32D16D"/>
<path fill-rule="evenodd" clip-rule="evenodd" d="M8 0.5C3.58 0.5 0 4.08 0 8.5C0 12.92 3.58 16.5 8 16.5C12.42 16.5 16 12.92 16 8.5C16 4.08 12.42 0.5 8 0.5ZM1 8.5C1 4.63 4.13 1.5 8 1.5C11.87 1.5 15 4.63 15 8.5C15 12.37 11.87 15.5 8 15.5C4.13 15.5 1 12.37 1 8.5Z" fill="#32D16D"/>
</g>
<defs>
<clipPath id="clip0_4134_1110">
<rect width="16" height="16" fill="white" transform="translate(0 0.5)"/>
</clipPath>
</defs>
</svg>
