<svg width="240" height="240" viewBox="0 0 240 240" fill="none" xmlns="http://www.w3.org/2000/svg">
<path d="M101.243 19.7202C100.467 19.7207 99.7109 19.4801 99.0784 19.0317L96.7053 17.351C91.2222 13.4415 84.6528 11.3464 77.9187 11.3596H58.7951C58.0481 11.3596 57.3266 11.3926 56.5796 11.4584C56.0878 11.5091 55.5908 11.4607 55.118 11.3161C54.6452 11.1715 54.2062 10.9336 53.8269 10.6164C53.4476 10.2993 53.1357 9.90936 52.9097 9.46964C52.6836 9.02993 52.548 8.54938 52.5108 8.05636C52.4228 7.06575 52.7318 6.08074 53.3697 5.31779C54.0076 4.55485 54.9224 4.07641 55.9129 3.98761C56.887 3.89971 57.8209 3.85944 58.795 3.85944H77.9185C86.2075 3.84442 94.2936 6.422 101.045 11.2313L103.414 12.9085C104.064 13.3686 104.551 14.0236 104.804 14.7788C105.057 15.534 105.063 16.3501 104.821 17.1089C104.579 17.8677 104.102 18.5297 103.458 18.9992C102.815 19.4687 102.039 19.7213 101.243 19.7202Z" fill="white"/>
<path d="M65.3943 138.859H59.5459C51.3537 138.866 43.372 136.264 36.7566 131.432L21.9066 120.669C15.0879 115.698 10.0241 108.69 7.44505 100.656L2.01415 83.9164C1.98486 83.8249 1.95921 83.7296 1.93356 83.6344C-0.675779 75.5541 -0.646268 66.8531 2.01782 58.7906L7.45236 42.0402C10.0295 34.0126 15.0912 27.0118 21.9067 22.0487L36.7567 11.2858C38.8521 9.76811 41.0919 8.46054 43.4437 7.38204C43.8922 7.17649 44.3768 7.06144 44.8698 7.0435C45.3628 7.02555 45.8544 7.10506 46.3166 7.27747C46.7789 7.44988 47.2025 7.71179 47.5633 8.04821C47.9241 8.38463 48.215 8.78894 48.4193 9.23797C48.6235 9.687 48.7372 10.1719 48.7538 10.665C48.7703 11.158 48.6894 11.6494 48.5157 12.1112C48.342 12.5729 48.0788 12.9958 47.7414 13.3556C47.404 13.7155 46.9988 14.0052 46.5492 14.2082C44.6507 15.0808 42.8426 16.1381 41.1512 17.365L26.3086 28.1204C20.7839 32.1462 16.6815 37.8234 14.5936 44.3326L9.14792 61.1161C6.95492 67.7522 6.95361 74.9175 9.14417 81.5544C9.17713 81.6496 9.20275 81.7484 9.2284 81.8437L14.5861 98.3634C16.6738 104.882 20.7804 110.567 26.3123 114.598L41.1586 125.361C46.4956 129.261 52.9355 131.362 59.546 131.359H65.3944C66.389 131.359 67.3428 131.754 68.046 132.457C68.7493 133.161 69.1444 134.114 69.1444 135.109C69.1444 136.104 68.7493 137.057 68.046 137.761C67.3428 138.464 66.3888 138.859 65.3943 138.859Z" fill="white"/>
<path d="M133.568 65.7714C132.743 65.7705 131.941 65.4973 131.287 64.994C130.632 64.4908 130.163 63.7858 129.95 62.9883C129.778 62.3474 129.613 61.7432 129.412 61.1389L123.86 44.3774C121.809 38.1304 117.883 32.6667 112.617 28.7293C112.223 28.4349 111.89 28.0657 111.637 27.6427C111.385 27.2197 111.219 26.7512 111.148 26.2639C111.077 25.7766 111.102 25.28 111.223 24.8026C111.344 24.3252 111.558 23.8763 111.852 23.4815C112.146 23.0866 112.516 22.7536 112.939 22.5015C113.362 22.2494 113.83 22.083 114.317 22.0119C115.302 21.8684 116.302 22.1217 117.1 22.7161C123.598 27.5689 128.444 34.3065 130.976 42.0117L136.531 58.7769C136.776 59.524 136.985 60.2674 137.194 61.0547C137.321 61.5303 137.353 62.0264 137.289 62.5145C137.224 63.0026 137.064 63.4733 136.818 63.8994C136.571 64.3256 136.243 64.699 135.852 64.9982C135.461 65.2975 135.015 65.5167 134.539 65.6433C134.222 65.7288 133.896 65.7719 133.568 65.7714Z" fill="white"/>
<path d="M41.2425 63.6214C39.8075 63.6226 38.3944 63.2688 37.1293 62.5915C35.8641 61.9142 34.7862 60.9344 33.9915 59.7395L32.4607 57.4434C31.5045 56.0133 30.9941 54.3316 30.9941 52.6112C30.9941 50.8909 31.5045 49.2092 32.4607 47.7791L33.9915 45.4793C34.7868 44.2845 35.8649 43.3047 37.13 42.6268C38.3951 41.949 39.8081 41.5941 41.2433 41.5938C42.6786 41.5934 44.0917 41.9475 45.3572 42.6247C46.6226 43.3019 47.7012 44.2812 48.4971 45.4755L50.0279 47.779C50.9879 49.2085 51.5002 50.8916 51.4996 52.6136C51.4989 54.3355 50.9852 56.0182 50.0241 57.447L48.4971 59.7394C47.7019 60.9347 46.6234 61.9147 45.3576 62.5921C44.0918 63.2694 42.6781 63.623 41.2425 63.6214ZM41.2425 49.0939C41.0419 49.0912 40.8439 49.1395 40.6671 49.2343C40.4904 49.3291 40.3405 49.4673 40.2318 49.6358L38.701 51.932V51.9357C38.5684 52.1355 38.4978 52.3698 38.4978 52.6095C38.4978 52.8492 38.5684 53.0836 38.701 53.2834L40.2318 55.5795C40.3429 55.7462 40.4934 55.8829 40.6701 55.9774C40.8467 56.072 41.0439 56.1214 41.2443 56.1214C41.4446 56.1214 41.6418 56.072 41.8185 55.9774C41.9951 55.8829 42.1456 55.7462 42.2568 55.5795L43.7875 53.2834C43.9215 53.085 43.9934 52.8513 43.994 52.6119C43.9947 52.3726 43.9241 52.1385 43.7913 51.9394L42.2569 49.6322C42.147 49.4642 41.9963 49.3267 41.819 49.2325C41.6416 49.1384 41.4433 49.0907 41.2425 49.0939Z" fill="white"/>
<path d="M111.537 38.9096C110.682 38.9093 109.839 38.7103 109.075 38.3283C108.31 37.9463 107.645 37.3918 107.131 36.7086L98.595 25.3231C97.8793 24.3735 97.4934 23.2162 97.4962 22.0271V14.1756C97.4966 13.2397 97.7361 12.3195 98.192 11.5022C98.6479 10.6849 99.3051 9.99761 100.101 9.50564C100.897 9.01367 101.806 8.7333 102.741 8.69113C103.676 8.64896 104.606 8.84639 105.443 9.26469L116.726 14.908C117.805 15.4459 118.677 16.3242 119.206 17.4072C119.736 18.4901 119.894 19.7174 119.656 20.8992C119.044 23.9168 117.737 30.3328 116.909 34.493C116.66 35.7357 115.99 36.8542 115.01 37.6591C114.031 38.4639 112.804 38.9057 111.537 38.9096ZM104.996 21.3607L110.438 28.6153C110.995 25.865 111.581 22.9793 111.998 20.9285L104.996 17.4275V21.3607Z" fill="white"/>
<path d="M39.7192 116.136C38.7443 116.136 37.7828 115.909 36.9111 115.472C36.0395 115.035 35.2819 114.401 34.6985 113.62L27.5025 104.033C26.685 102.945 26.244 101.621 26.2462 100.261V90.1973C26.2463 89.1264 26.5203 88.0734 27.042 87.1383C27.5637 86.2031 28.3159 85.4169 29.2271 84.8544C30.1383 84.2918 31.1781 83.9716 32.2479 83.9241C33.3177 83.8767 34.3819 84.1036 35.3393 84.5833L45 89.4136C46.2051 90.01 47.1856 90.9792 47.7959 92.1774C48.4062 93.3755 48.6136 94.7385 48.3874 96.064L45.9155 110.885C45.6707 112.351 44.9138 113.684 43.7793 114.645C42.6449 115.607 41.2063 116.135 39.7192 116.136ZM33.7462 99.8579L38.9867 106.842L40.8434 95.7197L33.7462 92.1712V99.8579Z" fill="white"/>
<path d="M82.4963 97.6099H77.4938C76.5673 97.6094 75.6738 97.2663 74.985 96.6467L65.8594 88.4325C65.199 87.8424 64.6697 87.1203 64.3058 86.3128C63.9418 85.5054 63.7512 84.6307 63.7463 83.745V74.0442C63.7889 72.2988 64.5217 70.6415 65.7841 69.4354C67.0464 68.2293 68.7354 67.5729 70.481 67.6099H79.5117C81.2572 67.5729 82.9462 68.2293 84.2086 69.4354C85.471 70.6415 86.2038 72.2988 86.2463 74.0442V93.8599C86.2466 94.3524 86.1498 94.8402 85.9615 95.2953C85.7731 95.7504 85.4969 96.1639 85.1486 96.5122C84.8003 96.8605 84.3868 97.1367 83.9317 97.325C83.4766 97.5134 82.9888 97.6102 82.4963 97.6099ZM71.2463 83.1921L78.7463 89.9414V75.1099H71.2463V83.1921Z" fill="white"/>
<path d="M56.2462 26.374H52.4962C51.5018 26.3734 50.5483 25.9782 49.845 25.2753L43.612 19.0462C42.8588 18.2974 42.2619 17.4065 41.8558 16.4252C41.4496 15.4438 41.2424 14.3916 41.2462 13.3296V8.20632C41.2483 6.06404 42.1001 4.01007 43.6146 2.49491C45.129 0.979755 47.1826 0.12712 49.3249 0.124023H51.914C54.0568 0.126396 56.1112 0.978687 57.6264 2.4939C59.1416 4.00912 59.9939 6.0635 59.9962 8.20632V22.624C59.9965 23.1166 59.8997 23.6043 59.7113 24.0594C59.523 24.5145 59.2468 24.928 58.8985 25.2763C58.5502 25.6246 58.1367 25.9008 57.6816 26.0892C57.2265 26.2775 56.7387 26.3743 56.2462 26.374ZM49.3248 7.62402C49.1709 7.62456 49.0235 7.6862 48.915 7.79539C48.8065 7.90458 48.7458 8.05239 48.7462 8.20632V13.3296C48.7455 13.4063 48.7601 13.4824 48.789 13.5534C48.818 13.6244 48.8608 13.689 48.915 13.7433L52.4965 17.3211V8.20632C52.4966 8.12982 52.4816 8.05404 52.4524 7.98333C52.4232 7.91262 52.3803 7.84838 52.3262 7.79428C52.2721 7.74018 52.2079 7.69729 52.1372 7.66808C52.0665 7.63886 51.9907 7.62389 51.9142 7.62402H49.3248Z" fill="white"/>
<path d="M130.54 56.3591C130.283 56.3587 130.026 56.3329 129.774 56.2822L112.112 52.6091H93.7463C93.2538 52.6091 92.7662 52.5121 92.3113 52.3236C91.8563 52.135 91.443 51.8587 91.095 51.5103L79.845 40.2603C79.1418 39.5571 78.7468 38.6034 78.7468 37.609C78.7468 36.6145 79.1418 35.6608 79.845 34.9576C80.5482 34.2544 81.5019 33.8594 82.4964 33.8594C83.4908 33.8594 84.4445 34.2544 85.1477 34.9576L95.299 45.1089H112.496C112.752 45.1087 113.007 45.1344 113.258 45.1857L131.298 48.9357C132.206 49.1241 133.013 49.6428 133.562 50.3915C134.111 51.1403 134.362 52.0659 134.268 52.9893C134.173 53.9128 133.74 54.7684 133.051 55.3908C132.363 56.0132 131.468 56.3584 130.54 56.3591Z" fill="white"/>
<path d="M5.58106 86.4728C4.5865 86.4786 3.63036 86.0891 2.92297 85.39C2.21559 84.6908 1.81491 83.7393 1.80909 82.7448C1.80326 81.7502 2.19276 80.7941 2.8919 80.0867C3.59104 79.3793 4.54255 78.9786 5.53711 78.9728L12.975 78.8849L19.3763 69.2792C19.9311 68.4592 20.7878 67.892 21.7593 67.7012C22.7308 67.5104 23.7383 67.7115 24.5621 68.2607C25.3859 68.8099 25.9591 69.6626 26.1566 70.6328C26.3541 71.6029 26.1599 72.6118 25.6164 73.4394L18.1164 84.6894C17.7781 85.1968 17.3211 85.6142 16.7851 85.9051C16.2491 86.1961 15.6502 86.352 15.0403 86.3593L5.62501 86.4728H5.58106Z" fill="white"/>
<path d="M63.7462 120.109C63.5413 120.108 63.3368 120.091 63.1347 120.058C62.5464 119.96 61.9898 119.724 61.5109 119.369C61.032 119.013 60.6446 118.549 60.3807 118.014L52.8807 102.758C52.4449 101.866 52.3806 100.837 52.7021 99.8978C53.0235 98.9583 53.7044 98.1846 54.5954 97.7464C55.4864 97.3081 56.5148 97.2411 57.4552 97.56C58.3955 97.8789 59.1711 98.5577 59.6117 99.4476L64.801 110.002L68.595 106.204C68.9433 105.855 69.3572 105.577 69.8129 105.388C70.2686 105.199 70.7572 105.101 71.2506 105.101C71.7441 105.101 72.2327 105.198 72.6886 105.387C73.1444 105.576 73.5585 105.853 73.9072 106.202C74.2559 106.551 74.5323 106.966 74.7205 107.422C74.9088 107.878 75.0053 108.367 75.0044 108.86C75.0035 109.353 74.9053 109.842 74.7154 110.297C74.5255 110.753 74.2476 111.166 73.8977 111.514L66.4014 119.01C65.6964 119.713 64.7417 120.108 63.7462 120.109Z" fill="white"/>
<path d="M108.746 111.635C108.254 111.635 107.766 111.539 107.311 111.35C106.856 111.162 106.442 110.886 106.094 110.537C105.746 110.189 105.469 109.776 105.281 109.32C105.093 108.865 104.996 108.378 104.996 107.885V105.82C104.975 97.528 107.552 89.438 112.364 82.6861L114.042 80.302C114.614 79.4891 115.485 78.9367 116.465 78.7664C117.444 78.5961 118.451 78.8218 119.264 79.3938C120.077 79.9659 120.629 80.8375 120.799 81.8168C120.97 82.7962 120.744 83.8031 120.172 84.616L118.484 87.0147C114.6 92.5173 112.509 99.0844 112.496 105.82V107.885C112.497 108.378 112.4 108.865 112.211 109.32C112.023 109.776 111.747 110.189 111.399 110.537C111.05 110.886 110.637 111.162 110.182 111.35C109.727 111.539 109.239 111.635 108.746 111.635Z" fill="white"/>
<path d="M187.496 180.86C186.603 180.86 185.74 180.541 185.061 179.961C184.382 179.381 183.932 178.578 183.793 177.696C183.653 176.814 183.833 175.911 184.3 175.15C184.766 174.389 185.49 173.819 186.339 173.543L199.501 169.266C206.039 167.205 211.733 163.082 215.731 157.514L226.498 142.657C230.375 137.294 232.473 130.85 232.496 124.233V105.52C232.488 100.837 231.436 96.2159 229.416 91.9917C228.986 91.0953 228.93 90.0646 229.259 89.1264C229.589 88.1883 230.278 87.4195 231.174 86.9893C232.071 86.559 233.101 86.5025 234.039 86.8322C234.978 87.1618 235.746 87.8506 236.177 88.7471C238.681 93.9843 239.986 99.7142 239.996 105.52V124.233C239.97 132.431 237.372 140.415 232.569 147.059L221.807 161.909C216.878 168.777 209.856 173.864 201.793 176.407L188.654 180.677C188.28 180.798 187.889 180.86 187.496 180.86Z" fill="white"/>
<path d="M228.014 86.3596C227.416 86.3607 226.826 86.2187 226.294 85.9454C225.762 85.6721 225.303 85.2754 224.956 84.7885L215.717 71.8357C211.723 66.1945 206.029 61.979 199.468 59.8057L182.71 54.2502C176.069 52.0542 168.897 52.0555 162.257 54.254L145.499 59.8093C139.251 61.8662 133.789 65.7983 129.855 71.0703C129.26 71.8652 128.374 72.392 127.392 72.5351C126.41 72.6782 125.411 72.426 124.614 71.8337C123.817 71.2415 123.288 70.3575 123.141 69.3756C122.995 68.3936 123.244 67.3938 123.834 66.5952C128.685 60.0874 135.424 55.2332 143.134 52.694L159.906 47.1312C168.072 44.4237 176.894 44.4224 185.061 47.1275L201.833 52.6902C209.906 55.3609 216.912 60.5455 221.825 67.4851L231.064 80.4307C231.465 80.9912 231.703 81.6513 231.753 82.3384C231.803 83.0255 231.663 83.713 231.347 84.3256C231.032 84.9382 230.554 85.4521 229.966 85.8109C229.378 86.1697 228.703 86.3595 228.014 86.3596Z" fill="white"/>
<path d="M123.149 86.2166H115.298C114.362 86.2157 113.441 85.9757 112.624 85.5194C111.807 85.0631 111.12 84.4056 110.628 83.6092C110.136 82.8129 109.856 81.904 109.813 80.969C109.771 80.0339 109.969 79.1035 110.387 78.2661L116.03 66.9648C116.561 65.8794 117.438 65.0017 118.523 64.4705C119.608 63.9393 120.839 63.7848 122.021 64.0315C124.786 64.5918 131.378 65.9358 135.623 66.7817C136.662 66.9906 137.619 67.4958 138.378 68.2364C139.137 68.9771 139.665 69.9215 139.899 70.9556C140.132 71.9898 140.062 73.0696 139.696 74.0646C139.33 75.0597 138.683 75.9274 137.835 76.5632L126.449 85.1143C125.496 85.8264 124.339 86.2129 123.149 86.2166ZM118.542 78.7166H122.476L129.752 73.2528C126.995 72.6962 124.105 72.1066 122.051 71.6891L118.542 78.7166Z" fill="white"/>
<path d="M174.371 82.6137C173.274 82.6124 172.207 82.2566 171.328 81.5993L163.403 75.7143C162.732 75.2033 162.188 74.5441 161.814 73.7881C161.44 73.0321 161.246 72.1999 161.246 71.3564C161.247 70.5129 161.443 69.6809 161.818 68.9256C162.194 68.1703 162.739 67.512 163.411 67.0021L171.328 61.1208C172.205 60.4618 173.273 60.1058 174.37 60.1064C175.467 60.1071 176.535 60.4644 177.411 61.1245L185.336 67.0059C186.008 67.5163 186.552 68.1752 186.927 68.931C187.302 69.6869 187.497 70.5192 187.496 71.3629C187.496 72.2066 187.3 73.0388 186.925 73.7943C186.55 74.5499 186.004 75.2083 185.332 75.7181L177.411 81.5994C176.534 82.2572 175.467 82.613 174.371 82.6137ZM170.12 71.3599L174.371 74.5167L178.619 71.3599L174.368 68.2032L170.12 71.3599Z" fill="white"/>
<path d="M184.878 120.109H175.173C173.428 120.067 171.771 119.334 170.564 118.072C169.358 116.809 168.702 115.12 168.739 113.375V104.344C168.702 102.598 169.358 100.909 170.564 99.6471C171.771 98.3847 173.428 97.652 175.173 97.6094H194.989C195.482 97.6091 195.969 97.7059 196.424 97.8942C196.879 98.0826 197.293 98.3588 197.641 98.7071C197.99 99.0554 198.266 99.4689 198.454 99.924C198.642 100.379 198.739 100.867 198.739 101.359V105.109C198.739 105.954 198.454 106.773 197.93 107.435L189.716 117.813C189.122 118.521 188.382 119.093 187.547 119.489C186.712 119.885 185.802 120.097 184.878 120.109ZM176.239 112.609H184.277L190.206 105.109H176.239V112.609Z" fill="white"/>
<path d="M228.457 97.6059C227.66 97.606 226.873 97.4323 226.15 97.0968L219.478 93.9474C218.435 93.4603 217.58 92.6482 217.039 91.633L214.354 86.5793C213.931 85.786 213.721 84.8962 213.745 83.9974C213.77 83.0985 214.028 82.2214 214.493 81.4523C214.973 80.655 215.652 79.9965 216.464 79.5418C217.276 79.0871 218.192 78.8519 219.122 78.8596H231.79C233.06 78.8588 234.29 79.3018 235.269 80.1121L238.125 82.529C238.691 83.0027 239.151 83.5911 239.473 84.2556C239.795 84.92 239.972 85.6453 239.993 86.3833C240.014 87.1214 239.877 87.8554 239.593 88.5369C239.309 89.2184 238.884 89.8318 238.345 90.3365L238.341 90.3403L232.185 96.1374C231.176 97.0862 229.842 97.6119 228.457 97.6059ZM223.315 87.4655L228.072 89.7104L231.35 86.6232L231.042 86.3596H222.729L223.315 87.4655Z" fill="white"/>
<path d="M149.985 93.7283C149.493 93.7285 149.005 93.6317 148.55 93.4434C148.095 93.255 147.681 92.9788 147.333 92.6305C146.985 92.2823 146.709 91.8688 146.52 91.4137C146.332 90.9586 146.235 90.4708 146.235 89.9783V71.199C146.235 70.9431 146.261 70.6879 146.312 70.4372L150.062 52.3647C150.162 51.8823 150.356 51.4242 150.633 51.0167C150.91 50.6091 151.265 50.2602 151.676 49.9897C152.088 49.7192 152.549 49.5326 153.033 49.4403C153.517 49.3481 154.015 49.3521 154.497 49.4522C154.98 49.5522 155.438 49.7463 155.845 50.0234C156.253 50.3005 156.601 50.6552 156.872 51.0671C157.142 51.4791 157.329 51.9402 157.421 52.4243C157.513 52.9083 157.509 53.4058 157.408 53.8882L153.735 71.5835V89.9783C153.736 90.4708 153.639 90.9586 153.45 91.4137C153.262 91.8688 152.986 92.2823 152.638 92.6306C152.289 92.9788 151.876 93.255 151.421 93.4434C150.966 93.6318 150.478 93.7285 149.985 93.7283Z" fill="white"/>
<path d="M202.562 131.276C201.717 131.277 200.896 130.992 200.233 130.468C199.57 129.944 199.103 129.212 198.908 128.389C198.714 127.567 198.803 126.702 199.161 125.937C199.519 125.171 200.125 124.549 200.881 124.171L213.82 117.697V112.5C213.82 111.505 214.215 110.552 214.918 109.848C215.621 109.145 216.575 108.75 217.57 108.75C218.564 108.75 219.518 109.145 220.221 109.848C220.924 110.552 221.32 111.505 221.32 112.5V120.015C221.319 120.711 221.125 121.394 220.759 121.986C220.393 122.579 219.87 123.058 219.247 123.369L204.236 130.88C203.716 131.14 203.143 131.275 202.562 131.276Z" fill="white"/>
<path d="M60.0623 187.412C59.1102 187.41 58.1942 187.047 57.4999 186.396C56.8056 185.744 56.3849 184.853 56.3232 183.903C56.283 183.299 56.2537 182.673 56.2317 182.032L56.2207 181.007V161.854C56.2045 153.556 58.7819 145.46 63.5925 138.698L65.2698 136.325C65.554 135.923 65.9146 135.581 66.3311 135.318C66.7475 135.056 67.2116 134.878 67.6969 134.794C68.1821 134.711 68.679 134.724 69.1593 134.833C69.6395 134.942 70.0935 135.144 70.4956 135.428C70.8976 135.712 71.2398 136.073 71.5025 136.489C71.7651 136.906 71.9432 137.37 72.0265 137.855C72.1098 138.34 72.0968 138.837 71.988 139.317C71.8793 139.798 71.6771 140.252 71.3928 140.654L69.7119 143.031C65.8015 148.527 63.7068 155.108 63.7207 161.854L63.7317 181.831C63.7463 182.358 63.7757 182.896 63.8086 183.42C63.8722 184.412 63.5392 185.39 62.8827 186.137C62.2263 186.884 61.3 187.34 60.3076 187.404C60.2271 187.408 60.1428 187.412 60.0623 187.412Z" fill="white"/>
<path d="M123.717 239.882C119.453 239.879 115.216 239.196 111.167 237.861L94.4165 232.426C86.3773 229.845 79.3714 224.766 74.4177 217.928L63.6621 203.085C62.1444 200.99 60.8369 198.75 59.7584 196.398C59.3499 195.494 59.3168 194.464 59.6663 193.535C60.0159 192.606 60.7196 191.853 61.6231 191.442C62.5266 191.031 63.5563 190.995 64.4863 191.342C65.4164 191.689 66.1709 192.39 66.5845 193.293C67.4571 195.191 68.5144 196.999 69.7413 198.691L80.4969 213.533C84.5109 219.078 90.191 223.195 96.709 225.285L113.492 230.731C120.128 232.925 127.294 232.927 133.931 230.734C134.026 230.701 134.125 230.676 134.22 230.65L150.74 225.292C157.277 223.231 162.971 219.108 166.97 213.541L177.737 198.683C181.613 193.32 183.711 186.877 183.735 180.259V161.546C183.727 156.864 182.675 152.242 180.656 148.018C180.225 147.122 180.169 146.091 180.498 145.153C180.828 144.215 181.517 143.446 182.413 143.016C183.31 142.585 184.341 142.529 185.279 142.859C186.217 143.188 186.986 143.877 187.416 144.773C189.921 150.011 191.226 155.741 191.235 161.546V180.259C191.208 188.457 188.61 196.441 183.809 203.085L173.046 217.935C168.114 224.802 161.093 229.888 153.032 232.434L136.293 237.864C136.201 237.894 136.106 237.919 136.011 237.945C132.038 239.222 127.89 239.876 123.717 239.882Z" fill="white"/>
<path d="M179.253 142.382C178.655 142.383 178.065 142.241 177.533 141.968C177.001 141.695 176.542 141.298 176.195 140.811L166.956 127.862C162.961 122.221 157.268 118.004 150.707 115.828L133.949 110.273C127.308 108.078 120.137 108.08 113.496 110.276L96.7383 115.832C90.49 117.888 85.0273 121.821 81.0938 127.093C80.8006 127.49 80.4319 127.825 80.0089 128.079C79.5859 128.334 79.1169 128.502 78.6287 128.575C78.1406 128.647 77.6429 128.623 77.1641 128.503C76.6854 128.383 76.2351 128.169 75.839 127.875C75.4429 127.581 75.1088 127.211 74.8559 126.787C74.6029 126.363 74.4361 125.894 74.365 125.405C74.2938 124.917 74.3198 124.419 74.4413 123.941C74.5629 123.463 74.7776 123.013 75.0732 122.618C79.9246 116.111 86.6635 111.256 94.3726 108.717L111.145 103.154C119.311 100.45 128.13 100.449 136.296 103.15L153.072 108.713C161.144 111.387 168.149 116.572 173.064 123.511L182.303 136.453C182.704 137.014 182.942 137.674 182.992 138.361C183.042 139.048 182.901 139.736 182.586 140.348C182.271 140.961 181.793 141.474 181.205 141.833C180.617 142.192 179.942 142.382 179.253 142.382Z" fill="white"/>
<path d="M104.974 208.85C103.251 208.85 101.567 208.336 100.137 207.374L97.8407 205.843C96.6469 205.047 95.668 203.968 94.9908 202.702C94.3137 201.436 93.9592 200.023 93.9589 198.588C93.9585 197.153 94.3122 195.739 94.9887 194.473C95.6652 193.207 96.6435 192.128 97.837 191.33L100.14 189.792C101.57 188.832 103.254 188.319 104.977 188.319C106.7 188.32 108.383 188.834 109.812 189.796L112.108 191.327C113.302 192.124 114.282 193.204 114.959 194.47C115.636 195.736 115.99 197.149 115.99 198.585C115.99 200.021 115.636 201.435 114.959 202.701C114.282 203.967 113.302 205.046 112.108 205.844L109.808 207.378C108.379 208.337 106.696 208.849 104.974 208.85ZM104.974 195.828C104.736 195.826 104.503 195.897 104.304 196.029L102.001 197.567C101.834 197.679 101.697 197.831 101.603 198.008C101.508 198.186 101.459 198.384 101.459 198.585C101.459 198.786 101.508 198.984 101.603 199.162C101.697 199.339 101.834 199.491 102.001 199.603L104.301 201.138L104.304 201.141C104.503 201.274 104.736 201.345 104.975 201.345C105.213 201.345 105.446 201.274 105.645 201.141L107.948 199.603C108.115 199.491 108.252 199.339 108.347 199.161C108.441 198.983 108.49 198.784 108.49 198.582C108.49 198.381 108.44 198.182 108.345 198.005C108.249 197.827 108.112 197.676 107.944 197.564L105.648 196.033C105.449 195.898 105.215 195.827 104.974 195.828Z" fill="white"/>
<path d="M74.3884 142.239H66.5369C65.6007 142.238 64.6802 141.999 63.8627 141.543C63.0452 141.086 62.3578 140.429 61.8658 139.632C61.3739 138.836 61.0936 137.927 61.0516 136.992C61.0096 136.056 61.2073 135.126 61.626 134.289L67.2693 122.987C67.8 121.902 68.6772 121.025 69.7622 120.494C70.8473 119.964 72.0783 119.81 73.2605 120.058C76.029 120.618 82.6172 121.962 86.8617 122.808C87.9013 123.016 88.8584 123.52 89.6175 124.26C90.3766 125 90.9052 125.945 91.1394 126.978C91.3737 128.012 91.3037 129.092 90.9377 130.087C90.5718 131.082 89.9257 131.95 89.0773 132.586L77.688 141.14C76.7357 141.853 75.5781 142.239 74.3884 142.239ZM69.7852 134.739H73.7219L80.9912 129.279C78.2336 128.722 75.3406 128.133 73.2898 127.715L69.7852 134.739Z" fill="white"/>
<path d="M125.607 138.633C124.511 138.631 123.445 138.277 122.567 137.622L114.642 131.737C113.972 131.226 113.429 130.568 113.055 129.813C112.68 129.059 112.486 128.228 112.485 127.385C112.485 126.543 112.679 125.712 113.053 124.957C113.426 124.202 113.969 123.543 114.639 123.032L122.567 117.143C123.442 116.492 124.504 116.139 125.594 116.136C126.685 116.132 127.749 116.479 128.628 117.125L136.575 123.028C137.247 123.539 137.792 124.198 138.167 124.955C138.542 125.712 138.736 126.545 138.735 127.389C138.734 128.233 138.538 129.066 138.161 129.822C137.784 130.577 137.237 131.235 136.564 131.744L128.653 137.622C127.772 138.276 126.704 138.63 125.607 138.633ZM121.359 127.383L125.61 130.539L129.858 127.383L125.61 124.226L121.359 127.383Z" fill="white"/>
<path d="M152.633 213.603H142.57C141.499 213.602 140.447 213.327 139.513 212.806C138.578 212.284 137.792 211.533 137.229 210.623C136.665 209.713 136.344 208.674 136.294 207.605C136.244 206.536 136.468 205.472 136.945 204.514L141.782 194.827C142.379 193.622 143.349 192.641 144.547 192.03C145.746 191.419 147.11 191.211 148.436 191.436L163.26 193.912C164.473 194.115 165.6 194.669 166.501 195.506C167.402 196.343 168.037 197.426 168.329 198.62C168.621 199.815 168.557 201.069 168.143 202.227C167.73 203.385 166.986 204.397 166.003 205.136L156.405 212.343C155.316 213.157 153.993 213.599 152.633 213.603ZM144.536 206.103H152.223L159.229 200.844L148.092 198.984L144.536 206.103Z" fill="white"/>
<path d="M136.117 176.132H126.412C124.667 176.089 123.01 175.356 121.804 174.094C120.598 172.832 119.941 171.143 119.978 169.397V160.37C119.94 158.624 120.597 156.934 121.803 155.671C123.009 154.408 124.667 153.675 126.412 153.632H146.228C146.721 153.632 147.208 153.728 147.664 153.917C148.119 154.105 148.532 154.381 148.88 154.73C149.229 155.078 149.505 155.491 149.693 155.946C149.882 156.402 149.978 156.889 149.978 157.382V161.132C149.977 161.976 149.692 162.795 149.169 163.457L140.955 173.839C140.359 174.545 139.619 175.115 138.785 175.511C137.95 175.906 137.04 176.118 136.117 176.132ZM127.478 168.632H135.52L141.445 161.132H127.478V168.632Z" fill="white"/>
<path d="M179.696 153.629C178.893 153.631 178.1 153.453 177.374 153.109L170.72 149.974C169.664 149.483 168.8 148.656 168.263 147.623L165.597 142.609C165.171 141.815 164.96 140.923 164.984 140.022C165.008 139.12 165.268 138.241 165.736 137.471C166.216 136.675 166.894 136.017 167.705 135.563C168.517 135.109 169.432 134.874 170.362 134.882H183.029C184.308 134.881 185.546 135.331 186.526 136.153L189.364 138.551C189.931 139.026 190.39 139.614 190.712 140.279C191.034 140.944 191.211 141.669 191.232 142.408C191.253 143.146 191.116 143.88 190.832 144.562C190.548 145.244 190.123 145.858 189.584 146.363L189.58 146.366L183.424 152.164C182.413 153.109 181.08 153.633 179.696 153.629ZM174.562 143.495L179.315 145.733L182.593 142.65L182.278 142.382H173.969L174.562 143.495Z" fill="white"/>
<path d="M65.6909 198.581H60.5676C58.4277 198.581 56.3748 197.733 54.8595 196.222C53.3443 194.711 52.4904 192.66 52.4854 190.52V187.942C52.4904 185.802 53.3443 183.752 54.8596 182.24C56.3748 180.729 58.4277 179.881 60.5676 179.882H74.9854C75.4779 179.882 75.9657 179.978 76.4208 180.167C76.8759 180.355 77.2894 180.631 77.6376 180.98C77.9859 181.328 78.2621 181.741 78.4505 182.196C78.6388 182.652 78.7356 183.139 78.7354 183.632V187.364C78.7353 187.857 78.6379 188.346 78.4488 188.803C78.2596 189.259 77.9825 189.673 77.6331 190.022L71.4038 196.226C70.6537 196.975 69.7629 197.569 68.7824 197.974C67.802 198.378 66.7514 198.584 65.6909 198.581ZM60.5676 187.382C60.4162 187.379 60.2699 187.437 60.1607 187.542C60.0516 187.647 59.9885 187.791 59.9854 187.942V190.52C59.9885 190.672 60.0516 190.816 60.1607 190.921C60.2699 191.026 60.4162 191.083 60.5676 191.081H65.6909C65.8485 191.081 65.9998 191.019 66.1121 190.908L69.6533 187.382H60.5676Z" fill="white"/>
<path d="M89.9744 161.019C89.2328 161.018 88.5079 160.798 87.8914 160.386C87.2749 159.974 86.7943 159.389 86.5106 158.703C86.2268 158.018 86.1525 157.264 86.2972 156.537C86.4418 155.81 86.7988 155.142 87.3231 154.617L97.4744 144.448V127.221C97.4751 126.341 97.7849 125.49 98.3496 124.815L116.862 102.703C117.178 102.326 117.565 102.014 118.001 101.786C118.438 101.558 118.915 101.419 119.405 101.375C119.895 101.332 120.389 101.385 120.859 101.532C121.329 101.68 121.765 101.918 122.142 102.234C122.52 102.55 122.831 102.938 123.059 103.374C123.287 103.81 123.427 104.287 123.47 104.778C123.514 105.268 123.46 105.762 123.313 106.232C123.166 106.702 122.927 107.138 122.611 107.515L104.974 128.583V146C104.973 146.993 104.58 147.945 103.879 148.648L92.6256 159.92C92.2779 160.269 91.8646 160.545 91.4096 160.734C90.9546 160.922 90.4669 161.019 89.9744 161.019Z" fill="white"/>
<path d="M135.092 238.055C134.105 238.055 133.157 237.666 132.455 236.972C131.753 236.279 131.353 235.336 131.342 234.349L131.254 226.901L121.644 220.485C121.233 220.212 120.88 219.86 120.604 219.45C120.329 219.041 120.138 218.581 120.04 218.097C119.943 217.613 119.943 217.114 120.039 216.63C120.134 216.146 120.325 215.685 120.599 215.275C120.873 214.864 121.226 214.512 121.636 214.238C122.047 213.964 122.507 213.773 122.992 213.678C123.476 213.582 123.974 213.583 124.458 213.68C124.942 213.777 125.402 213.969 125.812 214.244L137.062 221.759C137.569 222.098 137.985 222.555 138.275 223.091C138.566 223.627 138.721 224.226 138.728 224.835L138.842 234.261C138.853 235.256 138.469 236.214 137.774 236.926C137.079 237.637 136.13 238.044 135.136 238.055H135.092Z" fill="white"/>
<path d="M153.805 187.302C152.96 187.303 152.139 187.019 151.476 186.495C150.812 185.971 150.346 185.238 150.151 184.415C149.956 183.593 150.045 182.729 150.403 181.963C150.762 181.197 151.368 180.575 152.124 180.197L165.059 173.723V168.526C165.059 167.532 165.454 166.578 166.157 165.875C166.86 165.171 167.814 164.776 168.809 164.776C169.803 164.776 170.757 165.171 171.46 165.875C172.163 166.578 172.559 167.532 172.559 168.526V176.037C172.558 176.734 172.365 177.416 171.998 178.009C171.632 178.601 171.109 179.08 170.486 179.392L155.478 186.907C154.959 187.166 154.386 187.301 153.805 187.302Z" fill="white"/>
</svg>
