<svg width="24" height="24" viewBox="0 0 24 24" fill="none" xmlns="http://www.w3.org/2000/svg">
<path d="M19.5094 5.70502C19.3536 5.62829 19.202 5.54416 19.0551 5.45294C18.6279 5.18362 18.2362 4.86633 17.8884 4.50791C17.0183 3.55875 16.6933 2.59584 16.5736 1.92166H16.5784C16.4784 1.36207 16.5198 1 16.526 1H12.563V15.61C12.563 15.8062 12.563 16 12.5543 16.1916C12.5543 16.2154 12.5519 16.2374 12.5505 16.2631C12.5505 16.2737 12.5505 16.2847 12.5481 16.2957V16.3039C12.5063 16.8281 12.33 17.3345 12.0348 17.7785C11.7396 18.2225 11.3344 18.5906 10.8549 18.8503C10.3553 19.1213 9.7901 19.2635 9.21521 19.2628C7.36875 19.2628 5.87227 17.8273 5.87227 16.0546C5.87227 14.2818 7.36875 12.8464 9.21521 12.8464C9.56473 12.8461 9.9121 12.8985 10.2444 13.0018L10.2492 9.15472C9.24038 9.03048 8.21546 9.10692 7.23914 9.37922C6.26282 9.65152 5.35628 10.1138 4.57672 10.7368C3.89366 11.3026 3.31939 11.9778 2.87977 12.7318C2.71248 13.0068 2.0813 14.1118 2.00486 15.9052C1.95679 16.9231 2.27743 17.9777 2.4303 18.4135V18.4227C2.52644 18.6793 2.899 19.5552 3.50615 20.2935C3.99572 20.8858 4.57415 21.406 5.22281 21.8375V21.8284L5.23243 21.8375C7.15099 23.0805 9.27818 22.9989 9.27818 22.9989C9.64641 22.9847 10.8799 22.9989 12.2808 22.366C13.8345 21.6643 14.719 20.6189 14.719 20.6189C15.284 19.9942 15.7334 19.2824 16.0477 18.5139C16.4063 17.6151 16.526 16.5372 16.526 16.1064V8.35542C16.5741 8.38292 17.2144 8.78669 17.2144 8.78669C17.2144 8.78669 18.1369 9.35042 19.5762 9.71752C20.6088 9.97876 22 10.0338 22 10.0338V6.28295C21.5125 6.33336 20.5227 6.1867 19.5094 5.70502Z" fill="white"/>
</svg>
