<svg width="24" height="24" viewBox="0 0 24 24" fill="none" xmlns="http://www.w3.org/2000/svg">
<path fill-rule="evenodd" clip-rule="evenodd" d="M21.4906 19.6613C22.2216 15.7407 23.6614 7.23506 23.9936 3.73534C24.0053 3.57206 23.9985 3.38422 23.9927 3.22355C23.9875 3.07907 23.9831 2.95657 23.9936 2.89364C23.9715 2.71644 23.905 2.47279 23.6835 2.29559C23.4177 2.07409 22.9969 2.02979 22.8197 2.02979C21.978 2.02979 20.7154 2.47279 14.5577 5.0422C12.4091 5.9282 8.112 7.78881 1.64417 10.6019C0.603116 11.0227 0.0493637 11.4214 0.00506253 11.8201C-0.0743741 12.5152 0.789864 12.7829 1.97519 13.1502C2.11193 13.1925 2.25294 13.2362 2.39727 13.282C3.52693 13.6586 5.03313 14.0794 5.83053 14.1016C6.53934 14.1237 7.33674 13.8136 8.22275 13.2156C14.2697 9.13996 17.3707 7.08001 17.5701 7.03571C17.5874 7.03323 17.6051 7.03047 17.6229 7.02768C17.7643 7.00558 17.9172 6.98167 18.0352 7.08001C18.0847 7.13243 18.1207 7.19615 18.14 7.26563C18.1593 7.33512 18.1614 7.40826 18.146 7.47871C18.058 7.84812 14.4634 11.1794 12.8211 12.7014C12.3954 13.0958 12.1009 13.3687 12.0326 13.4371C11.8623 13.6103 11.6893 13.7747 11.5226 13.933C10.4533 14.9485 9.64809 15.7133 11.5453 16.9589C12.4813 17.5756 13.2257 18.0828 13.9772 18.5948C14.7373 19.1127 15.5046 19.6355 16.4847 20.2815C16.7336 20.4459 16.9718 20.6157 17.2039 20.7812C18.1287 21.4404 18.9575 22.0312 19.9844 21.9427C20.5603 21.8763 21.1805 21.3225 21.4906 19.6613Z" fill="white"/>
</svg>
