<svg width="24" height="24" viewBox="0 0 24 24" fill="none" xmlns="http://www.w3.org/2000/svg">
<path d="M13.1311 1C14.3686 1.0033 14.9967 1.0099 15.539 1.0253L15.7524 1.033C15.9988 1.0418 16.2419 1.0528 16.5355 1.066C17.7059 1.121 18.5045 1.30579 19.2052 1.57749C19.9312 1.85688 20.5428 2.23527 21.1543 2.84576C21.7139 3.39545 22.1467 4.06065 22.4226 4.79491C22.6943 5.49559 22.8791 6.29417 22.9341 7.46564C22.9473 7.75824 22.9583 8.00133 22.9671 8.24882L22.9737 8.46222C22.9902 9.00341 22.9968 9.63149 22.999 10.869L23.0001 11.6895V13.1305C23.0028 13.9328 22.9943 14.7352 22.9748 15.5372L22.9682 15.7506C22.9594 15.9981 22.9484 16.2412 22.9352 16.5338C22.8802 17.7053 22.6932 18.5028 22.4226 19.2046C22.1467 19.9388 21.7139 20.604 21.1543 21.1537C20.6046 21.7133 19.9394 22.1461 19.2052 22.422C18.5045 22.6937 17.7059 22.8785 16.5355 22.9335L15.7524 22.9665L15.539 22.9731C14.9967 22.9885 14.3686 22.9962 13.1311 22.9984L12.3106 22.9995H10.8707C10.068 23.0023 9.2653 22.9939 8.46285 22.9742L8.24945 22.9676C7.98833 22.9577 7.72726 22.9463 7.46627 22.9335C6.2959 22.8785 5.49732 22.6937 4.79553 22.422C4.06166 22.1459 3.39685 21.7131 2.84748 21.1537C2.28753 20.6041 1.85432 19.9389 1.57811 19.2046C1.30642 18.5039 1.12162 17.7053 1.06662 16.5338L1.03362 15.7506L1.02813 15.5372C1.00785 14.7352 0.998681 13.9328 1.00063 13.1305V10.869C0.997581 10.0666 1.00565 9.26432 1.02483 8.46222L1.03252 8.24882C1.04132 8.00133 1.05232 7.75824 1.06552 7.46564C1.12052 6.29417 1.30532 5.49669 1.57701 4.79491C1.85387 4.06034 2.28784 3.39512 2.84858 2.84576C3.39764 2.28647 4.06206 1.85366 4.79553 1.57749C5.49732 1.30579 6.2948 1.121 7.46627 1.066C7.75886 1.0528 8.00306 1.0418 8.24945 1.033L8.46285 1.0264C9.26494 1.00686 10.0673 0.998422 10.8696 1.0011L13.1311 1ZM12.0004 6.49987C10.5417 6.49987 9.14279 7.07932 8.11137 8.11074C7.07994 9.14217 6.50049 10.5411 6.50049 11.9997C6.50049 13.4584 7.07994 14.8573 8.11137 15.8887C9.14279 16.9202 10.5417 17.4996 12.0004 17.4996C13.459 17.4996 14.8579 16.9202 15.8894 15.8887C16.9208 14.8573 17.5002 13.4584 17.5002 11.9997C17.5002 10.5411 16.9208 9.14217 15.8894 8.11074C14.8579 7.07932 13.459 6.49987 12.0004 6.49987ZM12.0004 8.69981C12.4337 8.69974 12.8628 8.78502 13.2632 8.95079C13.6636 9.11656 14.0274 9.35957 14.3339 9.66595C14.6404 9.97232 14.8835 10.3361 15.0494 10.7364C15.2153 11.1367 15.3008 11.5658 15.3008 11.9992C15.3009 12.4325 15.2156 12.8617 15.0498 13.2621C14.8841 13.6624 14.6411 14.0263 14.3347 14.3327C14.0283 14.6392 13.6646 14.8823 13.2642 15.0483C12.8639 15.2142 12.4348 15.2996 12.0015 15.2997C11.1263 15.2997 10.2869 14.952 9.66806 14.3331C9.04921 13.7143 8.70154 12.8749 8.70154 11.9997C8.70154 11.1245 9.04921 10.2852 9.66806 9.66634C10.2869 9.04748 11.1263 8.69981 12.0015 8.69981M17.7763 4.84991C17.4117 4.84991 17.0619 4.99477 16.8041 5.25262C16.5462 5.51048 16.4014 5.86021 16.4014 6.22487C16.4014 6.58954 16.5462 6.93927 16.8041 7.19712C17.0619 7.45498 17.4117 7.59984 17.7763 7.59984C18.141 7.59984 18.4907 7.45498 18.7486 7.19712C19.0064 6.93927 19.1513 6.58954 19.1513 6.22487C19.1513 5.86021 19.0064 5.51048 18.7486 5.25262C18.4907 4.99477 18.141 4.84991 17.7763 4.84991Z" fill="white"/>
</svg>
