<svg width="32" height="32" viewBox="0 0 32 32" fill="none" xmlns="http://www.w3.org/2000/svg">
<g clip-path="url(#clip0_90_1402)">
<path d="M24.5 0.000488281H7.5C3.35786 0.000488281 0 3.35835 0 7.50049V24.5005C0 28.6426 3.35786 32.0005 7.5 32.0005H24.5C28.6421 32.0005 32 28.6426 32 24.5005V7.50049C32 3.35835 28.6421 0.000488281 24.5 0.000488281Z" fill="url(#paint0_radial_90_1402)"/>
<path d="M24.5 0.000488281H7.5C3.35786 0.000488281 0 3.35835 0 7.50049V24.5005C0 28.6426 3.35786 32.0005 7.5 32.0005H24.5C28.6421 32.0005 32 28.6426 32 24.5005V7.50049C32 3.35835 28.6421 0.000488281 24.5 0.000488281Z" fill="url(#paint1_radial_90_1402)"/>
<path d="M16.0011 3.50049C12.6064 3.50049 12.1803 3.51536 10.847 3.57599C9.51625 3.63699 8.60787 3.84761 7.81313 4.15674C6.99088 4.47599 6.2935 4.90311 5.59875 5.59811C4.90338 6.29299 4.47625 6.99036 4.156 7.81224C3.846 8.60724 3.63512 9.51599 3.57525 10.8461C3.51562 12.1795 3.5 12.6057 3.5 16.0006C3.5 19.3955 3.515 19.8202 3.5755 21.1535C3.63675 22.4842 3.84738 23.3926 4.15625 24.1874C4.47575 25.0096 4.90288 25.707 5.59788 26.4017C6.2925 27.0971 6.98988 27.5252 7.8115 27.8445C8.60687 28.1536 9.51537 28.3642 10.8459 28.4252C12.1792 28.4859 12.605 28.5007 15.9996 28.5007C19.3948 28.5007 19.8195 28.4859 21.1528 28.4252C22.4835 28.3642 23.3929 28.1536 24.1882 27.8445C25.0101 27.5252 25.7065 27.0971 26.401 26.4017C27.0964 25.707 27.5234 25.0096 27.8438 24.1877C28.151 23.3926 28.362 22.484 28.4245 21.1537C28.4844 19.8205 28.5 19.3955 28.5 16.0006C28.5 12.6057 28.4844 12.1797 28.4245 10.8464C28.362 9.51561 28.151 8.60736 27.8438 7.81261C27.5234 6.99036 27.0964 6.29299 26.401 5.59811C25.7057 4.90286 25.0104 4.47574 24.1875 4.15686C23.3906 3.84761 22.4817 3.63686 21.151 3.57599C19.8176 3.51536 19.3931 3.50049 15.9972 3.50049H16.0011ZM14.8798 5.75311C15.2126 5.75261 15.584 5.75311 16.0011 5.75311C19.3388 5.75311 19.7342 5.76511 21.0522 5.82499C22.271 5.88074 22.9325 6.08436 23.3731 6.25549C23.9565 6.48199 24.3724 6.75286 24.8096 7.19049C25.2471 7.62799 25.5179 8.04461 25.745 8.62799C25.9161 9.06799 26.12 9.72949 26.1755 10.9482C26.2354 12.266 26.2484 12.6617 26.2484 15.9977C26.2484 19.3337 26.2354 19.7296 26.1755 21.0472C26.1198 22.266 25.9161 22.9275 25.745 23.3676C25.5185 23.951 25.2471 24.3664 24.8096 24.8036C24.3721 25.2411 23.9568 25.5119 23.3731 25.7385C22.933 25.9104 22.271 26.1135 21.0522 26.1692C19.7345 26.2291 19.3388 26.2421 16.0011 26.2421C12.6634 26.2421 12.2677 26.2291 10.9501 26.1692C9.73137 26.113 9.06987 25.9094 8.62887 25.7382C8.04562 25.5116 7.62887 25.2409 7.19137 24.8034C6.75387 24.3659 6.48312 23.9502 6.256 23.3666C6.08488 22.9265 5.881 22.265 5.8255 21.0462C5.76562 19.7285 5.75362 19.3327 5.75362 15.9946C5.75362 12.6565 5.76562 12.2629 5.8255 10.9451C5.88125 9.72636 6.08488 9.06486 6.256 8.62424C6.48263 8.04086 6.75388 7.62424 7.1915 7.18674C7.62913 6.74924 8.04562 6.47836 8.629 6.25136C9.06962 6.07949 9.73137 5.87636 10.9501 5.82036C12.1032 5.76824 12.5501 5.75261 14.8798 5.74999V5.75311ZM22.6736 7.82861C21.8455 7.82861 21.1736 8.49986 21.1736 9.32811C21.1736 10.1562 21.8455 10.8281 22.6736 10.8281C23.5018 10.8281 24.1736 10.1562 24.1736 9.32811C24.1736 8.49999 23.5018 7.82811 22.6736 7.82811V7.82861ZM16.0011 9.58124C12.4561 9.58124 9.58187 12.4555 9.58187 16.0006C9.58187 19.5457 12.4561 22.4186 16.0011 22.4186C19.5462 22.4186 22.4195 19.5457 22.4195 16.0006C22.4195 12.4556 19.546 9.58124 16.0009 9.58124H16.0011ZM16.0011 11.8339C18.3022 11.8339 20.1679 13.6992 20.1679 16.0006C20.1679 18.3017 18.3022 20.1674 16.0011 20.1674C13.7 20.1674 11.8345 18.3017 11.8345 16.0006C11.8345 13.6992 13.6999 11.8339 16.0011 11.8339Z" fill="white"/>
</g>
<defs>
<radialGradient id="paint0_radial_90_1402" cx="0" cy="0" r="1" gradientUnits="userSpaceOnUse" gradientTransform="translate(8.5 34.4651) rotate(-90) scale(31.7144 29.4969)">
<stop stop-color="#FFDD55"/>
<stop offset="0.1" stop-color="#FFDD55"/>
<stop offset="0.5" stop-color="#FF543E"/>
<stop offset="1" stop-color="#C837AB"/>
</radialGradient>
<radialGradient id="paint1_radial_90_1402" cx="0" cy="0" r="1" gradientUnits="userSpaceOnUse" gradientTransform="translate(-5.36012 2.30561) rotate(78.681) scale(14.1765 58.436)">
<stop stop-color="#3771C8"/>
<stop offset="0.128" stop-color="#3771C8"/>
<stop offset="1" stop-color="#6600FF" stop-opacity="0"/>
</radialGradient>
<clipPath id="clip0_90_1402">
<rect width="32" height="32" fill="white" transform="translate(0 0.000488281)"/>
</clipPath>
</defs>
</svg>
