<svg width="32" height="32" viewBox="0 0 32 32" fill="none" xmlns="http://www.w3.org/2000/svg">
<g clip-path="url(#clip0_90_1408)">
<path d="M16 0.000488281C7.16344 0.000488281 0 7.16393 0 16.0005C0 24.837 7.16344 32.0005 16 32.0005C24.8366 32.0005 32 24.837 32 16.0005C32 7.16393 24.8366 0.000488281 16 0.000488281ZM10.25 6.35596C10.5797 6.33651 10.8776 6.53356 11.1035 6.88329L13.291 11.0317C13.5213 11.5233 13.3905 12.0496 13.0469 12.4009L12.0449 13.4028C11.9831 13.4876 11.9424 13.583 11.9414 13.688C12.3257 15.1753 13.4912 16.5472 14.5196 17.4907C15.5479 18.4342 16.6531 19.7115 18.0879 20.0141C18.2652 20.0636 18.4825 20.0813 18.6094 19.9634L19.7734 18.7778C20.1753 18.4733 20.7565 18.3257 21.1855 18.5747H21.2051L25.1523 20.9048C25.7317 21.268 25.7917 21.97 25.3769 22.397L22.6582 25.0942C22.2567 25.506 21.7233 25.6444 21.2051 25.645C18.9132 25.5764 16.7476 24.4514 14.9688 23.2954C12.0491 21.1713 9.37085 18.5369 7.68947 15.354C7.04461 14.0193 6.28709 12.3164 6.35939 10.8267C6.36584 10.2663 6.51747 9.71724 6.91213 9.35601L9.63088 6.63726C9.84267 6.45705 10.0522 6.36764 10.25 6.35596Z" fill="#23F251"/>
</g>
<defs>
<clipPath id="clip0_90_1408">
<rect width="32" height="32" fill="white" transform="translate(0 0.000488281)"/>
</clipPath>
</defs>
</svg>
