<svg width="48" height="48" viewBox="0 0 48 48" fill="none" xmlns="http://www.w3.org/2000/svg">
<g clip-path="url(#clip0_2483_8215)">
<path d="M25.3485 14.8197C24.8107 15.1341 25.0175 15.9617 25.6465 15.9865L35.2954 16.3837C35.5437 16.392 35.7754 16.2513 35.8829 16.0279L40.1282 7.30575C40.4012 6.74303 39.7723 6.16376 39.2344 6.4865L36.8925 7.89329L33.7976 3.01089C33.0445 1.76132 31.7039 1 30.2475 1H17.7436C16.3037 1 14.9714 1.75305 14.2266 2.98606L9.28626 11.2199C8.92215 11.8158 9.12076 12.5936 9.71658 12.9495L16.7754 17.1864C17.3712 17.5422 18.1491 17.3436 18.5049 16.7478L24.008 7.58711L27.6822 13.4212L25.3485 14.8197Z" fill="#32D16D"/>
<path d="M20.2581 33.2812H9.45061L12.7276 27.2237L15.1274 28.5064C15.6736 28.8043 16.2777 28.2002 15.9798 27.6457L11.3456 19.1719C11.2298 18.9567 10.9898 18.8326 10.7415 18.8491L1.07604 19.7015C0.4554 19.7594 0.28162 20.5952 0.836062 20.8931L3.24416 22.1758L0.488502 27.2485C-0.198345 28.5395 -0.156969 30.0787 0.587805 31.3282L6.88528 41.8047C6.92665 41.8875 6.97631 41.9702 7.02596 42.0447V42.053C7.77073 43.2777 9.09477 44.0307 10.5347 44.0307H20.2664C20.9615 44.0307 21.5325 43.468 21.5242 42.7646V34.539C21.5242 33.8439 20.9615 33.2812 20.2581 33.2812Z" fill="#32D16D"/>
<path d="M47.5181 27.216L42.9419 18.6346C42.6109 18.0222 41.8495 17.7822 41.2289 18.1215L33.9715 21.9943C33.3591 22.317 33.1274 23.0784 33.4584 23.699L38.5311 33.2321L31.4558 33.2404V30.5178C31.4641 29.8889 30.6448 29.6407 30.3055 30.1703L24.9928 38.2386C24.8604 38.4455 24.8604 38.7186 25.0011 38.9255L30.2973 47.0518C30.6366 47.5814 31.4558 47.3414 31.4558 46.7125V43.9817H37.4305C38.887 43.9734 40.2276 43.2204 40.9806 41.9708L47.3195 31.395C47.3691 31.3454 47.394 31.2957 47.4271 31.2461C48.1553 30.013 48.1966 28.4904 47.5181 27.216Z" fill="#32D16D"/>
<path d="M24.004 7.58711L18.501 16.7478C18.1452 17.3436 17.3673 17.5422 16.7715 17.1864L9.71267 12.9495C9.11685 12.5936 8.91825 11.8158 9.28236 11.2199L14.2227 2.98606C14.9675 1.75305 16.2998 1 17.7397 1C18.4596 1 19.1465 1.19033 19.7506 1.52962C20.3547 1.87718 20.876 2.37369 21.2401 2.98606L24.004 7.58711Z" fill="#32D16D"/>
<path d="M21.5228 34.5406V42.7662C21.5311 43.4696 20.9601 44.0323 20.265 44.0323H10.5333C9.09339 44.0323 7.76935 43.2792 7.02458 42.0545V42.0462C6.97493 41.9717 6.92528 41.889 6.8839 41.8062C6.59427 41.227 6.44531 40.5898 6.44531 39.9443C6.44531 39.2906 6.60254 38.6285 6.92528 38.0244L9.44923 33.2827H20.2567C20.9601 33.2827 21.5228 33.8454 21.5228 34.5406Z" fill="#32D16D"/>
<path d="M47.4224 31.2461C47.3893 31.2957 47.3645 31.3454 47.3148 31.395C46.9424 31.9743 46.4294 32.4294 45.8253 32.7521C45.2543 33.0583 44.584 33.2321 43.8971 33.2238L38.5348 33.2321H38.5265L33.4538 23.699C33.1228 23.0784 33.3545 22.317 33.9668 21.9943L41.2242 18.1215C41.8449 17.7822 42.6062 18.0222 42.9372 18.6346L47.5134 27.216C48.192 28.4904 48.1506 30.013 47.4224 31.2461Z" fill="#32D16D"/>
</g>
<defs>
<clipPath id="clip0_2483_8215">
<rect width="48" height="48" fill="white"/>
</clipPath>
</defs>
</svg>
