<svg width="240" height="240" viewBox="0 0 240 240" fill="none" xmlns="http://www.w3.org/2000/svg">
<g clip-path="url(#clip0_3323_6390)">
<path d="M221.232 0H18.768C8.42 0 0 8.42 0 18.768V221.232C0 231.58 8.42 240 18.768 240H221.232C231.58 240 240 231.58 240 221.232V18.768C240 8.42 231.58 0 221.232 0ZM8 18.768C8 12.832 12.832 8 18.768 8H221.232C227.168 8 232 12.832 232 18.768V43.904H8V18.768ZM221.232 232H18.768C12.832 232 8 227.168 8 221.232V51.904H232V221.232C232 227.168 227.168 232 221.232 232Z" fill="white"/>
<path d="M33.0683 21.9531H25.1523C22.9443 21.9531 21.1523 23.7451 21.1523 25.9531C21.1523 28.1611 22.9443 29.9531 25.1523 29.9531H33.0683C35.2763 29.9531 37.0683 28.1611 37.0683 25.9531C37.0683 23.7451 35.2763 21.9531 33.0683 21.9531Z" fill="white"/>
<path d="M55.1719 21.9531H47.2559C45.0479 21.9531 43.2559 23.7451 43.2559 25.9531C43.2559 28.1611 45.0479 29.9531 47.2559 29.9531H55.1719C57.3799 29.9531 59.1719 28.1611 59.1719 25.9531C59.1719 23.7451 57.3799 21.9531 55.1719 21.9531Z" fill="white"/>
<path d="M77.2803 21.9531H69.3604C67.1524 21.9531 65.3604 23.7451 65.3604 25.9531C65.3604 28.1611 67.1524 29.9531 69.3604 29.9531H77.2803C79.4883 29.9531 81.2803 28.1611 81.2803 25.9531C81.2803 23.7451 79.4883 21.9531 77.2803 21.9531Z" fill="white"/>
<path d="M214.852 21.9531H138.972C136.764 21.9531 134.972 23.7451 134.972 25.9531C134.972 28.1611 136.764 29.9531 138.972 29.9531H214.852C217.06 29.9531 218.852 28.1611 218.852 25.9531C218.852 23.7451 217.06 21.9531 214.852 21.9531Z" fill="white"/>
<path d="M147.868 110.223C147.116 109.471 146.1 109.051 145.04 109.051C143.98 109.051 142.96 109.471 142.212 110.223L110.08 142.355L97.7765 130.051C96.2125 128.487 93.6845 128.487 92.1205 130.051L78.3205 143.851C76.7565 145.415 76.7565 147.943 78.3205 149.507L107.252 178.439C108.004 179.191 109.02 179.611 110.08 179.611C111.14 179.611 112.16 179.191 112.908 178.439L161.664 129.679C163.228 128.115 163.228 125.587 161.664 124.023L147.868 110.223ZM110.08 169.955L86.8045 146.679L94.9485 138.535L107.252 150.839C108.816 152.403 111.344 152.403 112.908 150.839L145.04 118.707L153.18 126.851L110.08 169.955Z" fill="white"/>
<path d="M184.596 90.2795C169.932 91.5555 156.784 90.0875 145.476 85.8955C142 84.6515 138.644 83.1035 135.516 81.2955C127.064 76.3875 123.26 71.3555 123.232 71.3195C122.48 70.2915 121.356 69.7515 119.996 69.6875C118.728 69.6875 117.528 70.2955 116.772 71.3155C116.72 71.3875 111.36 78.5035 99.1276 84.0475C86.8236 89.6315 72.1076 91.7195 55.4036 90.2835C54.2916 90.1875 53.1796 90.5635 52.3556 91.3195C51.5316 92.0755 51.0596 93.1475 51.0596 94.2675V139.839C51.0596 140.507 51.1836 156.456 61.9196 174.876C63.2876 177.228 64.7676 179.492 66.4276 181.775C78.2676 198.264 95.8436 210.708 118.672 218.771C119.104 218.923 119.552 218.999 120.004 218.999C120.456 218.999 120.904 218.923 121.336 218.771C188.176 195.191 188.948 140.391 188.948 139.839V94.2675C188.948 93.1475 188.476 92.0755 187.652 91.3195C186.824 90.5635 185.708 90.1835 184.6 90.2835L184.596 90.2795ZM180.944 139.827C180.936 141.836 180.008 188.899 120 210.747C99.3956 203.236 83.5596 191.919 72.9076 177.083C71.3956 175.003 70.0596 172.968 68.8276 170.848C59.2396 154.392 59.0556 139.967 59.0556 139.835V98.5515C75.3836 99.4155 89.9596 96.9915 102.428 91.3275C111.088 87.4035 116.792 82.7515 120.008 79.6155C122.404 81.9475 126.176 85.1195 131.508 88.2155C135.064 90.2675 138.856 92.0195 142.74 93.4075C153.988 97.5755 166.812 99.2955 180.948 98.5515V139.824L180.944 139.827Z" fill="white"/>
</g>
<defs>
<clipPath id="clip0_3323_6390">
<rect width="240" height="240" fill="white"/>
</clipPath>
</defs>
</svg>
