<svg width="496" height="204" viewBox="0 0 496 204" fill="none" xmlns="http://www.w3.org/2000/svg">
<path d="M145.272 123.618V158.911H3.01465L0.299805 130.948L79.709 3.21484H115.816L76.5869 67.4209L44.0088 123.618H145.272ZM125.318 3.21484V200.855H79.5732V3.21484H125.318Z" fill="#353535"/>
<path d="M316.905 83.9814V120.089C316.905 134.297 315.231 146.649 311.882 157.146C308.625 167.644 303.919 176.331 297.765 183.209C291.702 190.087 284.462 195.2 276.046 198.548C267.63 201.896 258.355 203.57 248.219 203.57C240.075 203.57 232.473 202.53 225.415 200.448C218.356 198.276 211.976 195.019 206.275 190.675C200.664 186.241 195.823 180.72 191.751 174.114C187.678 167.508 184.556 159.726 182.384 150.767C180.212 141.717 179.127 131.491 179.127 120.089V83.9814C179.127 69.6833 180.755 57.3307 184.013 46.9238C187.362 36.4264 192.113 27.7389 198.266 20.8613C204.42 13.9837 211.705 8.87077 220.121 5.52246C228.537 2.17415 237.812 0.5 247.948 0.5C256.092 0.5 263.649 1.58594 270.617 3.75781C277.675 5.83919 284.055 9.09701 289.756 13.5312C295.458 17.875 300.299 23.3499 304.281 29.9561C308.353 36.5622 311.475 44.39 313.647 53.4395C315.819 62.3984 316.905 72.5791 316.905 83.9814ZM271.16 125.654V78.1445C271.16 71.8099 270.798 66.2897 270.074 61.584C269.44 56.8783 268.445 52.8965 267.087 49.6387C265.821 46.3809 264.237 43.7565 262.337 41.7656C260.436 39.6842 258.264 38.1911 255.821 37.2861C253.468 36.2907 250.844 35.793 247.948 35.793C244.328 35.793 241.07 36.5622 238.174 38.1006C235.369 39.5485 232.971 41.9014 230.98 45.1592C228.989 48.417 227.451 52.7607 226.365 58.1904C225.369 63.6201 224.872 70.2715 224.872 78.1445V125.654C224.872 132.079 225.188 137.69 225.822 142.486C226.546 147.192 227.541 151.219 228.808 154.567C230.166 157.825 231.795 160.495 233.695 162.576C235.595 164.567 237.767 166.015 240.211 166.92C242.654 167.825 245.324 168.277 248.219 168.277C251.749 168.277 254.916 167.553 257.721 166.105C260.527 164.658 262.925 162.305 264.916 159.047C266.997 155.699 268.535 151.31 269.531 145.88C270.617 140.36 271.16 133.618 271.16 125.654Z" fill="#353535"/>
<path d="M495.596 123.618V158.911H353.338L350.623 130.948L430.032 3.21484H466.14L426.91 67.4209L394.332 123.618H495.596ZM475.642 3.21484V200.855H429.897V3.21484H475.642Z" fill="#353535"/>
<path d="M316.905 83.9814V120.089C316.905 134.297 315.231 146.649 311.883 157.146C308.625 167.644 303.919 176.331 297.766 183.209C291.702 190.087 284.463 195.2 276.047 198.548C267.631 201.896 258.355 203.57 248.22 203.57C240.075 203.57 232.474 202.53 225.415 200.448C218.356 198.276 211.977 195.019 206.275 190.675C200.665 186.241 195.823 180.72 191.751 174.114C187.679 167.508 184.557 159.726 182.385 150.767C180.213 141.717 179.127 131.491 179.127 120.089V83.9814C179.127 69.6833 180.756 57.3307 184.014 46.9238C187.362 36.4264 192.113 27.7389 198.267 20.8613C204.42 13.9837 211.705 8.87077 220.121 5.52246C228.537 2.17415 237.813 0.5 247.948 0.5C256.093 0.5 263.649 1.58594 270.617 3.75781C277.676 5.83919 284.056 9.09701 289.757 13.5312C295.458 17.875 300.299 23.3499 304.281 29.9561C308.354 36.5622 311.476 44.39 313.647 53.4395C315.819 62.3984 316.905 72.5791 316.905 83.9814ZM271.16 125.654V78.1445C271.16 71.8099 270.798 66.2897 270.074 61.584C269.441 56.8783 268.445 52.8965 267.088 49.6387C265.821 46.3809 264.237 43.7565 262.337 41.7656C260.437 39.6842 258.265 38.1911 255.821 37.2861C253.468 36.2907 250.844 35.793 247.948 35.793C244.328 35.793 241.071 36.5622 238.175 38.1006C235.369 39.5485 232.971 41.9014 230.98 45.1592C228.99 48.417 227.451 52.7607 226.365 58.1904C225.37 63.6201 224.872 70.2715 224.872 78.1445V125.654C224.872 132.079 225.189 137.69 225.822 142.486C226.546 147.192 227.542 151.219 228.809 154.567C230.166 157.825 231.795 160.495 233.695 162.576C235.596 164.567 237.768 166.015 240.211 166.92C242.654 167.825 245.324 168.277 248.22 168.277C251.749 168.277 254.916 167.553 257.722 166.105C260.527 164.658 262.925 162.305 264.916 159.047C266.997 155.699 268.536 151.31 269.531 145.88C270.617 140.36 271.16 133.618 271.16 125.654Z" fill="#32D16D"/>
<path d="M191.751 174.114C187.679 167.508 184.557 159.726 182.385 150.767C180.213 141.717 179.127 131.491 179.127 120.089V83.9814C179.127 69.6833 180.756 57.3307 184.014 46.9238C187.362 36.4264 192.113 27.7389 198.267 20.8613C204.42 13.9837 211.705 8.87077 220.121 5.52246C228.537 2.17415 237.813 0.5 247.948 0.5C256.093 0.5 263.649 1.58594 270.617 3.75781C277.676 5.83919 284.056 9.09701 289.757 13.5312C295.458 17.875 300.299 23.3499 304.281 29.9561C308.354 36.5622 311.476 44.39 313.647 53.4395C315.819 62.3984 316.905 72.5791 316.905 83.9814L271.16 116.926L227.031 148.706L191.751 174.114Z" fill="#353535"/>
<path d="M270.074 61.584C270.798 66.2897 271.16 71.8099 271.16 78.1445V116.926L227.031 148.706C226.568 146.785 226.165 144.711 225.822 142.486C225.189 137.69 224.872 132.079 224.872 125.654V78.1445C224.872 70.2715 225.37 63.6201 226.365 58.1904C227.451 52.7607 228.99 48.417 230.98 45.1592C232.971 41.9014 235.369 39.5485 238.175 38.1006C241.071 36.5622 244.328 35.793 247.948 35.793C250.844 35.793 253.468 36.2907 255.821 37.2861C258.265 38.1911 260.437 39.6842 262.337 41.7656C264.237 43.7565 265.821 46.3809 267.088 49.6387C268.445 52.8965 269.441 56.8783 270.074 61.584Z" fill="#0E0E0E"/>
</svg>
