<svg width="32" height="32" viewBox="0 0 32 32" fill="none" xmlns="http://www.w3.org/2000/svg">
<g clip-path="url(#clip0_90_1399)">
<path d="M16 0.000488281C11.7575 0.000488281 7.685 1.68724 4.6875 4.68674C1.68693 7.68744 0.000858621 11.7569 0 16.0005C0 20.2422 1.6875 24.3147 4.6875 27.3142C7.685 30.3137 11.7575 32.0005 16 32.0005C20.2425 32.0005 24.315 30.3137 27.3125 27.3142C30.3125 24.3147 32 20.2422 32 16.0005C32 11.7587 30.3125 7.68624 27.3125 4.68674C24.315 1.68724 20.2425 0.000488281 16 0.000488281Z" fill="url(#paint0_linear_90_1399)"/>
<path d="M7.24213 15.8315C11.9071 13.7995 15.0171 12.4599 16.5721 11.8125C21.0171 9.96429 21.9396 9.64329 22.5421 9.63242C22.6746 9.63029 22.9696 9.66304 23.1621 9.81867C23.3221 9.94992 23.3671 10.1274 23.3896 10.252C23.4096 10.3765 23.4371 10.6603 23.4146 10.8818C23.1746 13.4118 22.1321 19.5513 21.6021 22.385C21.3796 23.584 20.9371 23.986 20.5096 24.0253C19.5796 24.1108 18.8746 23.4113 17.9746 22.8215C16.5671 21.8983 15.7721 21.3238 14.4046 20.423C12.8246 19.382 13.8496 18.8098 14.7496 17.8748C14.9846 17.63 19.0796 13.9063 19.1571 13.5685C19.1671 13.5263 19.1771 13.3688 19.0821 13.2858C18.9896 13.2025 18.8521 13.231 18.7521 13.2535C18.6096 13.2855 16.3621 14.7725 12.0021 17.7143C11.3646 18.1528 10.7871 18.3665 10.2671 18.3553C9.69713 18.343 8.59713 18.0323 7.77963 17.7668C6.77963 17.441 5.98213 17.2688 6.05213 16.7155C6.08713 16.4275 6.48463 16.1328 7.24213 15.8315Z" fill="white"/>
</g>
<defs>
<linearGradient id="paint0_linear_90_1399" x1="1600" y1="0.000488281" x2="1600" y2="3200" gradientUnits="userSpaceOnUse">
<stop stop-color="#2AABEE"/>
<stop offset="1" stop-color="#229ED9"/>
</linearGradient>
<clipPath id="clip0_90_1399">
<rect width="32" height="32" fill="white" transform="translate(0 0.000488281)"/>
</clipPath>
</defs>
</svg>
