<svg width="702" height="223" viewBox="0 0 702 223" fill="none" xmlns="http://www.w3.org/2000/svg">
<rect x="461" y="176" width="220" height="47" rx="20" fill="#353535"/>
<path d="M499.086 195.141L495.688 205H493.633L497.914 193.625H499.227L499.086 195.141ZM501.93 205L498.523 195.141L498.375 193.625H499.695L503.992 205H501.93ZM501.766 200.781V202.336H495.578V200.781H501.766ZM506.969 196.547V205H505.086V196.547H506.969ZM512.484 196.547L508.68 201.633H506.531L506.281 199.93H507.852L510.133 196.547H512.484ZM510.281 205L507.734 201.312L509.219 200.242L512.758 205H510.281ZM517.703 196.547V205H515.812V196.547H517.703ZM520.477 196.547V198.031H513.086V196.547H520.477ZM529.828 201.383H527.125L527.109 200.055H529.328C529.693 200.055 529.992 200.018 530.227 199.945C530.466 199.872 530.643 199.763 530.758 199.617C530.872 199.466 530.93 199.284 530.93 199.07C530.93 198.893 530.896 198.74 530.828 198.609C530.76 198.474 530.656 198.365 530.516 198.281C530.38 198.193 530.208 198.13 530 198.094C529.797 198.052 529.56 198.031 529.289 198.031H527.75V205H525.867V196.547H529.289C529.831 196.547 530.318 196.594 530.75 196.688C531.188 196.781 531.56 196.924 531.867 197.117C532.174 197.31 532.409 197.555 532.57 197.852C532.737 198.143 532.82 198.487 532.82 198.883C532.82 199.143 532.763 199.388 532.648 199.617C532.539 199.846 532.375 200.049 532.156 200.227C531.938 200.404 531.669 200.549 531.352 200.664C531.034 200.773 530.669 200.841 530.258 200.867L529.828 201.383ZM529.828 205H526.578L527.328 203.516H529.828C530.161 203.516 530.438 203.474 530.656 203.391C530.875 203.307 531.036 203.188 531.141 203.031C531.25 202.87 531.305 202.68 531.305 202.461C531.305 202.237 531.253 202.044 531.148 201.883C531.044 201.721 530.883 201.599 530.664 201.516C530.451 201.427 530.172 201.383 529.828 201.383H527.68L527.695 200.055H530.25L530.789 200.57C531.326 200.607 531.771 200.721 532.125 200.914C532.479 201.107 532.745 201.349 532.922 201.641C533.099 201.932 533.188 202.25 533.188 202.594C533.188 202.99 533.112 203.339 532.961 203.641C532.815 203.943 532.596 204.195 532.305 204.398C532.018 204.596 531.667 204.747 531.25 204.852C530.833 204.951 530.359 205 529.828 205ZM536.758 202.25L540.078 196.547H541.961V205H540.078V199.289L536.758 205H534.875V196.547H536.758V202.25ZM545.984 196.547V205H544.102V196.547H545.984ZM551.5 196.547L547.695 201.633H545.547L545.297 199.93H546.867L549.148 196.547H551.5ZM549.297 205L546.75 201.312L548.234 200.242L551.773 205H549.297ZM552.156 200.867V200.688C552.156 200.078 552.245 199.513 552.422 198.992C552.599 198.466 552.854 198.01 553.188 197.625C553.526 197.234 553.938 196.932 554.422 196.719C554.911 196.5 555.464 196.391 556.078 196.391C556.698 196.391 557.25 196.5 557.734 196.719C558.224 196.932 558.638 197.234 558.977 197.625C559.315 198.01 559.573 198.466 559.75 198.992C559.927 199.513 560.016 200.078 560.016 200.688V200.867C560.016 201.477 559.927 202.042 559.75 202.562C559.573 203.083 559.315 203.539 558.977 203.93C558.638 204.315 558.227 204.617 557.742 204.836C557.258 205.049 556.708 205.156 556.094 205.156C555.474 205.156 554.919 205.049 554.43 204.836C553.945 204.617 553.534 204.315 553.195 203.93C552.857 203.539 552.599 203.083 552.422 202.562C552.245 202.042 552.156 201.477 552.156 200.867ZM554.039 200.688V200.867C554.039 201.247 554.078 201.607 554.156 201.945C554.234 202.284 554.357 202.581 554.523 202.836C554.69 203.091 554.904 203.292 555.164 203.438C555.424 203.583 555.734 203.656 556.094 203.656C556.443 203.656 556.745 203.583 557 203.438C557.26 203.292 557.474 203.091 557.641 202.836C557.807 202.581 557.93 202.284 558.008 201.945C558.091 201.607 558.133 201.247 558.133 200.867V200.688C558.133 200.312 558.091 199.958 558.008 199.625C557.93 199.286 557.805 198.987 557.633 198.727C557.466 198.466 557.253 198.263 556.992 198.117C556.737 197.966 556.432 197.891 556.078 197.891C555.724 197.891 555.417 197.966 555.156 198.117C554.901 198.263 554.69 198.466 554.523 198.727C554.357 198.987 554.234 199.286 554.156 199.625C554.078 199.958 554.039 200.312 554.039 200.688ZM567.367 200.078V201.562H562.992V200.078H567.367ZM563.539 196.547V205H561.656V196.547H563.539ZM568.727 196.547V205H566.844V196.547H568.727ZM575.5 203.305V199.273C575.5 198.971 575.445 198.711 575.336 198.492C575.227 198.273 575.06 198.104 574.836 197.984C574.617 197.865 574.341 197.805 574.008 197.805C573.701 197.805 573.435 197.857 573.211 197.961C572.987 198.065 572.812 198.206 572.688 198.383C572.562 198.56 572.5 198.76 572.5 198.984H570.625C570.625 198.651 570.706 198.328 570.867 198.016C571.029 197.703 571.263 197.424 571.57 197.18C571.878 196.935 572.245 196.742 572.672 196.602C573.099 196.461 573.578 196.391 574.109 196.391C574.745 196.391 575.307 196.497 575.797 196.711C576.292 196.924 576.68 197.247 576.961 197.68C577.247 198.107 577.391 198.643 577.391 199.289V203.047C577.391 203.432 577.417 203.779 577.469 204.086C577.526 204.388 577.607 204.651 577.711 204.875V205H575.781C575.693 204.797 575.622 204.539 575.57 204.227C575.523 203.909 575.5 203.602 575.5 203.305ZM575.773 199.859L575.789 201.023H574.438C574.089 201.023 573.781 201.057 573.516 201.125C573.25 201.188 573.029 201.281 572.852 201.406C572.674 201.531 572.542 201.682 572.453 201.859C572.365 202.036 572.32 202.237 572.32 202.461C572.32 202.685 572.372 202.891 572.477 203.078C572.581 203.26 572.732 203.404 572.93 203.508C573.133 203.612 573.378 203.664 573.664 203.664C574.049 203.664 574.385 203.586 574.672 203.43C574.964 203.268 575.193 203.073 575.359 202.844C575.526 202.609 575.615 202.388 575.625 202.18L576.234 203.016C576.172 203.229 576.065 203.458 575.914 203.703C575.763 203.948 575.565 204.182 575.32 204.406C575.081 204.625 574.792 204.805 574.453 204.945C574.12 205.086 573.734 205.156 573.297 205.156C572.745 205.156 572.253 205.047 571.82 204.828C571.388 204.604 571.049 204.305 570.805 203.93C570.56 203.549 570.438 203.12 570.438 202.641C570.438 202.193 570.521 201.797 570.688 201.453C570.859 201.104 571.109 200.812 571.438 200.578C571.771 200.344 572.177 200.167 572.656 200.047C573.135 199.922 573.682 199.859 574.297 199.859H575.773ZM585.133 200.078V201.562H580.758V200.078H585.133ZM581.305 196.547V205H579.422V196.547H581.305ZM586.492 196.547V205H584.609V196.547H586.492ZM590.445 202.25L593.766 196.547H595.648V205H593.766V199.289L590.445 205H588.562V196.547H590.445V202.25ZM599.078 196.547L600.688 199.352L602.328 196.547H604.398L601.836 200.695L604.5 205H602.43L600.711 202.078L598.992 205H596.914L599.57 200.695L597.016 196.547H599.078ZM611.562 198.172V208.25H609.68V196.547H611.414L611.562 198.172ZM617.07 200.695V200.859C617.07 201.474 616.997 202.044 616.852 202.57C616.711 203.091 616.5 203.547 616.219 203.938C615.943 204.323 615.602 204.622 615.195 204.836C614.789 205.049 614.32 205.156 613.789 205.156C613.263 205.156 612.802 205.06 612.406 204.867C612.016 204.669 611.685 204.391 611.414 204.031C611.143 203.672 610.924 203.25 610.758 202.766C610.596 202.276 610.482 201.74 610.414 201.156V200.523C610.482 199.904 610.596 199.341 610.758 198.836C610.924 198.331 611.143 197.896 611.414 197.531C611.685 197.167 612.016 196.885 612.406 196.688C612.797 196.49 613.253 196.391 613.773 196.391C614.305 196.391 614.776 196.495 615.188 196.703C615.599 196.906 615.945 197.198 616.227 197.578C616.508 197.953 616.719 198.406 616.859 198.938C617 199.464 617.07 200.049 617.07 200.695ZM615.188 200.859V200.695C615.188 200.305 615.151 199.943 615.078 199.609C615.005 199.271 614.891 198.974 614.734 198.719C614.578 198.464 614.378 198.266 614.133 198.125C613.893 197.979 613.604 197.906 613.266 197.906C612.932 197.906 612.646 197.964 612.406 198.078C612.167 198.188 611.966 198.341 611.805 198.539C611.643 198.737 611.518 198.969 611.43 199.234C611.341 199.495 611.279 199.779 611.242 200.086V201.602C611.305 201.977 611.411 202.32 611.562 202.633C611.714 202.945 611.927 203.195 612.203 203.383C612.484 203.565 612.844 203.656 613.281 203.656C613.62 203.656 613.909 203.583 614.148 203.438C614.388 203.292 614.583 203.091 614.734 202.836C614.891 202.576 615.005 202.276 615.078 201.938C615.151 201.599 615.188 201.24 615.188 200.859ZM618.312 200.867V200.688C618.312 200.078 618.401 199.513 618.578 198.992C618.755 198.466 619.01 198.01 619.344 197.625C619.682 197.234 620.094 196.932 620.578 196.719C621.068 196.5 621.62 196.391 622.234 196.391C622.854 196.391 623.406 196.5 623.891 196.719C624.38 196.932 624.794 197.234 625.133 197.625C625.471 198.01 625.729 198.466 625.906 198.992C626.083 199.513 626.172 200.078 626.172 200.688V200.867C626.172 201.477 626.083 202.042 625.906 202.562C625.729 203.083 625.471 203.539 625.133 203.93C624.794 204.315 624.383 204.617 623.898 204.836C623.414 205.049 622.865 205.156 622.25 205.156C621.63 205.156 621.076 205.049 620.586 204.836C620.102 204.617 619.69 204.315 619.352 203.93C619.013 203.539 618.755 203.083 618.578 202.562C618.401 202.042 618.312 201.477 618.312 200.867ZM620.195 200.688V200.867C620.195 201.247 620.234 201.607 620.312 201.945C620.391 202.284 620.513 202.581 620.68 202.836C620.846 203.091 621.06 203.292 621.32 203.438C621.581 203.583 621.891 203.656 622.25 203.656C622.599 203.656 622.901 203.583 623.156 203.438C623.417 203.292 623.63 203.091 623.797 202.836C623.964 202.581 624.086 202.284 624.164 201.945C624.247 201.607 624.289 201.247 624.289 200.867V200.688C624.289 200.312 624.247 199.958 624.164 199.625C624.086 199.286 623.961 198.987 623.789 198.727C623.622 198.466 623.409 198.263 623.148 198.117C622.893 197.966 622.589 197.891 622.234 197.891C621.88 197.891 621.573 197.966 621.312 198.117C621.057 198.263 620.846 198.466 620.68 198.727C620.513 198.987 620.391 199.286 620.312 199.625C620.234 199.958 620.195 200.312 620.195 200.688ZM633.055 192.844H634.578C634.578 193.307 634.513 193.69 634.383 193.992C634.258 194.289 634.07 194.534 633.82 194.727C633.576 194.914 633.271 195.065 632.906 195.18C632.547 195.294 632.13 195.398 631.656 195.492C631.219 195.586 630.823 195.734 630.469 195.938C630.12 196.135 629.826 196.414 629.586 196.773C629.352 197.128 629.182 197.583 629.078 198.141C628.974 198.698 628.943 199.378 628.984 200.18V200.711L627.492 200.844V200.312C627.492 199.318 627.583 198.451 627.766 197.711C627.948 196.971 628.206 196.349 628.539 195.844C628.878 195.333 629.279 194.927 629.742 194.625C630.211 194.323 630.732 194.115 631.305 194C631.695 193.917 632.021 193.833 632.281 193.75C632.542 193.661 632.734 193.549 632.859 193.414C632.99 193.273 633.055 193.083 633.055 192.844ZM631.734 197.023C632.297 197.023 632.797 197.122 633.234 197.32C633.672 197.513 634.042 197.784 634.344 198.133C634.646 198.482 634.875 198.893 635.031 199.367C635.193 199.841 635.273 200.357 635.273 200.914V201.086C635.273 201.669 635.188 202.208 635.016 202.703C634.844 203.198 634.591 203.63 634.258 204C633.924 204.365 633.516 204.651 633.031 204.859C632.552 205.062 632.003 205.164 631.383 205.164C630.768 205.164 630.219 205.057 629.734 204.844C629.25 204.63 628.841 204.333 628.508 203.953C628.174 203.568 627.922 203.117 627.75 202.602C627.578 202.086 627.492 201.523 627.492 200.914V200.742C627.487 200.633 627.516 200.526 627.578 200.422C627.646 200.318 627.727 200.206 627.82 200.086C627.914 199.966 627.997 199.828 628.07 199.672C628.331 199.146 628.638 198.685 628.992 198.289C629.346 197.893 629.75 197.583 630.203 197.359C630.661 197.135 631.172 197.023 631.734 197.023ZM631.367 198.516C630.898 198.516 630.516 198.628 630.219 198.852C629.927 199.07 629.711 199.362 629.57 199.727C629.435 200.091 629.367 200.487 629.367 200.914V201.086C629.367 201.435 629.406 201.766 629.484 202.078C629.562 202.391 629.68 202.667 629.836 202.906C629.997 203.141 630.206 203.326 630.461 203.461C630.721 203.596 631.029 203.664 631.383 203.664C631.742 203.664 632.047 203.596 632.297 203.461C632.552 203.326 632.758 203.141 632.914 202.906C633.076 202.667 633.193 202.391 633.266 202.078C633.344 201.766 633.383 201.435 633.383 201.086V200.914C633.383 200.591 633.344 200.286 633.266 200C633.193 199.714 633.076 199.461 632.914 199.242C632.753 199.018 632.544 198.841 632.289 198.711C632.034 198.581 631.727 198.516 631.367 198.516ZM638.766 196.547V205H636.875V196.547H638.766ZM636.75 194.328C636.75 194.042 636.844 193.805 637.031 193.617C637.224 193.424 637.49 193.328 637.828 193.328C638.161 193.328 638.424 193.424 638.617 193.617C638.81 193.805 638.906 194.042 638.906 194.328C638.906 194.609 638.81 194.844 638.617 195.031C638.424 195.219 638.161 195.312 637.828 195.312C637.49 195.312 637.224 195.219 637.031 195.031C636.844 194.844 636.75 194.609 636.75 194.328ZM644.75 196.547V205H642.859V196.547H644.75ZM647.523 196.547V198.031H640.133V196.547H647.523Z" fill="white"/>
<rect x="112" y="176" width="220" height="47" rx="20" fill="#353535"/>
<path d="M153.227 199V199.625C153.227 200.484 153.115 201.255 152.891 201.938C152.667 202.62 152.346 203.201 151.93 203.68C151.518 204.159 151.023 204.526 150.445 204.781C149.867 205.031 149.227 205.156 148.523 205.156C147.826 205.156 147.188 205.031 146.609 204.781C146.036 204.526 145.539 204.159 145.117 203.68C144.695 203.201 144.367 202.62 144.133 201.938C143.904 201.255 143.789 200.484 143.789 199.625V199C143.789 198.141 143.904 197.372 144.133 196.695C144.362 196.013 144.685 195.432 145.102 194.953C145.523 194.469 146.021 194.102 146.594 193.852C147.172 193.596 147.81 193.469 148.508 193.469C149.211 193.469 149.852 193.596 150.43 193.852C151.008 194.102 151.505 194.469 151.922 194.953C152.339 195.432 152.659 196.013 152.883 196.695C153.112 197.372 153.227 198.141 153.227 199ZM151.266 199.625V198.984C151.266 198.349 151.203 197.789 151.078 197.305C150.958 196.815 150.779 196.406 150.539 196.078C150.305 195.745 150.016 195.495 149.672 195.328C149.328 195.156 148.94 195.07 148.508 195.07C148.076 195.07 147.69 195.156 147.352 195.328C147.013 195.495 146.724 195.745 146.484 196.078C146.25 196.406 146.07 196.815 145.945 197.305C145.82 197.789 145.758 198.349 145.758 198.984V199.625C145.758 200.26 145.82 200.823 145.945 201.312C146.07 201.802 146.253 202.216 146.492 202.555C146.737 202.888 147.029 203.141 147.367 203.312C147.706 203.479 148.091 203.562 148.523 203.562C148.961 203.562 149.349 203.479 149.688 203.312C150.026 203.141 150.312 202.888 150.547 202.555C150.781 202.216 150.958 201.802 151.078 201.312C151.203 200.823 151.266 200.26 151.266 199.625ZM160.305 192.844H161.828C161.828 193.307 161.763 193.69 161.633 193.992C161.508 194.289 161.32 194.534 161.07 194.727C160.826 194.914 160.521 195.065 160.156 195.18C159.797 195.294 159.38 195.398 158.906 195.492C158.469 195.586 158.073 195.734 157.719 195.938C157.37 196.135 157.076 196.414 156.836 196.773C156.602 197.128 156.432 197.583 156.328 198.141C156.224 198.698 156.193 199.378 156.234 200.18V200.711L154.742 200.844V200.312C154.742 199.318 154.833 198.451 155.016 197.711C155.198 196.971 155.456 196.349 155.789 195.844C156.128 195.333 156.529 194.927 156.992 194.625C157.461 194.323 157.982 194.115 158.555 194C158.945 193.917 159.271 193.833 159.531 193.75C159.792 193.661 159.984 193.549 160.109 193.414C160.24 193.273 160.305 193.083 160.305 192.844ZM158.984 197.023C159.547 197.023 160.047 197.122 160.484 197.32C160.922 197.513 161.292 197.784 161.594 198.133C161.896 198.482 162.125 198.893 162.281 199.367C162.443 199.841 162.523 200.357 162.523 200.914V201.086C162.523 201.669 162.438 202.208 162.266 202.703C162.094 203.198 161.841 203.63 161.508 204C161.174 204.365 160.766 204.651 160.281 204.859C159.802 205.062 159.253 205.164 158.633 205.164C158.018 205.164 157.469 205.057 156.984 204.844C156.5 204.63 156.091 204.333 155.758 203.953C155.424 203.568 155.172 203.117 155 202.602C154.828 202.086 154.742 201.523 154.742 200.914V200.742C154.737 200.633 154.766 200.526 154.828 200.422C154.896 200.318 154.977 200.206 155.07 200.086C155.164 199.966 155.247 199.828 155.32 199.672C155.581 199.146 155.888 198.685 156.242 198.289C156.596 197.893 157 197.583 157.453 197.359C157.911 197.135 158.422 197.023 158.984 197.023ZM158.617 198.516C158.148 198.516 157.766 198.628 157.469 198.852C157.177 199.07 156.961 199.362 156.82 199.727C156.685 200.091 156.617 200.487 156.617 200.914V201.086C156.617 201.435 156.656 201.766 156.734 202.078C156.812 202.391 156.93 202.667 157.086 202.906C157.247 203.141 157.456 203.326 157.711 203.461C157.971 203.596 158.279 203.664 158.633 203.664C158.992 203.664 159.297 203.596 159.547 203.461C159.802 203.326 160.008 203.141 160.164 202.906C160.326 202.667 160.443 202.391 160.516 202.078C160.594 201.766 160.633 201.435 160.633 201.086V200.914C160.633 200.591 160.594 200.286 160.516 200C160.443 199.714 160.326 199.461 160.164 199.242C160.003 199.018 159.794 198.841 159.539 198.711C159.284 198.581 158.977 198.516 158.617 198.516ZM169.531 196.547V198.047H165.359V196.547H169.531ZM165.805 196.547V205H163.922V196.547H165.805ZM171.008 196.547V205H169.117V196.547H171.008ZM174.891 198.172V208.25H173.008V196.547H174.742L174.891 198.172ZM180.398 200.695V200.859C180.398 201.474 180.326 202.044 180.18 202.57C180.039 203.091 179.828 203.547 179.547 203.938C179.271 204.323 178.93 204.622 178.523 204.836C178.117 205.049 177.648 205.156 177.117 205.156C176.591 205.156 176.13 205.06 175.734 204.867C175.344 204.669 175.013 204.391 174.742 204.031C174.471 203.672 174.253 203.25 174.086 202.766C173.924 202.276 173.81 201.74 173.742 201.156V200.523C173.81 199.904 173.924 199.341 174.086 198.836C174.253 198.331 174.471 197.896 174.742 197.531C175.013 197.167 175.344 196.885 175.734 196.688C176.125 196.49 176.581 196.391 177.102 196.391C177.633 196.391 178.104 196.495 178.516 196.703C178.927 196.906 179.273 197.198 179.555 197.578C179.836 197.953 180.047 198.406 180.188 198.938C180.328 199.464 180.398 200.049 180.398 200.695ZM178.516 200.859V200.695C178.516 200.305 178.479 199.943 178.406 199.609C178.333 199.271 178.219 198.974 178.062 198.719C177.906 198.464 177.706 198.266 177.461 198.125C177.221 197.979 176.932 197.906 176.594 197.906C176.26 197.906 175.974 197.964 175.734 198.078C175.495 198.188 175.294 198.341 175.133 198.539C174.971 198.737 174.846 198.969 174.758 199.234C174.669 199.495 174.607 199.779 174.57 200.086V201.602C174.633 201.977 174.74 202.32 174.891 202.633C175.042 202.945 175.255 203.195 175.531 203.383C175.812 203.565 176.172 203.656 176.609 203.656C176.948 203.656 177.237 203.583 177.477 203.438C177.716 203.292 177.911 203.091 178.062 202.836C178.219 202.576 178.333 202.276 178.406 201.938C178.479 201.599 178.516 201.24 178.516 200.859ZM183.945 202.25L187.266 196.547H189.148V205H187.266V199.289L183.945 205H182.062V196.547H183.945V202.25ZM194.594 203.656C194.901 203.656 195.177 203.596 195.422 203.477C195.672 203.352 195.872 203.18 196.023 202.961C196.18 202.742 196.266 202.49 196.281 202.203H198.055C198.044 202.75 197.883 203.247 197.57 203.695C197.258 204.143 196.844 204.5 196.328 204.766C195.812 205.026 195.242 205.156 194.617 205.156C193.971 205.156 193.409 205.047 192.93 204.828C192.451 204.604 192.052 204.297 191.734 203.906C191.417 203.516 191.177 203.065 191.016 202.555C190.859 202.044 190.781 201.497 190.781 200.914V200.641C190.781 200.057 190.859 199.51 191.016 199C191.177 198.484 191.417 198.031 191.734 197.641C192.052 197.25 192.451 196.945 192.93 196.727C193.409 196.503 193.969 196.391 194.609 196.391C195.286 196.391 195.88 196.526 196.391 196.797C196.901 197.062 197.302 197.435 197.594 197.914C197.891 198.388 198.044 198.94 198.055 199.57H196.281C196.266 199.258 196.188 198.977 196.047 198.727C195.911 198.471 195.719 198.268 195.469 198.117C195.224 197.966 194.93 197.891 194.586 197.891C194.206 197.891 193.891 197.969 193.641 198.125C193.391 198.276 193.195 198.484 193.055 198.75C192.914 199.01 192.812 199.305 192.75 199.633C192.693 199.956 192.664 200.292 192.664 200.641V200.914C192.664 201.263 192.693 201.602 192.75 201.93C192.807 202.258 192.906 202.552 193.047 202.812C193.193 203.068 193.391 203.273 193.641 203.43C193.891 203.581 194.208 203.656 194.594 203.656ZM201.531 196.547V205H199.648V196.547H201.531ZM207.047 196.547L203.242 201.633H201.094L200.844 199.93H202.414L204.695 196.547H207.047ZM204.844 205L202.297 201.312L203.781 200.242L207.32 205H204.844ZM210.797 204.078L213.094 196.547H215.109L211.719 206.289C211.641 206.497 211.539 206.724 211.414 206.969C211.289 207.214 211.125 207.445 210.922 207.664C210.724 207.888 210.477 208.068 210.18 208.203C209.883 208.344 209.523 208.414 209.102 208.414C208.935 208.414 208.773 208.398 208.617 208.367C208.466 208.341 208.323 208.312 208.188 208.281L208.18 206.844C208.232 206.849 208.294 206.854 208.367 206.859C208.445 206.865 208.508 206.867 208.555 206.867C208.867 206.867 209.128 206.828 209.336 206.75C209.544 206.677 209.714 206.557 209.844 206.391C209.979 206.224 210.094 206 210.188 205.719L210.797 204.078ZM209.5 196.547L211.508 202.875L211.844 204.859L210.539 205.195L207.469 196.547H209.5ZM220.297 201.383H217.594L217.578 200.055H219.797C220.161 200.055 220.461 200.018 220.695 199.945C220.935 199.872 221.112 199.763 221.227 199.617C221.341 199.466 221.398 199.284 221.398 199.07C221.398 198.893 221.365 198.74 221.297 198.609C221.229 198.474 221.125 198.365 220.984 198.281C220.849 198.193 220.677 198.13 220.469 198.094C220.266 198.052 220.029 198.031 219.758 198.031H218.219V205H216.336V196.547H219.758C220.299 196.547 220.786 196.594 221.219 196.688C221.656 196.781 222.029 196.924 222.336 197.117C222.643 197.31 222.878 197.555 223.039 197.852C223.206 198.143 223.289 198.487 223.289 198.883C223.289 199.143 223.232 199.388 223.117 199.617C223.008 199.846 222.844 200.049 222.625 200.227C222.406 200.404 222.138 200.549 221.82 200.664C221.503 200.773 221.138 200.841 220.727 200.867L220.297 201.383ZM220.297 205H217.047L217.797 203.516H220.297C220.63 203.516 220.906 203.474 221.125 203.391C221.344 203.307 221.505 203.188 221.609 203.031C221.719 202.87 221.773 202.68 221.773 202.461C221.773 202.237 221.721 202.044 221.617 201.883C221.513 201.721 221.352 201.599 221.133 201.516C220.919 201.427 220.641 201.383 220.297 201.383H218.148L218.164 200.055H220.719L221.258 200.57C221.794 200.607 222.24 200.721 222.594 200.914C222.948 201.107 223.214 201.349 223.391 201.641C223.568 201.932 223.656 202.25 223.656 202.594C223.656 202.99 223.581 203.339 223.43 203.641C223.284 203.943 223.065 204.195 222.773 204.398C222.487 204.596 222.135 204.747 221.719 204.852C221.302 204.951 220.828 205 220.297 205ZM230.047 203.305V199.273C230.047 198.971 229.992 198.711 229.883 198.492C229.773 198.273 229.607 198.104 229.383 197.984C229.164 197.865 228.888 197.805 228.555 197.805C228.247 197.805 227.982 197.857 227.758 197.961C227.534 198.065 227.359 198.206 227.234 198.383C227.109 198.56 227.047 198.76 227.047 198.984H225.172C225.172 198.651 225.253 198.328 225.414 198.016C225.576 197.703 225.81 197.424 226.117 197.18C226.424 196.935 226.792 196.742 227.219 196.602C227.646 196.461 228.125 196.391 228.656 196.391C229.292 196.391 229.854 196.497 230.344 196.711C230.839 196.924 231.227 197.247 231.508 197.68C231.794 198.107 231.938 198.643 231.938 199.289V203.047C231.938 203.432 231.964 203.779 232.016 204.086C232.073 204.388 232.154 204.651 232.258 204.875V205H230.328C230.24 204.797 230.169 204.539 230.117 204.227C230.07 203.909 230.047 203.602 230.047 203.305ZM230.32 199.859L230.336 201.023H228.984C228.635 201.023 228.328 201.057 228.062 201.125C227.797 201.188 227.576 201.281 227.398 201.406C227.221 201.531 227.089 201.682 227 201.859C226.911 202.036 226.867 202.237 226.867 202.461C226.867 202.685 226.919 202.891 227.023 203.078C227.128 203.26 227.279 203.404 227.477 203.508C227.68 203.612 227.924 203.664 228.211 203.664C228.596 203.664 228.932 203.586 229.219 203.43C229.51 203.268 229.74 203.073 229.906 202.844C230.073 202.609 230.161 202.388 230.172 202.18L230.781 203.016C230.719 203.229 230.612 203.458 230.461 203.703C230.31 203.948 230.112 204.182 229.867 204.406C229.628 204.625 229.339 204.805 229 204.945C228.667 205.086 228.281 205.156 227.844 205.156C227.292 205.156 226.799 205.047 226.367 204.828C225.935 204.604 225.596 204.305 225.352 203.93C225.107 203.549 224.984 203.12 224.984 202.641C224.984 202.193 225.068 201.797 225.234 201.453C225.406 201.104 225.656 200.812 225.984 200.578C226.318 200.344 226.724 200.167 227.203 200.047C227.682 199.922 228.229 199.859 228.844 199.859H230.32ZM239.68 200.078V201.562H235.305V200.078H239.68ZM235.852 196.547V205H233.969V196.547H235.852ZM241.039 196.547V205H239.156V196.547H241.039ZM248.82 200.078V201.562H244.445V200.078H248.82ZM244.992 196.547V205H243.109V196.547H244.992ZM250.18 196.547V205H248.297V196.547H250.18ZM253.969 200.867H255.922L253.523 205H251.578L253.969 200.867ZM255.344 196.547H258.969V205H257.094V198.031H255.344C254.99 198.031 254.698 198.094 254.469 198.219C254.24 198.339 254.07 198.497 253.961 198.695C253.852 198.888 253.797 199.086 253.797 199.289C253.797 199.492 253.846 199.688 253.945 199.875C254.049 200.062 254.208 200.216 254.422 200.336C254.641 200.456 254.914 200.516 255.242 200.516H257.727V201.891H255.242C254.721 201.891 254.255 201.826 253.844 201.695C253.432 201.56 253.083 201.375 252.797 201.141C252.51 200.901 252.292 200.622 252.141 200.305C251.99 199.982 251.914 199.63 251.914 199.25C251.914 198.859 251.992 198.5 252.148 198.172C252.305 197.844 252.529 197.557 252.82 197.312C253.117 197.068 253.477 196.88 253.898 196.75C254.326 196.615 254.807 196.547 255.344 196.547ZM270.719 196.547V198.047H266.547V196.547H270.719ZM266.992 196.547V205H265.109V196.547H266.992ZM272.195 196.547V205H270.305V196.547H272.195ZM273.828 200.867V200.688C273.828 200.078 273.917 199.513 274.094 198.992C274.271 198.466 274.526 198.01 274.859 197.625C275.198 197.234 275.609 196.932 276.094 196.719C276.583 196.5 277.135 196.391 277.75 196.391C278.37 196.391 278.922 196.5 279.406 196.719C279.896 196.932 280.31 197.234 280.648 197.625C280.987 198.01 281.245 198.466 281.422 198.992C281.599 199.513 281.688 200.078 281.688 200.688V200.867C281.688 201.477 281.599 202.042 281.422 202.562C281.245 203.083 280.987 203.539 280.648 203.93C280.31 204.315 279.898 204.617 279.414 204.836C278.93 205.049 278.38 205.156 277.766 205.156C277.146 205.156 276.591 205.049 276.102 204.836C275.617 204.617 275.206 204.315 274.867 203.93C274.529 203.539 274.271 203.083 274.094 202.562C273.917 202.042 273.828 201.477 273.828 200.867ZM275.711 200.688V200.867C275.711 201.247 275.75 201.607 275.828 201.945C275.906 202.284 276.029 202.581 276.195 202.836C276.362 203.091 276.576 203.292 276.836 203.438C277.096 203.583 277.406 203.656 277.766 203.656C278.115 203.656 278.417 203.583 278.672 203.438C278.932 203.292 279.146 203.091 279.312 202.836C279.479 202.581 279.602 202.284 279.68 201.945C279.763 201.607 279.805 201.247 279.805 200.867V200.688C279.805 200.312 279.763 199.958 279.68 199.625C279.602 199.286 279.477 198.987 279.305 198.727C279.138 198.466 278.924 198.263 278.664 198.117C278.409 197.966 278.104 197.891 277.75 197.891C277.396 197.891 277.089 197.966 276.828 198.117C276.573 198.263 276.362 198.466 276.195 198.727C276.029 198.987 275.906 199.286 275.828 199.625C275.75 199.958 275.711 200.312 275.711 200.688ZM288.82 196.547V198.047H284.695V196.547H288.82ZM290.297 196.547V205H288.414V196.547H290.297ZM284.234 196.547H286.094L285.867 200.727C285.836 201.346 285.773 201.893 285.68 202.367C285.591 202.836 285.471 203.24 285.32 203.578C285.169 203.911 284.984 204.182 284.766 204.391C284.547 204.599 284.292 204.753 284 204.852C283.708 204.951 283.38 205 283.016 205H282.43L282.422 203.453L282.719 203.43C282.911 203.414 283.078 203.365 283.219 203.281C283.359 203.193 283.479 203.068 283.578 202.906C283.682 202.745 283.766 202.536 283.828 202.281C283.896 202.026 283.948 201.724 283.984 201.375C284.026 201.026 284.057 200.62 284.078 200.156L284.234 196.547ZM294.078 200.867H296.031L293.633 205H291.688L294.078 200.867ZM295.453 196.547H299.078V205H297.203V198.031H295.453C295.099 198.031 294.807 198.094 294.578 198.219C294.349 198.339 294.18 198.497 294.07 198.695C293.961 198.888 293.906 199.086 293.906 199.289C293.906 199.492 293.956 199.688 294.055 199.875C294.159 200.062 294.318 200.216 294.531 200.336C294.75 200.456 295.023 200.516 295.352 200.516H297.836V201.891H295.352C294.831 201.891 294.365 201.826 293.953 201.695C293.542 201.56 293.193 201.375 292.906 201.141C292.62 200.901 292.401 200.622 292.25 200.305C292.099 199.982 292.023 199.63 292.023 199.25C292.023 198.859 292.102 198.5 292.258 198.172C292.414 197.844 292.638 197.557 292.93 197.312C293.227 197.068 293.586 196.88 294.008 196.75C294.435 196.615 294.917 196.547 295.453 196.547Z" fill="white"/>
<rect x="241" y="88" width="220" height="47" rx="20" fill="#353535"/>
<path d="M318.227 111V111.625C318.227 112.484 318.115 113.255 317.891 113.938C317.667 114.62 317.346 115.201 316.93 115.68C316.518 116.159 316.023 116.526 315.445 116.781C314.867 117.031 314.227 117.156 313.523 117.156C312.826 117.156 312.188 117.031 311.609 116.781C311.036 116.526 310.539 116.159 310.117 115.68C309.695 115.201 309.367 114.62 309.133 113.938C308.904 113.255 308.789 112.484 308.789 111.625V111C308.789 110.141 308.904 109.372 309.133 108.695C309.362 108.013 309.685 107.432 310.102 106.953C310.523 106.469 311.021 106.102 311.594 105.852C312.172 105.596 312.81 105.469 313.508 105.469C314.211 105.469 314.852 105.596 315.43 105.852C316.008 106.102 316.505 106.469 316.922 106.953C317.339 107.432 317.659 108.013 317.883 108.695C318.112 109.372 318.227 110.141 318.227 111ZM316.266 111.625V110.984C316.266 110.349 316.203 109.789 316.078 109.305C315.958 108.815 315.779 108.406 315.539 108.078C315.305 107.745 315.016 107.495 314.672 107.328C314.328 107.156 313.94 107.07 313.508 107.07C313.076 107.07 312.69 107.156 312.352 107.328C312.013 107.495 311.724 107.745 311.484 108.078C311.25 108.406 311.07 108.815 310.945 109.305C310.82 109.789 310.758 110.349 310.758 110.984V111.625C310.758 112.26 310.82 112.823 310.945 113.312C311.07 113.802 311.253 114.216 311.492 114.555C311.737 114.888 312.029 115.141 312.367 115.312C312.706 115.479 313.091 115.562 313.523 115.562C313.961 115.562 314.349 115.479 314.688 115.312C315.026 115.141 315.312 114.888 315.547 114.555C315.781 114.216 315.958 113.802 316.078 113.312C316.203 112.823 316.266 112.26 316.266 111.625ZM325.625 108.547V110.047H321.938V117H320.055V108.547H325.625ZM332.086 108.547V110.047H327.961V108.547H332.086ZM333.562 108.547V117H331.68V108.547H333.562ZM327.5 108.547H329.359L329.133 112.727C329.102 113.346 329.039 113.893 328.945 114.367C328.857 114.836 328.737 115.24 328.586 115.578C328.435 115.911 328.25 116.182 328.031 116.391C327.812 116.599 327.557 116.753 327.266 116.852C326.974 116.951 326.646 117 326.281 117H325.695L325.688 115.453L325.984 115.43C326.177 115.414 326.344 115.365 326.484 115.281C326.625 115.193 326.745 115.068 326.844 114.906C326.948 114.745 327.031 114.536 327.094 114.281C327.161 114.026 327.214 113.724 327.25 113.375C327.292 113.026 327.323 112.62 327.344 112.156L327.5 108.547ZM337.344 112.867H339.297L336.898 117H334.953L337.344 112.867ZM338.719 108.547H342.344V117H340.469V110.031H338.719C338.365 110.031 338.073 110.094 337.844 110.219C337.615 110.339 337.445 110.497 337.336 110.695C337.227 110.888 337.172 111.086 337.172 111.289C337.172 111.492 337.221 111.688 337.32 111.875C337.424 112.062 337.583 112.216 337.797 112.336C338.016 112.456 338.289 112.516 338.617 112.516H341.102V113.891H338.617C338.096 113.891 337.63 113.826 337.219 113.695C336.807 113.56 336.458 113.375 336.172 113.141C335.885 112.901 335.667 112.622 335.516 112.305C335.365 111.982 335.289 111.63 335.289 111.25C335.289 110.859 335.367 110.5 335.523 110.172C335.68 109.844 335.904 109.557 336.195 109.312C336.492 109.068 336.852 108.88 337.273 108.75C337.701 108.615 338.182 108.547 338.719 108.547ZM345.969 108.547H347.852L347.758 111.523C347.732 112.388 347.633 113.13 347.461 113.75C347.289 114.37 347.065 114.893 346.789 115.32C346.513 115.742 346.201 116.089 345.852 116.359C345.508 116.63 345.146 116.844 344.766 117H344.211V115.516L344.477 115.5C344.701 115.26 344.893 115.021 345.055 114.781C345.221 114.536 345.362 114.268 345.477 113.977C345.591 113.68 345.68 113.333 345.742 112.938C345.81 112.542 345.854 112.07 345.875 111.523L345.969 108.547ZM346.469 108.547H351.828V117H349.953V110.141H346.469V108.547ZM343.781 115.5H352.984V119.516H351.102V117H345.688V119.516H343.773L343.781 115.5ZM363.984 108.547V110.047H359.812V108.547H363.984ZM360.258 108.547V117H358.375V108.547H360.258ZM365.461 108.547V117H363.57V108.547H365.461ZM367.094 112.867V112.688C367.094 112.078 367.182 111.513 367.359 110.992C367.536 110.466 367.792 110.01 368.125 109.625C368.464 109.234 368.875 108.932 369.359 108.719C369.849 108.5 370.401 108.391 371.016 108.391C371.635 108.391 372.188 108.5 372.672 108.719C373.161 108.932 373.576 109.234 373.914 109.625C374.253 110.01 374.51 110.466 374.688 110.992C374.865 111.513 374.953 112.078 374.953 112.688V112.867C374.953 113.477 374.865 114.042 374.688 114.562C374.51 115.083 374.253 115.539 373.914 115.93C373.576 116.315 373.164 116.617 372.68 116.836C372.195 117.049 371.646 117.156 371.031 117.156C370.411 117.156 369.857 117.049 369.367 116.836C368.883 116.617 368.471 116.315 368.133 115.93C367.794 115.539 367.536 115.083 367.359 114.562C367.182 114.042 367.094 113.477 367.094 112.867ZM368.977 112.688V112.867C368.977 113.247 369.016 113.607 369.094 113.945C369.172 114.284 369.294 114.581 369.461 114.836C369.628 115.091 369.841 115.292 370.102 115.438C370.362 115.583 370.672 115.656 371.031 115.656C371.38 115.656 371.682 115.583 371.938 115.438C372.198 115.292 372.411 115.091 372.578 114.836C372.745 114.581 372.867 114.284 372.945 113.945C373.029 113.607 373.07 113.247 373.07 112.867V112.688C373.07 112.312 373.029 111.958 372.945 111.625C372.867 111.286 372.742 110.987 372.57 110.727C372.404 110.466 372.19 110.263 371.93 110.117C371.674 109.966 371.37 109.891 371.016 109.891C370.661 109.891 370.354 109.966 370.094 110.117C369.839 110.263 369.628 110.466 369.461 110.727C369.294 110.987 369.172 111.286 369.094 111.625C369.016 111.958 368.977 112.312 368.977 112.688ZM382.086 108.547V110.047H377.961V108.547H382.086ZM383.562 108.547V117H381.68V108.547H383.562ZM377.5 108.547H379.359L379.133 112.727C379.102 113.346 379.039 113.893 378.945 114.367C378.857 114.836 378.737 115.24 378.586 115.578C378.435 115.911 378.25 116.182 378.031 116.391C377.812 116.599 377.557 116.753 377.266 116.852C376.974 116.951 376.646 117 376.281 117H375.695L375.688 115.453L375.984 115.43C376.177 115.414 376.344 115.365 376.484 115.281C376.625 115.193 376.745 115.068 376.844 114.906C376.948 114.745 377.031 114.536 377.094 114.281C377.161 114.026 377.214 113.724 377.25 113.375C377.292 113.026 377.323 112.62 377.344 112.156L377.5 108.547ZM387.344 112.867H389.297L386.898 117H384.953L387.344 112.867ZM388.719 108.547H392.344V117H390.469V110.031H388.719C388.365 110.031 388.073 110.094 387.844 110.219C387.615 110.339 387.445 110.497 387.336 110.695C387.227 110.888 387.172 111.086 387.172 111.289C387.172 111.492 387.221 111.688 387.32 111.875C387.424 112.062 387.583 112.216 387.797 112.336C388.016 112.456 388.289 112.516 388.617 112.516H391.102V113.891H388.617C388.096 113.891 387.63 113.826 387.219 113.695C386.807 113.56 386.458 113.375 386.172 113.141C385.885 112.901 385.667 112.622 385.516 112.305C385.365 111.982 385.289 111.63 385.289 111.25C385.289 110.859 385.367 110.5 385.523 110.172C385.68 109.844 385.904 109.557 386.195 109.312C386.492 109.068 386.852 108.88 387.273 108.75C387.701 108.615 388.182 108.547 388.719 108.547Z" fill="white"/>
<rect x="351" width="220" height="47" rx="20" fill="#353535"/>
<path d="M379.203 25.0391L382.094 17.625H384.258L380.305 26.9375C380.18 27.224 380.036 27.5026 379.875 27.7734C379.719 28.0391 379.529 28.276 379.305 28.4844C379.081 28.6927 378.81 28.8594 378.492 28.9844C378.174 29.1042 377.789 29.1641 377.336 29.1641C377.216 29.1641 377.07 29.1589 376.898 29.1484C376.732 29.138 376.609 29.1276 376.531 29.1172L376.547 27.5781C376.609 27.5885 376.714 27.5964 376.859 27.6016C377.01 27.6068 377.12 27.6094 377.188 27.6094C377.49 27.6094 377.729 27.5599 377.906 27.4609C378.083 27.3568 378.224 27.2188 378.328 27.0469C378.438 26.8698 378.534 26.6771 378.617 26.4688L379.203 25.0391ZM377.031 17.625L379.891 23.9219L380.453 25.9688L378.93 26.0234L374.891 17.625H377.031ZM388.734 24.9609H387.109V24.0078H388.422C388.755 24.0078 389.021 23.9635 389.219 23.875C389.422 23.7865 389.565 23.6641 389.648 23.5078C389.737 23.3464 389.781 23.1589 389.781 22.9453C389.781 22.7578 389.737 22.5807 389.648 22.4141C389.565 22.2422 389.422 22.1016 389.219 21.9922C389.016 21.8828 388.74 21.8281 388.391 21.8281C388.104 21.8281 387.846 21.875 387.617 21.9688C387.393 22.0625 387.216 22.1927 387.086 22.3594C386.956 22.526 386.891 22.7188 386.891 22.9375H385.008C385.008 22.4115 385.156 21.9583 385.453 21.5781C385.755 21.1979 386.159 20.9062 386.664 20.7031C387.169 20.5 387.724 20.3984 388.328 20.3984C388.844 20.3984 389.307 20.4531 389.719 20.5625C390.13 20.6667 390.479 20.8229 390.766 21.0312C391.057 21.2344 391.279 21.4896 391.43 21.7969C391.586 22.099 391.664 22.4505 391.664 22.8516C391.664 23.138 391.596 23.4089 391.461 23.6641C391.326 23.9193 391.13 24.1458 390.875 24.3438C390.62 24.5365 390.31 24.6875 389.945 24.7969C389.586 24.9062 389.182 24.9609 388.734 24.9609ZM387.109 24.4141H388.734C389.234 24.4141 389.677 24.4635 390.062 24.5625C390.448 24.6562 390.771 24.7969 391.031 24.9844C391.292 25.1719 391.487 25.4036 391.617 25.6797C391.753 25.9505 391.82 26.263 391.82 26.6172C391.82 27.013 391.734 27.3698 391.562 27.6875C391.396 28 391.156 28.2656 390.844 28.4844C390.536 28.7031 390.169 28.8698 389.742 28.9844C389.315 29.099 388.844 29.1562 388.328 29.1562C387.766 29.1562 387.219 29.0625 386.688 28.875C386.161 28.6875 385.727 28.3984 385.383 28.0078C385.044 27.612 384.875 27.1094 384.875 26.5H386.758C386.758 26.7135 386.823 26.9141 386.953 27.1016C387.083 27.2891 387.271 27.4427 387.516 27.5625C387.76 27.6771 388.055 27.7344 388.398 27.7344C388.753 27.7344 389.042 27.6797 389.266 27.5703C389.49 27.4557 389.656 27.3073 389.766 27.125C389.875 26.9375 389.93 26.7396 389.93 26.5312C389.93 26.25 389.875 26.0234 389.766 25.8516C389.656 25.6797 389.49 25.5547 389.266 25.4766C389.042 25.3932 388.76 25.3516 388.422 25.3516H387.109V24.4141ZM399.047 20.5469V22.0469H395.359V29H393.477V20.5469H399.047ZM399.625 24.8672V24.6875C399.625 24.0781 399.714 23.513 399.891 22.9922C400.068 22.4661 400.323 22.0104 400.656 21.625C400.995 21.2344 401.406 20.9323 401.891 20.7188C402.38 20.5 402.932 20.3906 403.547 20.3906C404.167 20.3906 404.719 20.5 405.203 20.7188C405.693 20.9323 406.107 21.2344 406.445 21.625C406.784 22.0104 407.042 22.4661 407.219 22.9922C407.396 23.513 407.484 24.0781 407.484 24.6875V24.8672C407.484 25.4766 407.396 26.0417 407.219 26.5625C407.042 27.0833 406.784 27.5391 406.445 27.9297C406.107 28.3151 405.695 28.6172 405.211 28.8359C404.727 29.0495 404.177 29.1562 403.562 29.1562C402.943 29.1562 402.388 29.0495 401.898 28.8359C401.414 28.6172 401.003 28.3151 400.664 27.9297C400.326 27.5391 400.068 27.0833 399.891 26.5625C399.714 26.0417 399.625 25.4766 399.625 24.8672ZM401.508 24.6875V24.8672C401.508 25.2474 401.547 25.6068 401.625 25.9453C401.703 26.2839 401.826 26.5807 401.992 26.8359C402.159 27.0911 402.372 27.2917 402.633 27.4375C402.893 27.5833 403.203 27.6562 403.562 27.6562C403.911 27.6562 404.214 27.5833 404.469 27.4375C404.729 27.2917 404.943 27.0911 405.109 26.8359C405.276 26.5807 405.398 26.2839 405.477 25.9453C405.56 25.6068 405.602 25.2474 405.602 24.8672V24.6875C405.602 24.3125 405.56 23.9583 405.477 23.625C405.398 23.2865 405.273 22.987 405.102 22.7266C404.935 22.4661 404.721 22.263 404.461 22.1172C404.206 21.9661 403.901 21.8906 403.547 21.8906C403.193 21.8906 402.885 21.9661 402.625 22.1172C402.37 22.263 402.159 22.4661 401.992 22.7266C401.826 22.987 401.703 23.2865 401.625 23.625C401.547 23.9583 401.508 24.3125 401.508 24.6875ZM410.031 20.5469H411.914L411.82 23.5234C411.794 24.388 411.695 25.1302 411.523 25.75C411.352 26.3698 411.128 26.8932 410.852 27.3203C410.576 27.7422 410.263 28.0885 409.914 28.3594C409.57 28.6302 409.208 28.8438 408.828 29H408.273V27.5156L408.539 27.5C408.763 27.2604 408.956 27.0208 409.117 26.7812C409.284 26.5365 409.424 26.2682 409.539 25.9766C409.654 25.6797 409.742 25.3333 409.805 24.9375C409.872 24.5417 409.917 24.0703 409.938 23.5234L410.031 20.5469ZM410.531 20.5469H415.891V29H414.016V22.1406H410.531V20.5469ZM407.844 27.5H417.047V31.5156H415.164V29H409.75V31.5156H407.836L407.844 27.5ZM421.195 25.5859L417.82 20.5469H420.133L422.102 23.875H423.75L423.508 25.5859H421.195ZM422.148 25.3125L419.984 29H417.672L420.734 24.2422L422.148 25.3125ZM424.883 20.5469V29H423.008V20.5469H424.883ZM430.094 20.5469L426.719 25.5859H424.398L424.148 23.875H425.805L427.773 20.5469H430.094ZM427.922 29L425.75 25.3125L427.211 24.2422L430.258 29H427.922ZM435.023 29.1562C434.398 29.1562 433.833 29.0547 433.328 28.8516C432.828 28.6432 432.401 28.3542 432.047 27.9844C431.698 27.6146 431.43 27.1797 431.242 26.6797C431.055 26.1797 430.961 25.6406 430.961 25.0625V24.75C430.961 24.0885 431.057 23.4896 431.25 22.9531C431.443 22.4167 431.711 21.9583 432.055 21.5781C432.398 21.1927 432.805 20.8984 433.273 20.6953C433.742 20.4922 434.25 20.3906 434.797 20.3906C435.401 20.3906 435.93 20.4922 436.383 20.6953C436.836 20.8984 437.211 21.1849 437.508 21.5547C437.81 21.9193 438.034 22.3542 438.18 22.8594C438.331 23.3646 438.406 23.9219 438.406 24.5312V25.3359H431.875V23.9844H436.547V23.8359C436.536 23.4974 436.469 23.1797 436.344 22.8828C436.224 22.5859 436.039 22.3464 435.789 22.1641C435.539 21.9818 435.206 21.8906 434.789 21.8906C434.477 21.8906 434.198 21.9583 433.953 22.0938C433.714 22.224 433.513 22.4141 433.352 22.6641C433.19 22.9141 433.065 23.2161 432.977 23.5703C432.893 23.9193 432.852 24.3125 432.852 24.75V25.0625C432.852 25.4323 432.901 25.776 433 26.0938C433.104 26.4062 433.255 26.6797 433.453 26.9141C433.651 27.1484 433.891 27.3333 434.172 27.4688C434.453 27.599 434.773 27.6641 435.133 27.6641C435.586 27.6641 435.99 27.5729 436.344 27.3906C436.698 27.2083 437.005 26.9505 437.266 26.6172L438.258 27.5781C438.076 27.8438 437.839 28.099 437.547 28.3438C437.255 28.5833 436.898 28.7786 436.477 28.9297C436.06 29.0807 435.576 29.1562 435.023 29.1562ZM445.648 24.0781V25.5625H441.273V24.0781H445.648ZM441.82 20.5469V29H439.938V20.5469H441.82ZM447.008 20.5469V29H445.125V20.5469H447.008ZM454.789 24.0781V25.5625H450.414V24.0781H454.789ZM450.961 20.5469V29H449.078V20.5469H450.961ZM456.148 20.5469V29H454.266V20.5469H456.148ZM459.938 24.8672H461.891L459.492 29H457.547L459.938 24.8672ZM461.312 20.5469H464.938V29H463.062V22.0312H461.312C460.958 22.0312 460.667 22.0938 460.438 22.2188C460.208 22.3385 460.039 22.4974 459.93 22.6953C459.82 22.888 459.766 23.0859 459.766 23.2891C459.766 23.4922 459.815 23.6875 459.914 23.875C460.018 24.0625 460.177 24.2161 460.391 24.3359C460.609 24.4557 460.883 24.5156 461.211 24.5156H463.695V25.8906H461.211C460.69 25.8906 460.224 25.8255 459.812 25.6953C459.401 25.5599 459.052 25.375 458.766 25.1406C458.479 24.901 458.26 24.6224 458.109 24.3047C457.958 23.9818 457.883 23.6302 457.883 23.25C457.883 22.8594 457.961 22.5 458.117 22.1719C458.273 21.8438 458.497 21.5573 458.789 21.3125C459.086 21.0677 459.445 20.8802 459.867 20.75C460.294 20.6146 460.776 20.5469 461.312 20.5469ZM474.938 20.5469V29H473.047V20.5469H474.938ZM477.711 20.5469V22.0312H470.32V20.5469H477.711ZM483.609 27.3047V23.2734C483.609 22.9714 483.555 22.7109 483.445 22.4922C483.336 22.2734 483.169 22.1042 482.945 21.9844C482.727 21.8646 482.451 21.8047 482.117 21.8047C481.81 21.8047 481.544 21.8568 481.32 21.9609C481.096 22.0651 480.922 22.2057 480.797 22.3828C480.672 22.5599 480.609 22.7604 480.609 22.9844H478.734C478.734 22.651 478.815 22.3281 478.977 22.0156C479.138 21.7031 479.372 21.4245 479.68 21.1797C479.987 20.9349 480.354 20.7422 480.781 20.6016C481.208 20.4609 481.688 20.3906 482.219 20.3906C482.854 20.3906 483.417 20.4974 483.906 20.7109C484.401 20.9245 484.789 21.2474 485.07 21.6797C485.357 22.1068 485.5 22.6432 485.5 23.2891V27.0469C485.5 27.4323 485.526 27.7786 485.578 28.0859C485.635 28.388 485.716 28.651 485.82 28.875V29H483.891C483.802 28.7969 483.732 28.5391 483.68 28.2266C483.633 27.9089 483.609 27.6016 483.609 27.3047ZM483.883 23.8594L483.898 25.0234H482.547C482.198 25.0234 481.891 25.0573 481.625 25.125C481.359 25.1875 481.138 25.2812 480.961 25.4062C480.784 25.5312 480.651 25.6823 480.562 25.8594C480.474 26.0365 480.43 26.237 480.43 26.4609C480.43 26.6849 480.482 26.8906 480.586 27.0781C480.69 27.2604 480.841 27.4036 481.039 27.5078C481.242 27.612 481.487 27.6641 481.773 27.6641C482.159 27.6641 482.495 27.5859 482.781 27.4297C483.073 27.2682 483.302 27.0729 483.469 26.8438C483.635 26.6094 483.724 26.388 483.734 26.1797L484.344 27.0156C484.281 27.2292 484.174 27.4583 484.023 27.7031C483.872 27.9479 483.674 28.1823 483.43 28.4062C483.19 28.625 482.901 28.8047 482.562 28.9453C482.229 29.0859 481.844 29.1562 481.406 29.1562C480.854 29.1562 480.362 29.0469 479.93 28.8281C479.497 28.6042 479.159 28.3047 478.914 27.9297C478.669 27.5495 478.547 27.1198 478.547 26.6406C478.547 26.1927 478.63 25.7969 478.797 25.4531C478.969 25.1042 479.219 24.8125 479.547 24.5781C479.88 24.3438 480.286 24.1667 480.766 24.0469C481.245 23.9219 481.792 23.8594 482.406 23.8594H483.883ZM492.984 20.5469H494.867L494.773 23.5234C494.747 24.388 494.648 25.1302 494.477 25.75C494.305 26.3698 494.081 26.8932 493.805 27.3203C493.529 27.7422 493.216 28.0885 492.867 28.3594C492.523 28.6302 492.161 28.8438 491.781 29H491.227V27.5156L491.492 27.5C491.716 27.2604 491.909 27.0208 492.07 26.7812C492.237 26.5365 492.378 26.2682 492.492 25.9766C492.607 25.6797 492.695 25.3333 492.758 24.9375C492.826 24.5417 492.87 24.0703 492.891 23.5234L492.984 20.5469ZM493.484 20.5469H498.844V29H496.969V22.1406H493.484V20.5469ZM490.797 27.5H500V31.5156H498.117V29H492.703V31.5156H490.789L490.797 27.5ZM500.984 24.8672V24.6875C500.984 24.0781 501.073 23.513 501.25 22.9922C501.427 22.4661 501.682 22.0104 502.016 21.625C502.354 21.2344 502.766 20.9323 503.25 20.7188C503.74 20.5 504.292 20.3906 504.906 20.3906C505.526 20.3906 506.078 20.5 506.562 20.7188C507.052 20.9323 507.466 21.2344 507.805 21.625C508.143 22.0104 508.401 22.4661 508.578 22.9922C508.755 23.513 508.844 24.0781 508.844 24.6875V24.8672C508.844 25.4766 508.755 26.0417 508.578 26.5625C508.401 27.0833 508.143 27.5391 507.805 27.9297C507.466 28.3151 507.055 28.6172 506.57 28.8359C506.086 29.0495 505.536 29.1562 504.922 29.1562C504.302 29.1562 503.747 29.0495 503.258 28.8359C502.773 28.6172 502.362 28.3151 502.023 27.9297C501.685 27.5391 501.427 27.0833 501.25 26.5625C501.073 26.0417 500.984 25.4766 500.984 24.8672ZM502.867 24.6875V24.8672C502.867 25.2474 502.906 25.6068 502.984 25.9453C503.062 26.2839 503.185 26.5807 503.352 26.8359C503.518 27.0911 503.732 27.2917 503.992 27.4375C504.253 27.5833 504.562 27.6562 504.922 27.6562C505.271 27.6562 505.573 27.5833 505.828 27.4375C506.089 27.2917 506.302 27.0911 506.469 26.8359C506.635 26.5807 506.758 26.2839 506.836 25.9453C506.919 25.6068 506.961 25.2474 506.961 24.8672V24.6875C506.961 24.3125 506.919 23.9583 506.836 23.625C506.758 23.2865 506.633 22.987 506.461 22.7266C506.294 22.4661 506.081 22.263 505.82 22.1172C505.565 21.9661 505.26 21.8906 504.906 21.8906C504.552 21.8906 504.245 21.9661 503.984 22.1172C503.729 22.263 503.518 22.4661 503.352 22.7266C503.185 22.987 503.062 23.2865 502.984 23.625C502.906 23.9583 502.867 24.3125 502.867 24.6875ZM516.047 20.5469V22.0469H512.359V29H510.477V20.5469H516.047ZM516.625 24.8672V24.6875C516.625 24.0781 516.714 23.513 516.891 22.9922C517.068 22.4661 517.323 22.0104 517.656 21.625C517.995 21.2344 518.406 20.9323 518.891 20.7188C519.38 20.5 519.932 20.3906 520.547 20.3906C521.167 20.3906 521.719 20.5 522.203 20.7188C522.693 20.9323 523.107 21.2344 523.445 21.625C523.784 22.0104 524.042 22.4661 524.219 22.9922C524.396 23.513 524.484 24.0781 524.484 24.6875V24.8672C524.484 25.4766 524.396 26.0417 524.219 26.5625C524.042 27.0833 523.784 27.5391 523.445 27.9297C523.107 28.3151 522.695 28.6172 522.211 28.8359C521.727 29.0495 521.177 29.1562 520.562 29.1562C519.943 29.1562 519.388 29.0495 518.898 28.8359C518.414 28.6172 518.003 28.3151 517.664 27.9297C517.326 27.5391 517.068 27.0833 516.891 26.5625C516.714 26.0417 516.625 25.4766 516.625 24.8672ZM518.508 24.6875V24.8672C518.508 25.2474 518.547 25.6068 518.625 25.9453C518.703 26.2839 518.826 26.5807 518.992 26.8359C519.159 27.0911 519.372 27.2917 519.633 27.4375C519.893 27.5833 520.203 27.6562 520.562 27.6562C520.911 27.6562 521.214 27.5833 521.469 27.4375C521.729 27.2917 521.943 27.0911 522.109 26.8359C522.276 26.5807 522.398 26.2839 522.477 25.9453C522.56 25.6068 522.602 25.2474 522.602 24.8672V24.6875C522.602 24.3125 522.56 23.9583 522.477 23.625C522.398 23.2865 522.273 22.987 522.102 22.7266C521.935 22.4661 521.721 22.263 521.461 22.1172C521.206 21.9661 520.901 21.8906 520.547 21.8906C520.193 21.8906 519.885 21.9661 519.625 22.1172C519.37 22.263 519.159 22.4661 518.992 22.7266C518.826 22.987 518.703 23.2865 518.625 23.625C518.547 23.9583 518.508 24.3125 518.508 24.6875ZM530.172 25.3828H527.469L527.453 24.0547H529.672C530.036 24.0547 530.336 24.0182 530.57 23.9453C530.81 23.8724 530.987 23.763 531.102 23.6172C531.216 23.4661 531.273 23.2839 531.273 23.0703C531.273 22.8932 531.24 22.7396 531.172 22.6094C531.104 22.474 531 22.3646 530.859 22.2812C530.724 22.1927 530.552 22.1302 530.344 22.0938C530.141 22.0521 529.904 22.0312 529.633 22.0312H528.094V29H526.211V20.5469H529.633C530.174 20.5469 530.661 20.5938 531.094 20.6875C531.531 20.7812 531.904 20.9245 532.211 21.1172C532.518 21.3099 532.753 21.5547 532.914 21.8516C533.081 22.1432 533.164 22.487 533.164 22.8828C533.164 23.1432 533.107 23.388 532.992 23.6172C532.883 23.8464 532.719 24.0495 532.5 24.2266C532.281 24.4036 532.013 24.5495 531.695 24.6641C531.378 24.7734 531.013 24.8411 530.602 24.8672L530.172 25.3828ZM530.172 29H526.922L527.672 27.5156H530.172C530.505 27.5156 530.781 27.474 531 27.3906C531.219 27.3073 531.38 27.1875 531.484 27.0312C531.594 26.8698 531.648 26.6797 531.648 26.4609C531.648 26.237 531.596 26.0443 531.492 25.8828C531.388 25.7214 531.227 25.599 531.008 25.5156C530.794 25.4271 530.516 25.3828 530.172 25.3828H528.023L528.039 24.0547H530.594L531.133 24.5703C531.669 24.6068 532.115 24.7214 532.469 24.9141C532.823 25.1068 533.089 25.349 533.266 25.6406C533.443 25.9323 533.531 26.25 533.531 26.5938C533.531 26.9896 533.456 27.3385 533.305 27.6406C533.159 27.9427 532.94 28.1953 532.648 28.3984C532.362 28.5964 532.01 28.7474 531.594 28.8516C531.177 28.9505 530.703 29 530.172 29ZM537.172 20.5469V29H535.281V20.5469H537.172ZM535.156 18.3281C535.156 18.0417 535.25 17.8047 535.438 17.6172C535.63 17.4245 535.896 17.3281 536.234 17.3281C536.568 17.3281 536.831 17.4245 537.023 17.6172C537.216 17.8047 537.312 18.0417 537.312 18.3281C537.312 18.6094 537.216 18.8438 537.023 19.0312C536.831 19.2188 536.568 19.3125 536.234 19.3125C535.896 19.3125 535.63 19.2188 535.438 19.0312C535.25 18.8438 535.156 18.6094 535.156 18.3281ZM541.125 22.1719V32.25H539.242V20.5469H540.977L541.125 22.1719ZM546.633 24.6953V24.8594C546.633 25.474 546.56 26.0443 546.414 26.5703C546.273 27.0911 546.062 27.5469 545.781 27.9375C545.505 28.3229 545.164 28.6224 544.758 28.8359C544.352 29.0495 543.883 29.1562 543.352 29.1562C542.826 29.1562 542.365 29.0599 541.969 28.8672C541.578 28.6693 541.247 28.3906 540.977 28.0312C540.706 27.6719 540.487 27.25 540.32 26.7656C540.159 26.276 540.044 25.7396 539.977 25.1562V24.5234C540.044 23.9036 540.159 23.3411 540.32 22.8359C540.487 22.3307 540.706 21.8958 540.977 21.5312C541.247 21.1667 541.578 20.8854 541.969 20.6875C542.359 20.4896 542.815 20.3906 543.336 20.3906C543.867 20.3906 544.339 20.4948 544.75 20.7031C545.161 20.9062 545.508 21.1979 545.789 21.5781C546.07 21.9531 546.281 22.4062 546.422 22.9375C546.562 23.4635 546.633 24.0495 546.633 24.6953ZM544.75 24.8594V24.6953C544.75 24.3047 544.714 23.9427 544.641 23.6094C544.568 23.2708 544.453 22.974 544.297 22.7188C544.141 22.4635 543.94 22.2656 543.695 22.125C543.456 21.9792 543.167 21.9062 542.828 21.9062C542.495 21.9062 542.208 21.9635 541.969 22.0781C541.729 22.1875 541.529 22.3411 541.367 22.5391C541.206 22.737 541.081 22.9688 540.992 23.2344C540.904 23.4948 540.841 23.7786 540.805 24.0859V25.6016C540.867 25.9766 540.974 26.3203 541.125 26.6328C541.276 26.9453 541.49 27.1953 541.766 27.3828C542.047 27.5651 542.406 27.6562 542.844 27.6562C543.182 27.6562 543.471 27.5833 543.711 27.4375C543.951 27.2917 544.146 27.0911 544.297 26.8359C544.453 26.5755 544.568 26.276 544.641 25.9375C544.714 25.599 544.75 25.2396 544.75 24.8594Z" fill="white"/>
<rect x="2" width="220" height="47" rx="20" fill="#32D16D"/>
<path d="M90.0547 23.5469H88.4766V22.4297H89.8359C90.3203 22.4297 90.7135 22.3594 91.0156 22.2188C91.3177 22.0729 91.5365 21.8724 91.6719 21.6172C91.8125 21.3568 91.8828 21.0547 91.8828 20.7109C91.8828 20.4036 91.8047 20.1224 91.6484 19.8672C91.4974 19.612 91.263 19.4089 90.9453 19.2578C90.6276 19.1016 90.2188 19.0234 89.7188 19.0234C89.3438 19.0234 89.0026 19.0911 88.6953 19.2266C88.388 19.362 88.1432 19.5521 87.9609 19.7969C87.7839 20.0417 87.6953 20.3307 87.6953 20.6641H85.7344C85.7344 20.1693 85.8385 19.7266 86.0469 19.3359C86.2604 18.9401 86.5495 18.6042 86.9141 18.3281C87.2839 18.0521 87.7083 17.8411 88.1875 17.6953C88.6719 17.5443 89.1823 17.4688 89.7188 17.4688C90.3438 17.4688 90.9089 17.5391 91.4141 17.6797C91.9193 17.8151 92.3542 18.0182 92.7188 18.2891C93.0833 18.5599 93.362 18.8984 93.5547 19.3047C93.7474 19.7057 93.8438 20.1719 93.8438 20.7031C93.8438 21.0938 93.7526 21.4609 93.5703 21.8047C93.3932 22.1484 93.138 22.4505 92.8047 22.7109C92.4714 22.9714 92.0703 23.1771 91.6016 23.3281C91.138 23.474 90.6224 23.5469 90.0547 23.5469ZM88.4766 22.8672H90.0547C90.6849 22.8672 91.2448 22.9323 91.7344 23.0625C92.224 23.1927 92.638 23.3828 92.9766 23.6328C93.3151 23.8828 93.5729 24.1927 93.75 24.5625C93.9271 24.9271 94.0156 25.3464 94.0156 25.8203C94.0156 26.3516 93.9089 26.8255 93.6953 27.2422C93.487 27.6536 93.1901 28.0026 92.8047 28.2891C92.4193 28.5755 91.9635 28.7917 91.4375 28.9375C90.9167 29.0833 90.3438 29.1562 89.7188 29.1562C89.2135 29.1562 88.7135 29.0938 88.2188 28.9688C87.7292 28.8385 87.2839 28.6406 86.8828 28.375C86.487 28.1042 86.1693 27.7604 85.9297 27.3438C85.6901 26.9271 85.5703 26.4271 85.5703 25.8438H87.5391C87.5391 26.1667 87.6302 26.4635 87.8125 26.7344C88 27 88.2552 27.2135 88.5781 27.375C88.9062 27.5312 89.2865 27.6094 89.7188 27.6094C90.2135 27.6094 90.6328 27.5312 90.9766 27.375C91.3255 27.2188 91.5911 27.0052 91.7734 26.7344C91.9609 26.4635 92.0547 26.1589 92.0547 25.8203C92.0547 25.4974 92.0052 25.2188 91.9062 24.9844C91.8125 24.7448 91.6719 24.5521 91.4844 24.4062C91.2969 24.2552 91.0651 24.1432 90.7891 24.0703C90.513 23.9974 90.1953 23.9609 89.8359 23.9609H88.4766V22.8672ZM100.453 27.3047V23.2734C100.453 22.9714 100.398 22.7109 100.289 22.4922C100.18 22.2734 100.013 22.1042 99.7891 21.9844C99.5703 21.8646 99.2943 21.8047 98.9609 21.8047C98.6536 21.8047 98.388 21.8568 98.1641 21.9609C97.9401 22.0651 97.7656 22.2057 97.6406 22.3828C97.5156 22.5599 97.4531 22.7604 97.4531 22.9844H95.5781C95.5781 22.651 95.6589 22.3281 95.8203 22.0156C95.9818 21.7031 96.2161 21.4245 96.5234 21.1797C96.8307 20.9349 97.1979 20.7422 97.625 20.6016C98.0521 20.4609 98.5312 20.3906 99.0625 20.3906C99.6979 20.3906 100.26 20.4974 100.75 20.7109C101.245 20.9245 101.633 21.2474 101.914 21.6797C102.201 22.1068 102.344 22.6432 102.344 23.2891V27.0469C102.344 27.4323 102.37 27.7786 102.422 28.0859C102.479 28.388 102.56 28.651 102.664 28.875V29H100.734C100.646 28.7969 100.576 28.5391 100.523 28.2266C100.477 27.9089 100.453 27.6016 100.453 27.3047ZM100.727 23.8594L100.742 25.0234H99.3906C99.0417 25.0234 98.7344 25.0573 98.4688 25.125C98.2031 25.1875 97.9818 25.2812 97.8047 25.4062C97.6276 25.5312 97.4948 25.6823 97.4062 25.8594C97.3177 26.0365 97.2734 26.237 97.2734 26.4609C97.2734 26.6849 97.3255 26.8906 97.4297 27.0781C97.5339 27.2604 97.6849 27.4036 97.8828 27.5078C98.0859 27.612 98.3307 27.6641 98.6172 27.6641C99.0026 27.6641 99.3385 27.5859 99.625 27.4297C99.9167 27.2682 100.146 27.0729 100.312 26.8438C100.479 26.6094 100.568 26.388 100.578 26.1797L101.188 27.0156C101.125 27.2292 101.018 27.4583 100.867 27.7031C100.716 27.9479 100.518 28.1823 100.273 28.4062C100.034 28.625 99.7448 28.8047 99.4062 28.9453C99.0729 29.0859 98.6875 29.1562 98.25 29.1562C97.6979 29.1562 97.2057 29.0469 96.7734 28.8281C96.3411 28.6042 96.0026 28.3047 95.7578 27.9297C95.513 27.5495 95.3906 27.1198 95.3906 26.6406C95.3906 26.1927 95.474 25.7969 95.6406 25.4531C95.8125 25.1042 96.0625 24.8125 96.3906 24.5781C96.724 24.3438 97.1302 24.1667 97.6094 24.0469C98.0885 23.9219 98.6354 23.8594 99.25 23.8594H100.727ZM106.094 24.8672H108.047L105.648 29H103.703L106.094 24.8672ZM107.469 20.5469H111.094V29H109.219V22.0312H107.469C107.115 22.0312 106.823 22.0938 106.594 22.2188C106.365 22.3385 106.195 22.4974 106.086 22.6953C105.977 22.888 105.922 23.0859 105.922 23.2891C105.922 23.4922 105.971 23.6875 106.07 23.875C106.174 24.0625 106.333 24.2161 106.547 24.3359C106.766 24.4557 107.039 24.5156 107.367 24.5156H109.852V25.8906H107.367C106.846 25.8906 106.38 25.8255 105.969 25.6953C105.557 25.5599 105.208 25.375 104.922 25.1406C104.635 24.901 104.417 24.6224 104.266 24.3047C104.115 23.9818 104.039 23.6302 104.039 23.25C104.039 22.8594 104.117 22.5 104.273 22.1719C104.43 21.8438 104.654 21.5573 104.945 21.3125C105.242 21.0677 105.602 20.8802 106.023 20.75C106.451 20.6146 106.932 20.5469 107.469 20.5469ZM117.297 25.3828H114.594L114.578 24.0547H116.797C117.161 24.0547 117.461 24.0182 117.695 23.9453C117.935 23.8724 118.112 23.763 118.227 23.6172C118.341 23.4661 118.398 23.2839 118.398 23.0703C118.398 22.8932 118.365 22.7396 118.297 22.6094C118.229 22.474 118.125 22.3646 117.984 22.2812C117.849 22.1927 117.677 22.1302 117.469 22.0938C117.266 22.0521 117.029 22.0312 116.758 22.0312H115.219V29H113.336V20.5469H116.758C117.299 20.5469 117.786 20.5938 118.219 20.6875C118.656 20.7812 119.029 20.9245 119.336 21.1172C119.643 21.3099 119.878 21.5547 120.039 21.8516C120.206 22.1432 120.289 22.487 120.289 22.8828C120.289 23.1432 120.232 23.388 120.117 23.6172C120.008 23.8464 119.844 24.0495 119.625 24.2266C119.406 24.4036 119.138 24.5495 118.82 24.6641C118.503 24.7734 118.138 24.8411 117.727 24.8672L117.297 25.3828ZM117.297 29H114.047L114.797 27.5156H117.297C117.63 27.5156 117.906 27.474 118.125 27.3906C118.344 27.3073 118.505 27.1875 118.609 27.0312C118.719 26.8698 118.773 26.6797 118.773 26.4609C118.773 26.237 118.721 26.0443 118.617 25.8828C118.513 25.7214 118.352 25.599 118.133 25.5156C117.919 25.4271 117.641 25.3828 117.297 25.3828H115.148L115.164 24.0547H117.719L118.258 24.5703C118.794 24.6068 119.24 24.7214 119.594 24.9141C119.948 25.1068 120.214 25.349 120.391 25.6406C120.568 25.9323 120.656 26.25 120.656 26.5938C120.656 26.9896 120.581 27.3385 120.43 27.6406C120.284 27.9427 120.065 28.1953 119.773 28.3984C119.487 28.5964 119.135 28.7474 118.719 28.8516C118.302 28.9505 117.828 29 117.297 29ZM124.312 20.5469V29H122.43V20.5469H124.312ZM129.828 20.5469L126.023 25.6328H123.875L123.625 23.9297H125.195L127.477 20.5469H129.828ZM127.625 29L125.078 25.3125L126.562 24.2422L130.102 29H127.625ZM135.891 27.3047V23.2734C135.891 22.9714 135.836 22.7109 135.727 22.4922C135.617 22.2734 135.451 22.1042 135.227 21.9844C135.008 21.8646 134.732 21.8047 134.398 21.8047C134.091 21.8047 133.826 21.8568 133.602 21.9609C133.378 22.0651 133.203 22.2057 133.078 22.3828C132.953 22.5599 132.891 22.7604 132.891 22.9844H131.016C131.016 22.651 131.096 22.3281 131.258 22.0156C131.419 21.7031 131.654 21.4245 131.961 21.1797C132.268 20.9349 132.635 20.7422 133.062 20.6016C133.49 20.4609 133.969 20.3906 134.5 20.3906C135.135 20.3906 135.698 20.4974 136.188 20.7109C136.682 20.9245 137.07 21.2474 137.352 21.6797C137.638 22.1068 137.781 22.6432 137.781 23.2891V27.0469C137.781 27.4323 137.807 27.7786 137.859 28.0859C137.917 28.388 137.997 28.651 138.102 28.875V29H136.172C136.083 28.7969 136.013 28.5391 135.961 28.2266C135.914 27.9089 135.891 27.6016 135.891 27.3047ZM136.164 23.8594L136.18 25.0234H134.828C134.479 25.0234 134.172 25.0573 133.906 25.125C133.641 25.1875 133.419 25.2812 133.242 25.4062C133.065 25.5312 132.932 25.6823 132.844 25.8594C132.755 26.0365 132.711 26.237 132.711 26.4609C132.711 26.6849 132.763 26.8906 132.867 27.0781C132.971 27.2604 133.122 27.4036 133.32 27.5078C133.523 27.612 133.768 27.6641 134.055 27.6641C134.44 27.6641 134.776 27.5859 135.062 27.4297C135.354 27.2682 135.583 27.0729 135.75 26.8438C135.917 26.6094 136.005 26.388 136.016 26.1797L136.625 27.0156C136.562 27.2292 136.456 27.4583 136.305 27.7031C136.154 27.9479 135.956 28.1823 135.711 28.4062C135.471 28.625 135.182 28.8047 134.844 28.9453C134.51 29.0859 134.125 29.1562 133.688 29.1562C133.135 29.1562 132.643 29.0469 132.211 28.8281C131.779 28.6042 131.44 28.3047 131.195 27.9297C130.951 27.5495 130.828 27.1198 130.828 26.6406C130.828 26.1927 130.911 25.7969 131.078 25.4531C131.25 25.1042 131.5 24.8125 131.828 24.5781C132.161 24.3438 132.568 24.1667 133.047 24.0469C133.526 23.9219 134.073 23.8594 134.688 23.8594H136.164Z" fill="#0E0E0E"/>
<path d="M238 24L335 24" stroke="#32D16D" stroke-opacity="0.1" stroke-width="4" stroke-linecap="round"/>
<path d="M587 24L656 24C680.301 24 700 43.6995 700 68V68C700 92.3005 680.301 112 656 112L481 112" stroke="#353535" stroke-width="4" stroke-linecap="round"/>
<path d="M225 112H46C21.6995 112 2 131.699 2 156V156C2 180.301 21.6995 200 46 200H96" stroke="#353535" stroke-width="4" stroke-linecap="round"/>
<path d="M348 200H445" stroke="#353535" stroke-width="4" stroke-linecap="round"/>
<circle cx="301" cy="24" r="8" fill="#32D16D"/>
</svg>
