<svg width="48" height="48" viewBox="0 0 48 48" fill="none" xmlns="http://www.w3.org/2000/svg">
<g clip-path="url(#clip0_2485_14007)">
<rect width="48" height="48" rx="8" fill="#222222"/>
<path d="M23.9139 11.9395L23.8779 11.9021L23.8419 11.9395C22.7344 13.0897 21.7283 14.3333 20.8346 15.6564C19.7753 17.0582 19.1265 18.7269 18.9609 20.4761L18.9607 20.4761V20.4808C18.9607 21.785 19.4787 23.0357 20.4009 23.9578C21.3231 24.88 22.5738 25.3981 23.8779 25.3981C25.182 25.3981 26.4327 24.88 27.3549 23.9578C28.2771 23.0357 28.7951 21.785 28.7951 20.4808H28.7953L28.7949 20.4761C28.6293 18.7269 27.9805 17.0582 26.9212 15.6564C26.0275 14.3332 25.0214 13.0897 23.9139 11.9395ZM19.5538 14.8139L19.5538 14.8139L19.555 14.8122C20.6649 13.1716 21.9366 11.6466 23.3509 10.2599C23.4933 10.1251 23.6819 10.05 23.8779 10.05C24.0739 10.05 24.2625 10.1251 24.4049 10.2599C25.8192 11.6466 27.0909 13.1716 28.2008 14.8122L28.2008 14.8122L28.202 14.8139C29.4233 16.4695 30.1594 18.4325 30.3279 20.4829C30.3276 21.3292 30.1608 22.1672 29.8369 22.9491C29.5128 23.7317 29.0377 24.4427 28.4387 25.0417C27.8398 25.6406 27.1287 26.1157 26.3462 26.4398C25.5637 26.764 24.7249 26.9308 23.8779 26.9308C23.0309 26.9308 22.1922 26.764 21.4096 26.4398C20.6271 26.1157 19.916 25.6406 19.3171 25.0417C18.7181 24.4427 18.243 23.7317 17.9189 22.9491C17.595 22.1672 17.4282 21.3292 17.4279 20.4829C17.5964 18.4325 18.3325 16.4695 19.5538 14.8139Z" fill="white" stroke="#222222" stroke-width="0.1"/>
<path d="M20.1686 21.2218C20.1344 21.1201 20.1206 21.0128 20.1279 20.9058C20.1352 20.7988 20.1635 20.6943 20.2111 20.5982C20.2588 20.5022 20.325 20.4165 20.4058 20.346C20.4866 20.2755 20.5805 20.2216 20.6821 20.1874C20.7837 20.1532 20.8911 20.1394 20.9981 20.1467C21.1051 20.154 21.2096 20.1823 21.3056 20.2299C21.4017 20.2776 21.4874 20.3438 21.5579 20.4246C21.6284 20.5054 21.6823 20.5993 21.7165 20.7009C21.8772 21.1773 22.1536 21.6064 22.5209 21.9498C22.8882 22.2931 23.3349 22.54 23.8211 22.6684C23.9266 22.6939 24.026 22.7402 24.1134 22.8045C24.2009 22.8689 24.2746 22.9501 24.3303 23.0433C24.3859 23.1365 24.4225 23.2399 24.4377 23.3474C24.4529 23.4549 24.4466 23.5643 24.419 23.6693C24.3914 23.7743 24.3432 23.8728 24.2771 23.9589C24.211 24.0451 24.1284 24.1172 24.0341 24.171C23.9398 24.2248 23.8357 24.2592 23.7279 24.2723C23.6201 24.2854 23.5108 24.2769 23.4064 24.2472L20.1686 21.2218ZM20.1686 21.2218L20.216 21.2058C20.1839 21.1104 20.1709 21.0096 20.1778 20.9092C20.1846 20.8087 20.2112 20.7106 20.2559 20.6205C20.3007 20.5303 20.3628 20.4498 20.4386 20.3837C20.5145 20.3175 20.6027 20.2669 20.6981 20.2348C20.7935 20.2027 20.8943 20.1897 20.9947 20.1966C21.0951 20.2034 21.1932 20.23 21.2834 20.2747C21.3736 20.3195 21.454 20.3816 21.5202 20.4574C21.5864 20.5333 21.637 20.6215 21.6691 20.7169L21.6691 20.7169C21.8325 21.2011 22.1134 21.6373 22.4868 21.9863C22.8601 22.3353 23.3142 22.5863 23.8083 22.7167L23.8083 22.7167L23.8093 22.717C23.9084 22.7409 24.0017 22.7844 24.0838 22.8448C24.1659 22.9052 24.2351 22.9814 24.2873 23.0689C24.3396 23.1564 24.3739 23.2535 24.3882 23.3544C24.4025 23.4553 24.3965 23.5581 24.3706 23.6566C24.3447 23.7552 24.2994 23.8476 24.2374 23.9285C24.1754 24.0094 24.0978 24.077 24.0093 24.1275C23.9207 24.1781 23.823 24.2104 23.7219 24.2227C23.6207 24.235 23.5181 24.227 23.42 24.1991L23.42 24.1991L23.4191 24.1989C22.6795 24.0035 21.9998 23.6278 21.4408 23.1055C20.8818 22.5832 20.461 21.9305 20.216 21.2057L20.1686 21.2218Z" fill="white" stroke="#222222" stroke-width="0.1"/>
<path d="M12.5833 31.759L12.5832 31.7589L12.5805 31.7611C12.0792 32.1763 11.4629 32.4281 10.8143 32.4827C10.6118 32.4822 10.4177 32.4015 10.2745 32.2582C10.1307 32.1145 10.05 31.9196 10.05 31.7163C10.05 31.5131 10.1307 31.3182 10.2745 31.1744C10.4182 31.0307 10.6131 30.95 10.8164 30.95V30.9503L10.8223 30.9496C11.0327 30.9243 11.232 30.8417 11.3985 30.7108C11.6057 30.5839 11.8146 30.4258 12.0217 30.269C12.1305 30.1867 12.2388 30.1047 12.346 30.0279L12.3461 30.028L12.3488 30.0258C12.8494 29.6109 13.465 29.3592 14.1129 29.3043C14.7607 29.3592 15.3763 29.6109 15.877 30.0258L15.8769 30.0258L15.8798 30.0279C15.9877 30.1052 16.0964 30.187 16.2055 30.2692C16.4117 30.4245 16.6195 30.581 16.8271 30.7107C16.9937 30.8417 17.193 30.9243 17.4034 30.9496L17.4033 30.9511L17.4155 30.9496C17.6257 30.924 17.8248 30.8414 17.9915 30.7109C18.2012 30.5824 18.4125 30.4221 18.6215 30.2636C18.7276 30.1831 18.8331 30.103 18.9375 30.0278L18.9376 30.0279L18.9402 30.0258C19.441 29.6112 20.0565 29.3595 20.7043 29.3043C21.3521 29.3593 21.9677 29.611 22.4684 30.0258L22.4684 30.0258L22.4711 30.0278C22.5747 30.1024 22.6792 30.1811 22.7843 30.2603C22.9936 30.4179 23.2051 30.5772 23.416 30.7091C23.4922 30.7848 23.5823 30.8449 23.6814 30.8862C23.7824 30.9282 23.8907 30.9498 24 30.9498C24.1093 30.9498 24.2176 30.9282 24.3186 30.8862C24.4176 30.8449 24.5077 30.7849 24.5838 30.7093C24.795 30.5804 25.007 30.4196 25.2165 30.2608C25.3214 30.1812 25.4257 30.1021 25.5289 30.0278L25.529 30.0279L25.5316 30.0258C26.0323 29.6109 26.6479 29.3592 27.2957 29.3043C27.9435 29.3595 28.559 29.6112 29.0598 30.0258L29.0598 30.0259L29.0625 30.0278C29.1675 30.1034 29.2734 30.1833 29.3799 30.2635C29.5876 30.42 29.7974 30.5781 30.0057 30.7091C30.0821 30.7848 30.1724 30.845 30.2716 30.8863C30.3727 30.9283 30.4811 30.95 30.5906 30.95C30.7001 30.95 30.8085 30.9283 30.9095 30.8863C31.0087 30.845 31.099 30.7849 31.1752 30.7093C31.3816 30.5826 31.5897 30.4251 31.7959 30.269C31.9047 30.1867 32.013 30.1047 32.1202 30.0279L32.1203 30.028L32.123 30.0258C32.6237 29.6109 33.2393 29.3592 33.8871 29.3043C34.5349 29.3592 35.1506 29.6109 35.6512 30.0258L35.6511 30.0258L35.654 30.0279C35.7622 30.1054 35.8712 30.1874 35.9807 30.2697C36.1871 30.4248 36.395 30.5811 36.6013 30.7107C36.7678 30.8417 36.9672 30.9243 37.1777 30.9496L37.1776 30.95H37.1836C37.3869 30.95 37.5818 31.0307 37.7255 31.1744C37.8693 31.3182 37.95 31.5131 37.95 31.7163C37.95 31.9196 37.8693 32.1145 37.7255 32.2582C37.5823 32.4015 37.3882 32.4822 37.1857 32.4827C36.5371 32.4281 35.9208 32.1763 35.4195 31.7611L35.4196 31.761L35.4167 31.759C35.3086 31.6815 35.1995 31.5995 35.09 31.5172C34.8845 31.3627 34.6775 31.207 34.472 31.0778C34.3956 31.0021 34.3053 30.9419 34.206 30.9006C34.105 30.8585 33.9966 30.8369 33.8871 30.8369C33.7776 30.8369 33.6692 30.8585 33.5682 30.9006C33.469 30.9418 33.3787 31.0019 33.3025 31.0776C33.0961 31.2042 32.888 31.3617 32.6818 31.5178C32.573 31.6002 32.4647 31.6821 32.3575 31.759L32.3574 31.7589L32.3547 31.7611C31.854 32.1759 31.2384 32.4276 30.5906 32.4825C29.9428 32.4276 29.3272 32.1759 28.8265 31.7611L28.8265 31.761L28.8237 31.759C28.7158 31.6816 28.6071 31.5998 28.498 31.5177C28.2926 31.363 28.0857 31.2071 27.8789 31.0777C27.8026 31.002 27.7123 30.9419 27.613 30.9006C27.5119 30.8585 27.4035 30.8369 27.2941 30.8369C27.1846 30.8369 27.0762 30.8585 26.9751 30.9006C26.8759 30.9418 26.7857 31.0019 26.7094 31.0776C26.5006 31.2057 26.2901 31.3654 26.082 31.5233C25.9759 31.6038 25.8704 31.6839 25.766 31.759L25.7659 31.7589L25.7633 31.7611C25.2625 32.1757 24.647 32.4274 23.9992 32.4825C23.3514 32.4276 22.7358 32.1759 22.2351 31.7611L22.2351 31.761L22.2324 31.759C22.1288 31.6844 22.0243 31.6057 21.9192 31.5266C21.7091 31.3684 21.4967 31.2084 21.285 31.0762C21.119 30.9453 20.9202 30.8626 20.7103 30.8373L20.7105 30.8358L20.6984 30.8372C20.488 30.8623 20.2886 30.9449 20.1222 31.076C19.9102 31.2052 19.6973 31.3667 19.487 31.5261C19.3821 31.6056 19.2778 31.6847 19.1746 31.759L19.1745 31.7589L19.1719 31.7611C18.6712 32.1759 18.0556 32.4276 17.4078 32.4825C16.76 32.4274 16.1445 32.1757 15.6436 31.7611L15.6437 31.761L15.641 31.759C15.536 31.6834 15.4301 31.6036 15.3236 31.5234C15.115 31.3662 14.9044 31.2075 14.6952 31.0762C14.5287 30.9452 14.3293 30.8625 14.1189 30.8373L14.119 30.8358L14.1069 30.8373C13.8966 30.8625 13.6973 30.9451 13.5308 31.076C13.3236 31.2029 13.1146 31.3611 12.9075 31.5178C12.7988 31.6002 12.6905 31.6821 12.5833 31.759Z" fill="white" stroke="#222222" stroke-width="0.1"/>
<path d="M12.5833 36.7074L12.5832 36.7073L12.5805 36.7095C12.0793 37.1248 11.4629 37.3766 10.8143 37.4311C10.6118 37.4306 10.4177 37.3499 10.2745 37.2067C10.1307 37.0629 10.05 36.868 10.05 36.6647C10.05 36.4615 10.1307 36.2666 10.2745 36.1228C10.4182 35.9791 10.6131 35.8984 10.8164 35.8984V35.8987L10.8223 35.898C11.0327 35.8727 11.232 35.7901 11.3985 35.6593C11.6057 35.5323 11.8146 35.3742 12.0217 35.2174C12.1305 35.1351 12.2388 35.0531 12.346 34.9763L12.3461 34.9764L12.3488 34.9741C12.8494 34.5589 13.4649 34.3066 14.1129 34.2511C14.7609 34.3066 15.3764 34.5589 15.877 34.9741L15.8769 34.9742L15.8798 34.9763C15.988 35.0539 16.097 35.1357 16.2063 35.2179C16.4123 35.3726 16.6197 35.5285 16.827 35.6591C16.9936 35.7901 17.193 35.8727 17.4034 35.898L17.4033 35.8995L17.4155 35.898C17.6257 35.8724 17.8248 35.7898 17.9915 35.6593C18.2012 35.5308 18.4125 35.3705 18.6215 35.212C18.7276 35.1315 18.8331 35.0514 18.9375 34.9762L18.9376 34.9763L18.9402 34.9742C19.4409 34.5592 20.0564 34.3069 20.7043 34.2511C21.3523 34.3066 21.9678 34.5589 22.4684 34.9741L22.4683 34.9742L22.4711 34.9762C22.5748 35.0509 22.6794 35.1295 22.7846 35.2085C22.9938 35.3657 23.2051 35.5245 23.4159 35.6575C23.4921 35.7331 23.5823 35.7933 23.6814 35.8346C23.7824 35.8766 23.8907 35.8982 24 35.8982C24.1093 35.8982 24.2176 35.8766 24.3186 35.8346C24.4176 35.7934 24.5077 35.7333 24.5838 35.6577C24.795 35.5288 25.007 35.368 25.2165 35.2092C25.3214 35.1296 25.4257 35.0506 25.5289 34.9762L25.529 34.9763L25.5316 34.9741C26.0322 34.5589 26.6477 34.3066 27.2957 34.2511C27.9436 34.3069 28.5591 34.5592 29.0598 34.9742L29.0597 34.9742L29.0625 34.9762C29.1677 35.052 29.2738 35.1317 29.3804 35.2119C29.588 35.368 29.7975 35.5255 30.0057 35.6574C30.082 35.7332 30.1723 35.7934 30.2716 35.8347C30.3727 35.8767 30.4811 35.8984 30.5906 35.8984C30.7001 35.8984 30.8085 35.8767 30.9095 35.8347C31.0087 35.7934 31.099 35.7333 31.1752 35.6577C31.3816 35.5311 31.5897 35.3735 31.7959 35.2174C31.9047 35.1351 32.013 35.0531 32.1202 34.9763L32.1203 34.9764L32.123 34.9741C32.6236 34.5589 33.2391 34.3066 33.8871 34.2511C34.5351 34.3066 35.1506 34.5589 35.6512 34.9741L35.6511 34.9742L35.654 34.9763C35.7625 35.0541 35.8719 35.1361 35.9816 35.2184C36.1877 35.373 36.3952 35.5286 36.6012 35.659C36.7678 35.79 36.9672 35.8727 37.1777 35.898L37.1776 35.8984H37.1836C37.3869 35.8984 37.5818 35.9791 37.7255 36.1228C37.8693 36.2666 37.95 36.4615 37.95 36.6647C37.95 36.868 37.8693 37.0629 37.7255 37.2067C37.5823 37.3499 37.3882 37.4306 37.1857 37.4311C36.5371 37.3766 35.9207 37.1248 35.4195 36.7095L35.4196 36.7094L35.4167 36.7074C35.3066 36.6285 35.1956 36.5449 35.0841 36.4611C34.8805 36.3079 34.6755 36.1536 34.472 36.0246C34.3957 35.9489 34.3054 35.8887 34.206 35.8473C34.105 35.8053 33.9966 35.7837 33.8871 35.7837C33.7776 35.7837 33.6692 35.8053 33.5682 35.8473C33.4689 35.8886 33.3787 35.9488 33.3024 36.0244C33.0978 36.151 32.8914 36.3074 32.6868 36.4623C32.5763 36.546 32.4664 36.6294 32.3575 36.7074L32.3574 36.7073L32.3547 36.7095C31.854 37.1244 31.2384 37.3761 30.5906 37.4309C29.9427 37.3761 29.3271 37.1244 28.8265 36.7095L28.8265 36.7094L28.8237 36.7074C28.7139 36.6287 28.6034 36.5454 28.4923 36.4617C28.2888 36.3083 28.0837 36.1537 27.8789 36.0246C27.8026 35.9488 27.7123 35.8887 27.613 35.8473C27.5119 35.8053 27.4035 35.7837 27.2941 35.7837C27.1846 35.7837 27.0762 35.8053 26.9751 35.8473C26.8759 35.8886 26.7856 35.9488 26.7094 36.0244C26.5023 36.1526 26.2935 36.3111 26.087 36.4678C25.9792 36.5497 25.872 36.6311 25.766 36.7074L25.7659 36.7073L25.7633 36.7095C25.2625 37.1241 24.647 37.3758 23.9992 37.4309C23.3514 37.376 22.7358 37.1243 22.2351 36.7095L22.2351 36.7094L22.2324 36.7074C22.127 36.6315 22.0205 36.5513 21.9135 36.4707C21.7053 36.3137 21.4948 36.155 21.285 36.023C21.1187 35.8927 20.9201 35.8101 20.7105 35.7841L20.7107 35.7825L20.6982 35.784C20.4881 35.8098 20.2889 35.8924 20.1222 36.0228C19.9119 36.152 19.7006 36.3123 19.4919 36.4707C19.3853 36.5516 19.2794 36.632 19.1746 36.7074L19.1745 36.7073L19.1719 36.7095C18.6712 37.1244 18.0556 37.3761 17.4078 37.4309C16.76 37.3758 16.1445 37.1241 15.6436 36.7095L15.6437 36.7094L15.641 36.7074C15.5341 36.6305 15.4262 36.5491 15.3178 36.4673C15.1111 36.3115 14.9024 36.1541 14.6952 36.023C14.5283 35.8927 14.3292 35.8101 14.119 35.7841L14.1192 35.7825L14.1067 35.7841C13.8967 35.8102 13.6977 35.8927 13.5308 36.0228C13.3253 36.1497 13.1181 36.3067 12.9126 36.4623C12.8021 36.546 12.6922 36.6294 12.5833 36.7074Z" fill="white" stroke="#222222" stroke-width="0.1"/>
</g>
<defs>
<clipPath id="clip0_2485_14007">
<rect width="48" height="48" fill="white"/>
</clipPath>
</defs>
</svg>
