<svg width="48" height="48" viewBox="0 0 48 48" fill="none" xmlns="http://www.w3.org/2000/svg">
<g clip-path="url(#clip0_2485_14022)">
<rect width="48" height="48" rx="8" fill="#222222"/>
<path d="M22.5757 24.5758C22.3414 24.8101 22.3414 25.19 22.5758 25.4243C22.8101 25.6586 23.19 25.6586 23.4243 25.4242L22.5757 24.5758ZM23.4243 25.4242L29.5791 19.269L28.7305 18.4205L22.5757 24.5758L23.4243 25.4242Z" fill="white"/>
<circle cx="23" cy="25" r="5.25" stroke="white" stroke-width="1.5"/>
<path d="M35.3833 24.9334C35.3833 31.7357 29.869 37.25 23.0667 37.25C16.2644 37.25 10.75 31.7357 10.75 24.9334C10.75 18.1311 16.2644 12.6167 23.0667 12.6167C25.3113 12.6167 27.4136 13.2165 29.2245 14.264C30.6477 15.0873 31.8913 16.1875 32.8813 17.4909C34.4517 19.5584 35.3833 22.136 35.3833 24.9334Z" stroke="white" stroke-width="1.5"/>
<path d="M33.5732 18.4964L33.5721 18.4975C33.5139 18.556 33.4332 18.5899 33.3478 18.5899H29.6719C29.496 18.5899 29.3529 18.4468 29.3529 18.2709V14.595C29.3529 14.5097 29.3868 14.4289 29.4453 14.3707L29.4465 14.3696L33.1223 10.6937C33.2138 10.6022 33.3508 10.575 33.4697 10.6242C33.5889 10.6738 33.6668 10.7908 33.6668 10.9191V12.758C33.6668 13.5974 34.3479 14.2761 35.1857 14.2761H37.0237C37.152 14.2761 37.269 14.3539 37.3186 14.4731C37.3678 14.592 37.3406 14.729 37.2491 14.8205L33.5732 18.4964Z" fill="#222222" stroke="white" stroke-width="1.2"/>
</g>
<defs>
<clipPath id="clip0_2485_14022">
<rect width="48" height="48" fill="white"/>
</clipPath>
</defs>
</svg>
