<svg width="48" height="48" viewBox="0 0 48 48" fill="none" xmlns="http://www.w3.org/2000/svg">
<g clip-path="url(#clip0_2485_14016)">
<rect width="48" height="48" rx="8" fill="#222222"/>
<path d="M35.9712 13.6766V13.3748L35.7578 13.5882L28.9807 20.3653C28.7948 20.5512 28.5513 20.6442 28.3077 20.6442C28.0641 20.6442 27.8206 20.5512 27.6347 20.3653C27.2627 19.9933 27.2627 19.391 27.6347 19.0193L27.6347 19.0193L34.4118 12.2422L34.6252 12.0288H34.3234H30.4615C29.9358 12.0288 29.5096 11.6026 29.5096 11.0769C29.5096 10.5512 29.9358 10.125 30.4615 10.125H36.9231C37.4488 10.125 37.875 10.5512 37.875 11.0769V17.5385C37.875 18.0642 37.4488 18.4904 36.9231 18.4904C36.3974 18.4904 35.9712 18.0642 35.9712 17.5385V13.6766ZM20.3653 19.0193L20.3653 19.0193C20.7373 19.3911 20.7373 19.9936 20.3653 20.3653L20.3653 20.3653C20.1794 20.5512 19.9359 20.6442 19.6923 20.6442C19.4487 20.6442 19.2052 20.5512 19.0193 20.3653L12.2422 13.5882L12.0288 13.3748V13.6766V17.5385C12.0288 18.0642 11.6026 18.4904 11.0769 18.4904C10.5512 18.4904 10.125 18.0642 10.125 17.5385V11.0769C10.125 10.5512 10.5512 10.125 11.0769 10.125H17.5385C18.0642 10.125 18.4904 10.5512 18.4904 11.0769C18.4904 11.6026 18.0642 12.0288 17.5385 12.0288H13.6766H13.3748L13.5882 12.2422L20.3653 19.0193ZM35.7578 34.4118L35.9712 34.6252V34.3234V30.4615C35.9712 29.9358 36.3974 29.5096 36.9231 29.5096C37.4488 29.5096 37.875 29.9358 37.875 30.4615V36.9231C37.875 37.4488 37.4488 37.875 36.9231 37.875H30.4615C29.9358 37.875 29.5096 37.4488 29.5096 36.9231C29.5096 36.3974 29.9358 35.9712 30.4615 35.9712H34.3234H34.6252L34.4118 35.7578L27.6347 28.9807L27.6347 28.9807C27.2628 28.609 27.2629 28.0067 27.6347 27.6347C28.0064 27.2627 28.6087 27.2627 28.9807 27.6347L35.7578 34.4118ZM20.3653 27.6347L20.3653 27.6347C20.7373 28.0064 20.7373 28.6089 20.3653 28.9807L20.3653 28.9807L13.5882 35.7578L13.3748 35.9712H13.6766H17.5385C18.0642 35.9712 18.4904 36.3974 18.4904 36.9231C18.4904 37.4488 18.0642 37.875 17.5385 37.875H11.0769C10.5512 37.875 10.125 37.4488 10.125 36.9231V30.4615C10.125 29.9358 10.5512 29.5096 11.0769 29.5096C11.6026 29.5096 12.0288 29.9358 12.0288 30.4615V34.3234V34.6252L12.2422 34.4118L19.0193 27.6347L19.0193 27.6347C19.391 27.2627 19.9933 27.2627 20.3653 27.6347Z" fill="white" stroke="#222222" stroke-width="0.25"/>
</g>
<defs>
<clipPath id="clip0_2485_14016">
<rect width="48" height="48" fill="white"/>
</clipPath>
</defs>
</svg>
