<svg width="48" height="48" viewBox="0 0 48 48" fill="none" xmlns="http://www.w3.org/2000/svg">
<g clip-path="url(#clip0_2485_14033)">
<rect width="48" height="48" rx="8" fill="#222222"/>
<path d="M30.3294 21.4612L30.3053 21.5149L30.3586 21.54C31.0737 21.8772 31.8886 21.9363 32.6449 21.7059C33.4012 21.4756 34.0448 20.9722 34.4506 20.2936L34.451 20.2939L34.454 20.287C35.4272 18.0695 35.8304 15.6439 35.6268 13.2309L35.6165 13.1091L35.5265 13.1917C34.6256 14.0179 33.5689 14.6561 32.4183 15.0688L32.4183 15.0688L32.4163 15.0696C32.1717 15.1674 31.9275 15.2607 31.6869 15.3526C31.1367 15.5628 30.6049 15.7659 30.1284 16.0006C29.6024 16.2112 29.1506 16.5732 28.8303 17.0406L28.8301 17.0405L28.8276 17.0449C28.5277 17.5732 28.3878 18.1774 28.4249 18.7838C28.4621 19.3902 28.6748 19.9727 29.0371 20.4604L29.0969 20.5409L29.1395 20.4501C29.1556 20.4159 29.1716 20.3816 29.1877 20.3473C29.2219 20.274 29.2563 20.2006 29.2914 20.1269L29.2915 20.127L29.2925 20.1244C29.9646 18.534 31.1719 17.2288 32.7051 16.4349C32.8874 16.3577 33.0928 16.3557 33.2765 16.4294C33.4609 16.5034 33.6083 16.6477 33.6864 16.8304C33.7644 17.0131 33.7667 17.2193 33.6927 17.4037C33.6187 17.5881 33.4744 17.7355 33.2917 17.8136L33.2916 17.8134L33.2867 17.816C32.0827 18.4684 31.1446 19.5212 30.6348 20.7922C30.5314 21.0137 30.4295 21.2384 30.3294 21.4612ZM28.4684 22.1669H28.588L28.4718 22.0623C27.6827 21.352 27.1592 20.3939 26.9876 19.3461C26.8162 18.2997 27.0061 17.2262 27.5259 16.302C28.3658 15.2018 29.549 14.4136 30.8879 14.0623L30.888 14.0627L30.8942 14.0603C31.0152 14.0138 31.1379 13.9675 31.2618 13.9207C32.8942 13.3043 34.7325 12.6101 35.481 10.5534L35.4811 10.5534C35.538 10.3964 35.6459 10.2629 35.7874 10.1743C35.9289 10.0856 36.096 10.0468 36.2621 10.064C36.4282 10.0812 36.5838 10.1535 36.7042 10.2693C36.8245 10.385 36.9026 10.5376 36.9262 10.7028C37.14 12.2999 37.2033 14.268 37.0345 16.1459C36.8655 18.0251 36.4646 19.8071 35.7546 21.0365C35.1748 22.019 34.2561 22.7559 33.1712 23.1088C32.0863 23.4617 30.9098 23.4063 29.8629 22.9529L29.8018 22.9264L29.7818 22.9899C29.5802 23.6288 29.4176 24.2794 29.2948 24.9381L29.2948 24.9381L29.2946 24.9392C29.262 25.1353 29.1529 25.3103 28.9912 25.4259C28.8296 25.5415 28.6287 25.5881 28.4326 25.5555C28.2366 25.523 28.0616 25.4139 27.946 25.2522C27.8305 25.0907 27.7839 24.89 27.8163 24.6942C27.9749 23.8377 28.1928 22.9932 28.4684 22.1669Z" fill="white" stroke="#222222" stroke-width="0.12"/>
<path d="M24.5041 14.0157L24.5041 14.0157C24.4986 14.0291 24.4905 14.0412 24.4802 14.0515C24.47 14.0617 24.4579 14.0698 24.4445 14.0753L24.4215 14.0199L24.4445 14.0753C24.4311 14.0809 24.4168 14.0837 24.4024 14.0837H18.3913C18.3768 14.0837 18.3625 14.0809 18.3491 14.0753L18.3721 14.0199L18.3491 14.0753C18.3358 14.0698 18.3236 14.0617 18.3134 14.0515C18.3032 14.0412 18.2951 14.0291 18.2895 14.0157L18.2895 14.0157C18.284 14.0024 18.2811 13.988 18.2811 13.9736V12.2557C18.2811 12.2264 18.2928 12.1984 18.3134 12.1778C18.3341 12.1571 18.3621 12.1455 18.3913 12.1455H24.3976C24.4118 12.1449 24.4261 12.1471 24.4396 12.1519L24.4193 12.2084L24.4396 12.1519C24.4538 12.157 24.4668 12.1649 24.4778 12.1753C24.4888 12.1856 24.4975 12.1981 24.5035 12.2119C24.5094 12.2257 24.5125 12.2406 24.5125 12.2557C24.5125 12.2557 24.5125 12.2557 24.5125 12.2558M24.5041 14.0157L24.4525 12.2557L24.5125 12.2558M24.5041 14.0157C24.5097 14.0024 24.5125 13.988 24.5125 13.9736L24.5125 12.2558M24.5041 14.0157L24.5125 12.2558M27.3025 28.6491L27.2345 28.6742C25.0777 29.467 22.697 29.3899 20.5961 28.4592L20.5947 28.4586C19.5614 27.97 18.4155 27.769 17.2776 27.8769L17.2752 27.8771L17.2752 27.877C16.8439 27.901 16.4139 27.9467 15.9871 28.0139L15.8605 28.0338L15.9263 27.9238L18.8202 23.0871L18.8203 23.087C19.0497 22.7055 19.1714 22.269 19.1725 21.8239C19.1725 21.8238 19.1725 21.8238 19.1725 21.8237M27.3025 28.6491L19.2325 21.8239L19.1725 21.8237M27.3025 28.6491L27.2652 28.587L23.9782 23.1097C23.7493 22.7281 23.6281 22.2915 23.6277 21.8464M27.3025 28.6491L23.6277 21.8464M19.1725 21.8237L19.1725 15.6413V15.5813H19.2325H23.5677H23.6277V15.6413V21.8464M19.1725 21.8237L23.6277 21.8464M28.0871 29.9578L28.1128 30.0008L31.099 34.9749L31.099 34.975C31.1872 35.122 31.2347 35.2898 31.2369 35.4613C31.239 35.6327 31.1956 35.8017 31.1111 35.9509C31.0266 36.1001 30.904 36.2242 30.7558 36.3106C30.6077 36.3969 30.4393 36.4424 30.2678 36.4424H12.5258C12.3544 36.4424 12.186 36.3969 12.0378 36.3106C11.8897 36.2242 11.7671 36.1001 11.6826 35.9509C11.5981 35.8017 11.5547 35.6327 11.5568 35.4613C11.5589 35.2898 11.6065 35.122 11.6947 34.975L11.6947 34.9749L14.7924 29.8131L14.8049 29.7923L14.8283 29.786C15.6518 29.5656 16.4951 29.4273 17.3459 29.3733M28.0871 29.9578L17.3512 29.4331M28.0871 29.9578L28.0402 29.9755C25.3894 30.9748 22.4532 30.8998 19.8568 29.7665M28.0871 29.9578L19.8326 29.8213M17.3459 29.3733C17.3464 29.3733 17.3469 29.3733 17.3474 29.3732L17.3512 29.4331M17.3459 29.3733C17.3454 29.3734 17.3449 29.3734 17.3445 29.3735L17.3512 29.4331M17.3459 29.3733C18.203 29.2771 19.0702 29.4129 19.8568 29.7665M17.3512 29.4331C18.1982 29.3378 19.0552 29.4718 19.8326 29.8213M19.8568 29.7665C19.8568 29.7664 19.8567 29.7664 19.8566 29.7664L19.8326 29.8213M19.8568 29.7665C19.857 29.7665 19.8571 29.7666 19.8572 29.7666L19.8326 29.8213M17.6748 21.8239V21.824C17.6745 21.9994 17.6269 22.1715 17.537 22.3221L17.5369 22.3222L10.4097 34.2051C10.1859 34.5796 10.0653 35.0067 10.0602 35.4429C10.0551 35.8791 10.1657 36.3089 10.3808 36.6885C10.5958 37.068 10.9076 37.3838 11.2845 37.6037C11.6613 37.8235 12.0896 37.9396 12.5259 37.94H30.2678C30.7041 37.9398 31.1326 37.8238 31.5094 37.604C31.8863 37.3842 32.1981 37.0683 32.4131 36.6886C32.6281 36.3089 32.7385 35.879 32.7331 35.4428C32.7277 35.0065 32.6067 34.5794 32.3824 34.2052L25.2649 22.3385C25.2649 22.3385 25.2649 22.3385 25.2649 22.3385C25.1741 22.1881 25.1264 22.0157 25.1269 21.84C25.1269 21.84 25.1269 21.8399 25.1269 21.8399M17.6748 21.8239L25.1869 21.84L25.1269 21.8399M17.6748 21.8239V15.4521V15.4488V15.4126L17.6427 15.3957C17.3835 15.2595 17.1664 15.055 17.015 14.8044C16.8635 14.5537 16.7835 14.2664 16.7835 13.9736V13.9736V12.2557C16.7835 11.8293 16.9529 11.4203 17.2544 11.1188C17.556 10.8173 17.9649 10.6479 18.3913 10.6479L24.3991 10.6479L24.3993 10.6479C24.6108 10.6473 24.8204 10.6884 25.016 10.7689C25.2116 10.8495 25.3894 10.9678 25.5392 11.1171C25.689 11.2665 25.8078 11.4439 25.8889 11.6393C25.97 11.8347 26.0117 12.0441 26.0117 12.2557V13.9736C26.0118 14.2655 25.9324 14.5519 25.7821 14.8021C25.6319 15.0524 25.4164 15.2571 25.1587 15.3943L25.1269 15.4112V15.4472L25.1269 21.8399M17.6748 21.8239L25.1269 21.8399" fill="white" stroke="#222222" stroke-width="0.12"/>
</g>
<defs>
<clipPath id="clip0_2485_14033">
<rect width="48" height="48" fill="white"/>
</clipPath>
</defs>
</svg>
