<svg width="48" height="48" viewBox="0 0 48 48" fill="none" xmlns="http://www.w3.org/2000/svg">
<rect width="48" height="48" rx="8" fill="#222222"/>
<path d="M11.1431 24.0002C11.1431 16.8993 16.8993 11.1431 24.0002 11.1431C31.1011 11.1431 36.8574 16.8993 36.8574 24.0002C36.8574 31.1011 31.1011 36.8574 24.0002 36.8574C16.8993 36.8574 11.1431 31.1011 11.1431 24.0002ZM24.3072 24.9345C25.9004 25.3266 26.3777 25.8463 26.3777 26.7238C26.3777 27.6356 25.7643 28.3256 24.3072 28.4365V24.9345ZM23.3445 22.9668C21.9816 22.6256 21.47 22.055 21.47 21.2793C21.47 20.5036 22.1177 19.797 23.345 19.6438L23.3445 22.9668ZM24.3072 23.1966V19.6438C25.3979 19.7799 26.1645 20.4018 26.2754 21.4759H28.0475C27.9795 19.542 26.4372 18.2638 24.3072 18.0929V16.6534H23.3445V18.0929C21.1974 18.2552 19.6641 19.5157 19.6641 21.4245C19.6641 23.1538 20.8315 24.1256 22.9952 24.6281L23.3445 24.7132V28.4279C21.9731 28.2832 21.3254 27.5504 21.1722 26.5534H19.4086C19.4675 28.5982 21.1807 29.8165 23.3445 29.9788V31.4097H24.3072V29.9788C26.48 29.825 28.1841 28.6411 28.1841 26.5534C28.1841 24.739 26.9574 23.8186 24.7165 23.299L24.3072 23.1966Z" fill="#32D16D"/>
</svg>
