<svg width="48" height="48" viewBox="0 0 48 48" fill="none" xmlns="http://www.w3.org/2000/svg">
<rect width="48" height="48" rx="8" fill="#222222"/>
<path d="M22.9159 10.752H32.2486C33.4429 10.752 34.415 11.7249 34.415 12.9184V35.0834C34.415 36.2769 33.4429 37.2498 32.2486 37.2498H15.9164C14.7221 37.2498 13.75 36.2769 13.75 35.0834V19.9179C13.75 18.7243 14.7221 17.7514 15.9164 17.7514C18.5822 17.7514 20.7495 15.5841 20.7495 12.9184C20.7495 11.7249 21.7216 10.752 22.9159 10.752Z" stroke="#A832D1" stroke-width="1.5"/>
<path d="M17.1057 10.8429L18.5983 12.3355L15.3344 15.5993L13.8199 14.0848C15.5834 12.3213 16.4607 11.4448 16.9283 11.006C16.9983 10.9403 17.0568 10.8867 17.1057 10.8429Z" stroke="#A832D1" stroke-width="1.5"/>
<path fill-rule="evenodd" clip-rule="evenodd" d="M31.4944 34.3279C31.7219 34.1004 31.7219 33.7306 31.4944 33.5031L29.3292 31.3403V23.6572L31.4921 21.4944C31.7196 21.2669 31.7196 20.8971 31.4921 20.6696C31.2646 20.4422 30.8948 20.4422 30.6673 20.6696L28.5045 22.8324H19.6548L17.492 20.6696C17.2645 20.4422 16.8947 20.4422 16.6672 20.6696C16.4397 20.8971 16.4397 21.2669 16.6672 21.4944L18.83 23.6572V31.3403L16.6672 33.5031C16.4397 33.7306 16.4397 34.1004 16.6672 34.3279C16.7815 34.4411 16.9308 34.4982 17.0802 34.4982C17.2295 34.4982 17.3788 34.4422 17.4931 34.3279L19.656 32.1651H28.5056L30.6685 34.3279C30.7828 34.4411 30.9321 34.4982 31.0814 34.4982C31.2308 34.4982 31.3801 34.4422 31.4944 34.3279ZM19.9989 24.0002H28.165V30.9997H19.9989V24.0002Z" fill="#A832D1"/>
</svg>
