<svg width="48" height="48" viewBox="0 0 48 48" fill="none" xmlns="http://www.w3.org/2000/svg">
<rect width="48" height="48" rx="8" fill="#222222"/>
<mask id="mask0_2485_13845" style="mask-type:luminance" maskUnits="userSpaceOnUse" x="11" y="11" width="26" height="26">
<path d="M11 11H37V37H11V11Z" fill="white"/>
</mask>
<g mask="url(#mask0_2485_13845)">
<path d="M19.5083 12.7844L17.8833 11.1594C17.7815 11.0586 17.6461 10.999 17.502 10.999C17.2778 10.999 17.2778 10.999 13.8674 14.4094C13.6562 14.6206 13.6562 14.964 13.8674 15.1753L15.4924 16.8003C15.5986 16.9064 15.7373 16.9584 15.8759 16.9584C16.0146 16.9584 16.1533 16.9054 16.2594 16.8003L19.5094 13.5503C19.7196 13.339 19.7196 12.9967 19.5083 12.7844Z" fill="#A832D1"/>
<path d="M27.7913 24.001H20.208V30.501H27.7913V24.001Z" fill="#A832D1"/>
<path d="M31.583 11.001H22.9163C21.4224 11.001 20.208 12.2165 20.208 13.7093C20.208 15.8001 18.5072 17.501 16.4163 17.501C14.9224 17.501 13.708 18.7165 13.708 20.2093V34.2926C13.708 35.7854 14.9224 37.0009 16.4163 37.0009H31.583C33.0769 37.0009 34.2913 35.7854 34.2913 34.2926V13.7093C34.2913 12.2165 33.0769 11.001 31.583 11.001ZM31.0413 15.876C31.0413 16.175 30.7976 16.4176 30.4997 16.4176H23.9997C23.7018 16.4176 23.458 16.175 23.458 15.876V14.7926C23.458 14.4936 23.7018 14.251 23.9997 14.251H30.4997C30.7976 14.251 31.0413 14.4936 31.0413 14.7926V15.876ZM30.8832 32.8258C31.0944 33.037 31.0944 33.3805 30.8832 33.5917C30.777 33.6979 30.6383 33.7499 30.4997 33.7499C30.361 33.7499 30.2223 33.6968 30.1162 33.5917L28.1077 31.5832H19.8895L17.881 33.5917C17.7748 33.6979 17.6362 33.7499 17.4975 33.7499C17.3588 33.7499 17.2202 33.6968 17.114 33.5917C16.9028 33.3805 16.9028 33.037 17.114 32.8258L19.1225 30.8173V23.6825L17.114 21.674C16.9028 21.4627 16.9028 21.1193 17.114 20.9081C17.3253 20.6968 17.6687 20.6968 17.8799 20.9081L19.8884 22.9165H28.1066L30.1151 20.9081C30.3263 20.6968 30.6698 20.6968 30.881 20.9081C31.0923 21.1193 31.0923 21.4627 30.881 21.674L28.8725 23.6825V30.8173L30.8832 32.8258Z" fill="#A832D1"/>
</g>
</svg>
