<svg width="91" height="91" viewBox="0 0 91 91" fill="none" xmlns="http://www.w3.org/2000/svg">
<g clip-path="url(#clip0_2483_7557)">
<path fill-rule="evenodd" clip-rule="evenodd" d="M45.5 0C36.501 0 27.704 2.66853 20.2216 7.66813C12.7391 12.6677 6.90729 19.7739 3.4635 28.0879C0.0197146 36.4019 -0.881337 45.5505 0.87429 54.3766C2.62992 63.2027 6.96337 71.3101 13.3267 77.6733C19.6899 84.0366 27.7973 88.3701 36.6234 90.1257C45.4495 91.8813 54.5981 90.9803 62.9121 87.5365C71.2261 84.0927 78.3323 78.2609 83.3319 70.7784C88.3315 63.296 91 54.499 91 45.5C90.9942 33.4344 86.1986 21.8647 77.6669 13.3331C69.1353 4.80142 57.5656 0.00582054 45.5 0ZM45.5 87.8621C37.1216 87.8621 28.9313 85.3776 21.9649 80.7228C14.9985 76.068 9.56885 69.4519 6.36257 61.7112C3.15629 53.9706 2.31738 45.453 3.95193 37.2356C5.58647 29.0181 9.62107 21.4699 15.5455 15.5455C21.47 9.62105 29.0181 5.58645 37.2356 3.95191C45.453 2.31736 53.9706 3.15627 61.7113 6.36255C69.4519 9.56883 76.068 14.9985 80.7228 21.9649C85.3776 28.9313 87.8621 37.1216 87.8621 45.5C87.8571 56.7336 83.3923 67.5056 75.449 75.449C67.5057 83.3923 56.7336 87.8571 45.5 87.8621Z" fill="white"/>
<path fill-rule="evenodd" clip-rule="evenodd" d="M60.6405 35.5377C62.6079 33.5726 64.09 31.1759 64.9692 28.5379C65.8483 25.8998 66.1003 23.0932 65.7051 20.3407C65.6574 20.0039 65.5016 19.6917 65.2611 19.4511C65.0205 19.2106 64.7083 19.0548 64.3715 19.0071C60.5252 18.4587 56.6048 19.1751 53.201 21.0485C49.7972 22.9219 47.0945 25.8507 45.5 29.3936C43.9055 25.8507 41.2027 22.9219 37.799 21.0485C34.3952 19.1751 30.4748 18.4587 26.6285 19.0071C26.2916 19.0548 25.9794 19.2106 25.7389 19.4511C25.4984 19.6917 25.3425 20.0039 25.2948 20.3407C24.921 22.9565 25.1307 25.6227 25.9089 28.1479C26.6871 30.6732 28.0144 32.9949 29.7958 34.9466C31.5771 36.8983 33.7683 38.4316 36.2122 39.4366C38.656 40.4415 41.292 40.8932 43.931 40.7592V49.4858C42.0392 46.7353 39.4175 44.567 36.3609 43.225C33.3042 41.8829 29.9337 41.4202 26.6285 41.8889C26.2916 41.9365 25.9794 42.0924 25.7389 42.3329C25.4984 42.5735 25.3425 42.8857 25.2948 43.2225C24.921 45.8383 25.1307 48.5045 25.9089 51.0297C26.6871 53.555 28.0144 55.8767 29.7958 57.8284C31.5771 59.7801 33.7683 61.3134 36.2122 62.3184C38.656 63.3233 41.292 63.775 43.931 63.641V75.1729C43.931 75.589 44.0963 75.9881 44.3906 76.2823C44.6848 76.5766 45.0839 76.7419 45.5 76.7419C45.9161 76.7419 46.3152 76.5766 46.6094 76.2823C46.9036 75.9881 47.0689 75.589 47.0689 75.1729V63.641C49.708 63.775 52.3439 63.3233 54.7878 62.3184C57.2316 61.3134 59.4228 59.7801 61.2042 57.8284C62.9855 55.8767 64.3129 53.555 65.091 51.0297C65.8692 48.5045 66.0789 45.8383 65.7051 43.2225C65.6574 42.8857 65.5016 42.5735 65.2611 42.3329C65.0205 42.0924 64.7083 41.9365 64.3715 41.8889C61.0662 41.4202 57.6958 41.8829 54.6391 43.225C51.5824 44.567 48.9608 46.7353 47.0689 49.4858V40.7592C49.5706 40.8878 52.0714 40.4894 54.4093 39.5899C56.7472 38.6904 58.8701 37.3099 60.6405 35.5377ZM51.393 26.2902C52.8687 24.8128 54.6414 23.6655 56.5937 22.9244C58.546 22.1833 60.6334 21.8652 62.7178 21.9913C62.8431 24.0758 62.5249 26.1633 61.7841 28.1158C61.0433 30.0683 59.8968 31.8415 58.4203 33.3184C56.9438 34.7952 55.1708 35.942 53.2184 36.6832C51.266 37.4244 49.1786 37.7431 47.094 37.6181C46.9676 35.5332 47.2854 33.4452 48.0265 31.4923C48.7676 29.5395 49.9151 27.7663 51.393 26.2902ZM32.5654 33.3192C31.0876 31.8431 29.9401 30.0699 29.199 28.1171C28.4578 26.1642 28.14 24.0762 28.2665 21.9913C30.3511 21.8663 32.4384 22.185 34.3908 22.9262C36.3432 23.6674 38.1162 24.8142 39.5927 26.291C41.0692 27.7679 42.2157 29.5411 42.9565 31.4936C43.6973 33.4461 44.0156 35.5336 43.8902 37.6181C41.8079 37.7424 39.7229 37.4234 37.7729 36.6824C35.8229 35.9413 34.0523 34.795 32.578 33.3192H32.5654ZM32.5654 56.201C31.088 54.7253 29.9407 52.9526 29.1996 51.0003C28.4585 49.048 28.1404 46.9606 28.2665 44.8762C30.3508 44.7513 32.4379 45.0699 34.39 45.8109C36.3422 46.5519 38.115 47.6985 39.5915 49.1749C41.0679 50.6514 42.2145 52.4242 42.9555 54.3764C43.6965 56.3285 44.0151 58.4156 43.8902 60.4999C41.8079 60.6242 39.7229 60.3052 37.7729 59.5641C35.8229 58.8231 34.0523 57.6768 32.578 56.201H32.5654ZM51.393 49.1751C52.8687 47.6977 54.6414 46.5504 56.5937 45.8093C58.546 45.0682 60.6334 44.7502 62.7178 44.8762C62.8427 46.9605 62.5241 49.0476 61.7831 50.9997C61.0421 52.9519 59.8955 54.7247 58.419 56.2012C56.9426 57.6777 55.1698 58.8242 53.2176 59.5652C51.2655 60.3062 49.1784 60.6248 47.094 60.4999C46.968 58.4155 47.2861 56.3281 48.0272 54.3758C48.7683 52.4235 49.9155 50.6509 51.393 49.1751Z" fill="white"/>
</g>
<defs>
<clipPath id="clip0_2483_7557">
<rect width="91" height="91" fill="white"/>
</clipPath>
</defs>
</svg>
