<svg width="91" height="91" viewBox="0 0 91 91" fill="none" xmlns="http://www.w3.org/2000/svg">
<g clip-path="url(#clip0_2483_7545)">
<path fill-rule="evenodd" clip-rule="evenodd" d="M45.5 0C36.501 0 27.704 2.66853 20.2216 7.66813C12.7391 12.6677 6.90729 19.7739 3.4635 28.0879C0.0197146 36.4019 -0.881337 45.5505 0.87429 54.3766C2.62992 63.2027 6.96337 71.3101 13.3267 77.6733C19.6899 84.0366 27.7973 88.3701 36.6234 90.1257C45.4495 91.8813 54.5981 90.9803 62.9121 87.5365C71.2261 84.0927 78.3323 78.2609 83.3319 70.7784C88.3315 63.296 91 54.499 91 45.5C90.9942 33.4344 86.1986 21.8647 77.6669 13.3331C69.1353 4.80142 57.5656 0.00582054 45.5 0ZM45.5 87.8621C37.1216 87.8621 28.9313 85.3776 21.9649 80.7228C14.9985 76.068 9.56885 69.4519 6.36257 61.7112C3.15629 53.9706 2.31738 45.453 3.95193 37.2356C5.58647 29.0181 9.62107 21.4699 15.5455 15.5455C21.47 9.62105 29.0181 5.58645 37.2356 3.95191C45.453 2.31736 53.9706 3.15627 61.7113 6.36255C69.4519 9.56883 76.068 14.9985 80.7228 21.9649C85.3776 28.9313 87.8621 37.1216 87.8621 45.5C87.8571 56.7336 83.3923 67.5056 75.449 75.449C67.5057 83.3923 56.7336 87.8571 45.5 87.8621Z" fill="white"/>
<path fill-rule="evenodd" clip-rule="evenodd" d="M37.1594 42.9243L36.0862 32.522C36.0612 32.2743 35.9775 32.0361 35.8422 31.8272C35.7069 31.6182 35.5238 31.4444 35.308 31.3202C35.0932 31.1965 34.852 31.1254 34.6044 31.1128C34.3568 31.1003 34.1097 31.1466 33.8834 31.248L24.3535 35.5313C24.1654 35.6158 23.9958 35.7365 23.8543 35.8865C23.7128 36.0365 23.6023 36.213 23.529 36.4057C23.4557 36.5985 23.4211 36.8038 23.4272 37.0099C23.4333 37.216 23.4799 37.4189 23.5643 37.607C23.6488 37.7952 23.7695 37.9648 23.9195 38.1063C24.0696 38.2477 24.246 38.3583 24.4388 38.4315C24.828 38.5795 25.2602 38.5668 25.6401 38.3962L30.5792 36.1777L17.971 58.0177C17.5005 58.832 17.2527 59.7557 17.2524 60.6961C17.2522 61.6365 17.4995 62.5604 17.9696 63.3749C18.4397 64.1894 19.1159 64.8658 19.9302 65.3361C20.7446 65.8063 21.6684 66.0539 22.6088 66.0539H29.757C30.1732 66.0539 30.5722 65.8886 30.8665 65.5944C31.1607 65.3002 31.326 64.9011 31.326 64.485C31.326 64.0689 31.1607 63.6698 30.8665 63.3756C30.5722 63.0813 30.1732 62.916 29.757 62.916H22.6088C22.2192 62.916 21.8365 62.8134 21.4992 62.6186C21.1618 62.4237 20.8817 62.1435 20.6871 61.806C20.4924 61.4685 20.3901 61.0857 20.3903 60.6961C20.3905 60.3066 20.4934 59.9239 20.6884 59.5867L33.4504 37.48L34.0372 43.2412C34.0788 43.6552 34.2832 44.0358 34.6054 44.2991C34.9276 44.5625 35.3412 44.687 35.7552 44.6454C36.1692 44.6038 36.5498 44.3994 36.8131 44.0772C37.0765 43.755 37.201 43.3414 37.1594 42.9274V42.9243Z" fill="white"/>
<path fill-rule="evenodd" clip-rule="evenodd" d="M36.8455 28.4609C37.2058 28.6689 37.6341 28.7253 38.036 28.6176C38.4379 28.5099 38.7806 28.247 38.9887 27.8866L43.5763 19.9383C43.7714 19.6007 44.0518 19.3205 44.3895 19.1256C44.7271 18.9308 45.1101 18.8282 45.4999 18.8282C45.8897 18.8282 46.2727 18.9308 46.6103 19.1256C46.948 19.3205 47.2284 19.6007 47.4234 19.9383L58.5411 39.1926L53.6867 36.8862C53.4993 36.7784 53.2916 36.7105 53.0767 36.6867C52.8617 36.6629 52.6442 36.6839 52.4377 36.7482C52.2313 36.8125 52.0403 36.9188 51.8769 37.0604C51.7135 37.202 51.5811 37.3759 51.488 37.5711C51.395 37.7663 51.3433 37.9786 51.3362 38.1947C51.3291 38.4109 51.3668 38.6261 51.4468 38.827C51.5269 39.0279 51.6476 39.2101 51.8014 39.3621C51.9552 39.5141 52.1388 39.6327 52.3406 39.7104L61.7826 44.2007C62.007 44.3075 62.2535 44.3594 62.5019 44.3522C62.7502 44.3451 62.9933 44.279 63.2112 44.1595C63.429 44.04 63.6154 43.8705 63.7549 43.6649C63.8944 43.4593 63.9831 43.2235 64.0137 42.9769L65.3002 32.5998C65.3319 32.3924 65.3218 32.1808 65.2703 31.9774C65.2188 31.774 65.127 31.5831 65.0004 31.4158C64.8738 31.2485 64.7149 31.1083 64.5332 31.0035C64.3515 30.8987 64.1506 30.8314 63.9424 30.8055C63.7342 30.7797 63.5229 30.7959 63.3211 30.8532C63.1193 30.9105 62.931 31.0076 62.7673 31.1389C62.6037 31.2702 62.4681 31.433 62.3685 31.6176C62.2689 31.8023 62.2073 32.005 62.1874 32.2138L61.472 37.9845L50.1409 18.3693C49.6704 17.5548 48.9939 16.8784 48.1792 16.4082C47.3646 15.938 46.4405 15.6904 45.4999 15.6904C44.5593 15.6904 43.6352 15.938 42.8206 16.4082C42.0059 16.8784 41.3294 17.5548 40.8589 18.3693L36.2712 26.3177C36.0632 26.678 36.0068 27.1063 36.1145 27.5082C36.2222 27.9101 36.4851 28.2528 36.8455 28.4609Z" fill="white"/>
<path fill-rule="evenodd" clip-rule="evenodd" d="M67.2238 47.9571C67.0142 47.5997 66.6718 47.3397 66.2713 47.2338C65.8707 47.1279 65.4445 47.1847 65.0857 47.3919C64.7269 47.599 64.4646 47.9397 64.3561 48.3395C64.2475 48.7394 64.3015 49.1659 64.5063 49.5261C66.7248 53.3732 68.7456 56.8688 70.3115 59.5863C70.5065 59.9235 70.6094 60.3062 70.6096 60.6958C70.6098 61.0854 70.5075 61.4681 70.3128 61.8056C70.1182 62.1431 69.8381 62.4233 69.5007 62.6182C69.1634 62.8131 68.7807 62.9156 68.3911 62.9156H41.5304L46.0741 59.6365C46.4116 59.3926 46.6384 59.0247 46.7046 58.6137C46.7708 58.2026 46.671 57.7821 46.4271 57.4446C46.1833 57.1072 45.8154 56.8804 45.4043 56.8142C44.9933 56.748 44.5727 56.8478 44.2353 57.0916L35.7629 63.2106C35.5613 63.356 35.3972 63.5472 35.284 63.7684C35.1708 63.9896 35.1118 64.2345 35.1118 64.483C35.1118 64.7315 35.1708 64.9765 35.284 65.1977C35.3972 65.4189 35.5613 65.6101 35.7629 65.7555L44.2353 71.8744C44.5728 72.1072 44.988 72.1987 45.3921 72.1292C45.7962 72.0597 46.157 71.8348 46.3973 71.5026C46.6377 71.1704 46.7384 70.7573 46.678 70.3517C46.6176 69.9462 46.4008 69.5804 46.0741 69.3327L41.5304 66.0536H68.3911C69.3315 66.0536 70.2553 65.806 71.0697 65.3357C71.884 64.8654 72.5602 64.189 73.0303 63.3745C73.5004 62.56 73.7477 61.6361 73.7475 60.6957C73.7472 59.7553 73.4994 58.8316 73.0289 58.0173C71.4631 55.2999 69.4423 51.8042 67.2238 47.9571Z" fill="white"/>
</g>
<defs>
<clipPath id="clip0_2483_7545">
<rect width="91" height="91" fill="white"/>
</clipPath>
</defs>
</svg>
