<svg width="91" height="91" viewBox="0 0 91 91" fill="none" xmlns="http://www.w3.org/2000/svg">
<g clip-path="url(#clip0_2483_7551)">
<path fill-rule="evenodd" clip-rule="evenodd" d="M45.5 0C36.501 0 27.704 2.66853 20.2216 7.66813C12.7391 12.6677 6.90729 19.7739 3.4635 28.0879C0.0197146 36.4019 -0.881337 45.5505 0.87429 54.3766C2.62992 63.2027 6.96337 71.3101 13.3267 77.6733C19.6899 84.0366 27.7973 88.3701 36.6234 90.1257C45.4495 91.8813 54.5981 90.9803 62.9121 87.5365C71.2261 84.0927 78.3323 78.2609 83.3319 70.7784C88.3315 63.296 91 54.499 91 45.5C90.9942 33.4344 86.1986 21.8647 77.6669 13.3331C69.1353 4.80142 57.5656 0.00582054 45.5 0ZM45.5 87.8621C37.1216 87.8621 28.9313 85.3776 21.9649 80.7228C14.9985 76.068 9.56885 69.4519 6.36257 61.7112C3.15629 53.9706 2.31738 45.453 3.95193 37.2356C5.58647 29.0181 9.62107 21.4699 15.5455 15.5455C21.47 9.62105 29.0181 5.58645 37.2356 3.95191C45.453 2.31736 53.9706 3.15627 61.7113 6.36255C69.4519 9.56883 76.068 14.9985 80.7228 21.9649C85.3776 28.9313 87.8621 37.1216 87.8621 45.5C87.8571 56.7336 83.3923 67.5056 75.449 75.449C67.5057 83.3923 56.7336 87.8571 45.5 87.8621Z" fill="white"/>
<path fill-rule="evenodd" clip-rule="evenodd" d="M70.3933 50.3101H20.3966C19.9805 50.3101 19.5814 50.4754 19.2872 50.7696C18.9929 51.0638 18.8276 51.4629 18.8276 51.879C18.8276 58.9251 21.6267 65.6826 26.609 70.6649C31.5913 75.6473 38.3488 78.4463 45.3949 78.4463C52.441 78.4463 59.1985 75.6473 64.1808 70.6649C69.1632 65.6826 71.9622 58.9251 71.9622 51.879C71.9622 51.4629 71.7969 51.0638 71.5027 50.7696C71.2084 50.4754 70.8094 50.3101 70.3933 50.3101ZM52.143 53.448C52.0875 56.0959 51.878 58.7383 51.5155 61.3618H39.265C38.901 58.7385 38.6914 56.096 38.6374 53.448H52.143ZM22.0189 53.448H35.512C35.5629 56.0951 35.763 58.7373 36.1114 61.3618H23.9644C22.8565 58.8585 22.198 56.1797 22.0189 53.448ZM25.6558 64.4998H36.6166C37.1844 68.0786 38.3648 71.5327 40.1059 74.7106C34.1425 73.3205 28.9576 69.6567 25.6558 64.4998ZM46.9184 74.4941C46.7514 74.7452 46.525 74.9512 46.2592 75.0937C45.9934 75.2361 45.6965 75.3107 45.3949 75.3107C45.0934 75.3107 44.7965 75.2361 44.5307 75.0937C44.2649 74.9512 44.0384 74.7452 43.8715 74.4941C43.0406 73.5862 42.3748 72.5402 41.904 71.4032C40.9484 69.187 40.2412 66.8717 39.7953 64.4998H50.9946C50.5488 66.8717 49.8415 69.187 48.8859 71.4032C48.4151 72.5402 47.7492 73.5862 46.9184 74.4941ZM50.6839 74.7106C52.4265 71.5334 53.607 68.079 54.1733 64.4998H65.1372C61.834 69.6566 56.6481 73.3203 50.6839 74.7106ZM66.838 61.3618H54.6942C55.0426 58.7373 55.2427 56.0951 55.2935 53.448H68.7866C68.6064 56.1798 67.9468 58.8586 66.838 61.3618Z" fill="white"/>
<path fill-rule="evenodd" clip-rule="evenodd" d="M45.5002 47.0281C48.9362 47.0264 52.2311 45.6609 54.6611 43.2316C57.0911 40.8022 58.4573 37.5076 58.4598 34.0716C58.1217 29.9565 56.6427 26.0173 54.1891 22.6966C51.9645 19.4078 49.4152 16.3508 46.5796 13.5715C46.2882 13.2951 45.9018 13.1411 45.5002 13.1411C45.0985 13.1411 44.7122 13.2951 44.4207 13.5715C41.5852 16.3508 39.0359 19.4078 36.8113 22.6966C34.3578 26.0174 32.8788 29.9566 32.5405 34.0716C32.543 37.5076 33.9093 40.8022 36.3393 43.2316C38.7692 45.6609 42.0641 47.0264 45.5002 47.0281ZM39.4283 24.435C41.231 21.7667 43.2626 19.2605 45.5002 16.9447C47.738 19.2625 49.7696 21.7708 51.5721 24.4413C53.6969 27.2443 55.0006 30.5829 55.3376 34.0841C55.3376 36.689 54.3028 39.1872 52.4609 41.0291C50.6189 42.871 48.1208 43.9058 45.5159 43.9058C42.911 43.9058 40.4128 42.871 38.5709 41.0291C36.7289 39.1872 35.6941 36.689 35.6941 34.0841C36.0197 30.5817 37.3126 27.2388 39.4283 24.4287V24.435Z" fill="white"/>
<path fill-rule="evenodd" clip-rule="evenodd" d="M44.5587 41.5559C44.7594 41.6129 44.9695 41.6293 45.1767 41.6041C45.3838 41.5789 45.5838 41.5127 45.7651 41.4093C45.9463 41.3058 46.1051 41.1673 46.2321 41.0018C46.3591 40.8362 46.4519 40.647 46.5049 40.4452C46.5579 40.2434 46.5701 40.033 46.5408 39.8264C46.5115 39.6198 46.4413 39.4211 46.3343 39.242C46.2273 39.0629 46.0857 38.9069 45.9176 38.7831C45.7496 38.6594 45.5586 38.5705 45.3557 38.5215C44.3708 38.2616 43.4658 37.7615 42.7215 37.0661C41.9773 36.3706 41.4172 35.5014 41.0913 34.5363C41.0315 34.3339 40.9316 34.1457 40.7974 33.9828C40.6631 33.8199 40.4975 33.6858 40.3102 33.5885C40.123 33.4911 39.918 33.4326 39.7076 33.4163C39.4972 33.4 39.2857 33.4263 39.0857 33.4937C38.8857 33.5611 38.7013 33.6681 38.5437 33.8084C38.386 33.9486 38.2583 34.1193 38.1681 34.3101C38.0779 34.5009 38.0271 34.7079 38.0188 34.9188C38.0105 35.1296 38.0448 35.34 38.1197 35.5373C38.6121 36.9944 39.4579 38.3068 40.5816 39.3571C41.7052 40.4074 43.0717 41.1628 44.5587 41.5559Z" fill="white"/>
</g>
<defs>
<clipPath id="clip0_2483_7551">
<rect width="91" height="91" fill="white"/>
</clipPath>
</defs>
</svg>
