<svg width="48" height="48" viewBox="0 0 48 48" fill="none" xmlns="http://www.w3.org/2000/svg">
<g clip-path="url(#clip0_2483_8621)">
<rect width="48" height="48" rx="8" fill="#353535"/>
<path d="M12.5832 25.7198L12.5832 25.7198L12.9921 24.973L12.5832 25.7198ZM12.5832 25.7198C12.2105 26.4015 11.6526 26.9594 10.9703 27.3329L12.5832 25.7198ZM14.0585 30.4205L14.0585 30.4206L13.6496 31.1676C13.5838 31.288 13.4577 31.3627 13.3207 31.3627C13.1838 31.3627 13.0576 31.288 12.9921 31.1676C12.9921 31.1676 12.9921 31.1676 12.9921 31.1676L12.5835 30.4206C12.2105 29.7388 11.6526 29.1807 10.9703 28.8071L10.2233 28.3993L10.2233 28.3993C10.1028 28.3335 10.0282 28.2071 10.0282 28.0702C10.0282 27.9335 10.1029 27.807 10.2233 27.7415M14.0585 30.4205L10.9823 27.3548L10.9703 27.3329L10.2233 27.7415M14.0585 30.4205C14.431 29.7388 14.9888 29.1807 15.6714 28.8077L15.6714 28.8077M14.0585 30.4205L15.6714 28.8077M10.2233 27.7415L10.2353 27.7635L10.2233 27.7416L10.2233 27.7415ZM15.6714 28.8077L16.4182 28.3993M15.6714 28.8077L16.4182 28.3993M13.3207 25.9334L13.4002 26.0792L13.4002 26.0793C13.8418 26.8874 14.503 27.548 15.3119 27.9904L13.3207 25.9334ZM13.3207 25.9334L13.241 26.0793C13.241 26.0793 13.241 26.0793 13.241 26.0793C12.7996 26.8874 12.1385 27.548 11.3298 27.9904L11.1842 28.0701M13.3207 25.9334L11.1842 28.0701M13.3208 30.2068L13.4007 30.0611L13.3208 30.2068ZM13.3208 30.2068L13.2412 30.0611L13.2412 30.0611C12.7996 29.2529 12.1385 28.5921 11.3298 28.1494L11.3298 28.1494L11.1842 28.0701M13.3208 30.2068L11.1842 28.0701M16.4182 28.3993C16.5386 28.3335 16.6132 28.2071 16.6132 28.0702C16.6132 27.9335 16.5386 27.807 16.4181 27.7415L15.6714 27.3329C14.9888 26.9594 14.431 26.4015 14.058 25.7198L13.6496 24.973C13.583 24.8508 13.4505 24.7914 13.3208 24.7914C13.191 24.7914 13.0586 24.8508 12.9921 24.973L16.4182 28.3993ZM15.3119 27.9904L15.4574 28.0702L15.3119 28.1499L15.3119 27.9904ZM15.3119 28.1499C14.503 28.5921 13.8419 29.2529 13.4008 30.061L15.3119 28.1499Z" fill="white" stroke="white" stroke-width="0.05"/>
<path d="M35.5106 32.148L35.5106 32.148C35.8836 32.83 36.4414 33.3879 37.124 33.7614L35.5106 32.148ZM35.5106 32.148L35.102 31.4012C35.0356 31.2791 34.9032 31.2196 34.7734 31.2196C34.6436 31.2196 34.5111 31.2791 34.4442 31.4012L34.4442 31.4012M35.5106 32.148L34.4442 31.4012M31.6759 34.1692L31.6759 34.1692L31.6879 34.1912C31.5755 34.2526 31.5059 34.3705 31.5059 34.4984C31.5059 34.626 31.5755 34.7439 31.6879 34.8051L32.4347 35.2137L31.6759 34.1692ZM31.6759 34.1692L32.4227 33.7609M31.6759 34.1692L32.4227 33.7609M34.4442 31.4012L34.0364 32.148L34.4442 31.4012ZM32.4227 33.7609L32.4227 33.7609C33.1053 33.3879 33.6631 32.83 34.0364 32.148L32.4227 33.7609ZM34.7734 36.6347L34.8531 36.4893L34.7734 36.6347ZM34.7734 36.6347L34.6939 36.4893L34.6939 36.4893C34.2517 35.6812 33.5911 35.0206 32.7822 34.5782L34.7734 36.6347ZM34.6942 32.5075L34.6941 32.5075C34.2517 33.3156 33.5911 33.9765 32.7822 34.4186L34.6942 32.5075ZM34.6942 32.5075L34.7734 32.3622L34.8529 32.5075C35.2945 33.3156 35.9556 33.9765 36.7645 34.4192L36.7646 34.4192M34.6942 32.5075L36.7646 34.4192M36.7646 34.4192L36.9099 34.4984L36.7645 34.5781L36.7646 34.4192ZM37.8708 34.1692L37.124 33.7614L34.7734 37.7659C34.9012 37.7659 35.0189 37.696 35.08 37.5836L35.102 37.5956L35.102 37.5955L35.5111 36.8488L35.5112 36.8488C35.8836 36.167 36.4415 35.6092 37.124 35.2356L37.8708 34.827C37.9912 34.7615 38.0659 34.6351 38.0659 34.4984C38.0659 34.3614 37.9912 34.235 37.8708 34.1692ZM32.7822 34.5781L32.6367 34.4984L32.7822 34.4186L32.7822 34.5781ZM36.7645 34.5782C35.9556 35.0206 35.2945 35.6811 34.8531 36.4893L36.7645 34.5782Z" fill="white" stroke="white" stroke-width="0.05"/>
<path d="M34 12.6665H37.3333" stroke="white" stroke-linecap="round"/>
<path d="M35.6665 11L35.6665 14.3333" stroke="white" stroke-linecap="round"/>
<path d="M28.4089 28.7521C29.2415 28.7771 29.9112 29.4621 29.9112 30.301C29.9112 30.9646 29.4902 31.5246 28.9055 31.7449V34.6306C28.9055 35.3866 28.3117 36.0064 27.5659 36.048V36.3681C27.5659 37.3505 26.7666 38.1498 25.7843 38.1498H22.3105C21.3276 38.1498 20.5283 37.3505 20.5283 36.3681V36.048C19.7824 36.0062 19.1887 35.3866 19.1887 34.6306V31.7449C18.6041 31.5243 18.1832 30.9646 18.1832 30.301C18.1832 29.462 18.8532 28.7769 19.686 28.7521C19.5794 27.0196 18.9256 25.433 17.8098 24.2422C16.2353 22.5629 15.4169 20.3667 15.506 18.0601L28.4089 28.7521ZM28.4089 28.7521C28.5167 27.0268 29.1771 25.4324 30.3058 24.2197L30.3059 24.2197C31.7818 22.6335 32.5947 20.5658 32.5947 18.3979C32.5947 16.0485 31.6125 13.7779 29.8997 12.1681C28.1634 10.5361 25.8874 9.71844 23.5031 9.86726L28.4089 28.7521ZM29.2152 12.8965L29.2152 12.8965C30.7505 14.3394 31.5952 16.2923 31.5952 18.3979C31.5952 20.3127 30.8774 22.1376 29.5738 23.5384L29.5738 23.5384C28.2705 24.9391 27.5179 26.7764 27.408 28.7513H25.8411V20.7465H26.9379C28.094 20.7465 29.0339 19.8065 29.0339 18.6504C29.0339 17.4946 28.094 16.5541 26.9379 16.5541C25.7821 16.5541 24.8416 17.4946 24.8416 18.6504V19.7469H23.2527V18.6504C23.2527 17.4946 22.3125 16.5541 21.1566 16.5541C20.0005 16.5541 19.0606 17.4946 19.0606 18.6504C19.0606 19.8065 20.0005 20.7465 21.1566 20.7465H22.2528V28.7513H20.6867C20.5781 26.7685 19.8318 24.9383 18.5391 23.5588L18.4296 23.6614L18.5391 23.5588C17.1487 22.0753 16.4263 20.1366 16.5048 18.0984C16.6521 14.2794 19.7543 11.1014 23.5646 10.8649C25.6784 10.7356 27.6818 11.4552 29.2152 12.8965ZM23.503 9.86726C19.1841 10.135 15.6726 13.733 15.506 18.0601L23.503 9.86726ZM26.5661 36.3681C26.5661 36.7992 26.2152 37.1502 25.7843 37.1502H22.3105C21.8789 37.1502 21.5279 36.799 21.5279 36.3681V36.0502H26.5661V36.3681ZM27.4858 35.0504H20.6087C20.377 35.0504 20.1885 34.862 20.1885 34.6306V31.8507H27.9057V34.6306C27.9057 34.8621 27.7174 35.0504 27.4858 35.0504ZM28.9117 30.301C28.9117 30.6041 28.6648 30.8509 28.3616 30.8509H19.7329C19.4297 30.8509 19.1828 30.6041 19.1828 30.301C19.1828 29.9977 19.4298 29.7509 19.7329 29.7509H28.3616C28.6647 29.7509 28.9117 29.9977 28.9117 30.301ZM22.2528 19.7469H21.1566C20.5522 19.7469 20.0604 19.2552 20.0604 18.6504C20.0604 18.0459 20.5522 17.554 21.1566 17.554C21.761 17.554 22.2528 18.0459 22.2528 18.6504V19.7469ZM24.8416 28.7513H23.2527V20.7465H24.8416V28.7513ZM25.8411 19.7469V18.6504C25.8411 18.046 26.3334 17.554 26.9379 17.554C27.5423 17.554 28.0343 18.046 28.0343 18.6504C28.0343 19.2551 27.5423 19.7469 26.9379 19.7469H25.8411Z" fill="white" stroke="white" stroke-width="0.3"/>
<path d="M11 11.6665H14.3333" stroke="white" stroke-linecap="round"/>
<path d="M12.6665 10L12.6665 13.3333" stroke="white" stroke-linecap="round"/>
</g>
<defs>
<clipPath id="clip0_2483_8621">
<rect width="48" height="48" fill="white"/>
</clipPath>
</defs>
</svg>
