<svg width="48" height="48" viewBox="0 0 48 48" fill="none" xmlns="http://www.w3.org/2000/svg">
<g clip-path="url(#clip0_2483_8593)">
<rect width="48" height="48" rx="8" fill="#353535"/>
<mask id="path-2-outside-1_2483_8593" maskUnits="userSpaceOnUse" x="9" y="10" width="30" height="28" fill="black">
<rect fill="white" x="9" y="10" width="30" height="28"/>
<path d="M18.9977 25.6331C18.5086 26.1354 18.3235 27.1863 18.4887 27.7217C18.568 28.0587 18.2971 28.3892 17.9534 28.3892C16.7835 28.3033 17.4577 25.5406 18.1583 24.9325C18.6275 24.384 19.4537 25.0713 18.9977 25.6331ZM20.8549 19.3939C20.8747 18.6735 19.8106 18.6206 19.7577 19.341C19.6321 20.3457 20.3393 21.727 20.9937 22.1963C21.5489 22.6589 22.2494 21.846 21.7075 21.3635C21.258 21.0396 20.769 20.0879 20.8549 19.3939ZM23.7365 12.1369L26.7504 12.1104C27.3849 12.1038 27.9136 12.6194 27.9202 13.2538L27.9467 15.7456C28.568 15.924 29.1694 16.162 29.7378 16.466L31.4827 14.6815C31.9057 14.2254 32.679 14.2188 33.1152 14.6616L35.2764 16.7766C35.7325 17.1996 35.7391 17.9729 35.2963 18.4091L33.5514 20.1936C33.8686 20.762 34.1198 21.3569 34.3115 21.9716L36.8032 21.9451C37.4443 21.9385 37.9664 22.454 37.973 23.0885L37.9995 26.1024C38.0193 26.7237 37.4773 27.2788 36.8561 27.2722L34.3643 27.2987C34.1859 27.92 33.948 28.5214 33.6439 29.0964L35.4218 30.8413C35.8779 31.2643 35.8845 32.0442 35.4351 32.4804L33.3267 34.635C32.8772 35.0911 32.1436 35.0977 31.6876 34.6549L29.903 32.91C29.3346 33.2272 28.7398 33.485 28.1251 33.6701L28.1516 36.1684C28.1516 36.8095 27.636 37.3316 27.0082 37.3382L23.9877 37.3647C23.4854 37.3779 23.0095 37.0276 22.8773 36.5451C21.9256 37.986 19.5793 38.138 18.4557 36.7897C16.7835 37.2325 15.0585 35.9767 14.9395 34.2715C12.9237 34.5293 11.2449 32.3218 12.0182 30.4447C9.93626 29.8763 9.27533 27.0277 10.9409 25.6067C9.48683 24.3575 9.84373 21.7865 11.5688 20.9868C10.3791 19.1494 11.8199 16.5916 14.0142 16.6577C13.8886 14.8467 15.6005 13.3464 17.3718 13.7099C17.4775 10.8348 21.3836 9.9624 22.7121 12.4938C22.7782 12.4872 22.8443 12.4806 22.917 12.4806C23.1417 12.2624 23.4325 12.1369 23.7365 12.1369ZM25.0518 29.9292L25.032 32.943C25.032 33.7163 24.5958 34.4434 23.915 34.8135L23.9282 36.2014C23.9282 36.2279 23.9613 36.2609 23.9877 36.2609L27.0082 36.2345C27.0412 36.2345 27.0676 36.2014 27.0676 36.1684L27.0346 33.2537C27.0346 33.0025 27.1998 32.7778 27.451 32.7183C28.2441 32.5134 29.0042 32.1896 29.7114 31.7534C29.9229 31.6212 30.2071 31.6476 30.3855 31.8261L32.4675 33.8683C32.4939 33.8948 32.5269 33.8882 32.5534 33.8683L34.6618 31.7137C34.6816 31.7005 34.6882 31.6542 34.6618 31.6344L32.5798 29.5921C32.4014 29.4137 32.3617 29.1361 32.4939 28.9246C32.9169 28.2108 33.2209 27.4441 33.4126 26.6377C33.4721 26.3932 33.6902 26.2147 33.9413 26.2147L36.8561 26.1817C36.8891 26.1817 36.9155 26.1553 36.9155 26.1222L36.8891 23.1084C36.8891 23.0753 36.8627 23.0489 36.8296 23.0489L33.9149 23.0819C33.6638 23.0819 33.439 22.9167 33.3796 22.6655C33.1747 21.8724 32.8508 21.1057 32.4146 20.4051C32.2824 20.187 32.3155 19.9094 32.4873 19.731L34.5296 17.6491C34.5494 17.6292 34.5494 17.5896 34.5296 17.5697L32.3683 15.4548C32.3485 15.4349 32.3088 15.4349 32.289 15.4548L30.2467 17.5367C30.0683 17.7151 29.7973 17.7548 29.5726 17.6226C28.8588 17.1996 28.0921 16.8956 27.2858 16.7039C27.0412 16.6444 26.8628 16.4263 26.8628 16.1752L26.8297 13.2605C26.8297 13.2274 26.8033 13.201 26.7702 13.201L24.6552 13.2208C24.9791 13.6174 25.1774 14.1197 25.1708 14.6352L25.1311 19.5327C29.4867 19.2948 32.17 24.3773 29.5395 27.8605C28.4622 29.2815 26.7901 30.0415 25.0518 29.9292ZM28.6671 27.1995C30.7623 24.4567 28.568 20.3655 25.1245 20.6431C25.1179 21.0991 25.0716 27.3582 25.0716 28.0059L25.065 28.8254C26.453 28.9378 27.8013 28.3363 28.6671 27.1995ZM23.0227 13.5711C22.7319 13.5513 22.4609 13.7958 22.1767 13.6438C22.0379 13.5777 21.9322 13.4587 21.8859 13.3067C21.2911 11.4297 18.5086 11.8461 18.4821 13.809C18.4689 14.5162 18.958 15.2829 19.7181 15.5341C20.2931 15.7257 20.1411 16.6114 19.5396 16.6048C18.7068 16.4924 17.8608 15.6002 17.6163 14.9392C16.5059 14.3642 15.1048 15.2366 15.118 16.4924C15.118 16.7039 15.1576 16.922 15.2369 17.1401C15.4154 17.5565 14.9726 18.0192 14.5496 17.8606C13.4524 17.4706 12.2429 18.3298 12.2495 19.4931C12.1834 21.0396 14.2984 21.8394 15.5806 21.1917C15.8582 21.0661 16.1821 21.1917 16.3077 21.4692C16.6183 22.3813 15.1114 22.4805 14.5165 22.5135C13.7168 22.5333 12.8576 22.1831 12.4148 21.8526C10.8484 22.2425 10.6831 24.4897 12.1768 25.111C12.613 25.2828 12.613 25.9504 12.1702 26.1222C10.5047 26.8228 10.8814 29.2815 12.6725 29.4533C13.0096 28.8849 15.7459 27.5961 15.845 28.9312C15.8384 29.2352 15.5806 29.4864 15.2832 29.4665C14.1134 29.4335 12.9435 30.3059 12.9501 31.4427C12.9105 32.5333 14.0274 33.4321 15.0849 33.1347C15.2237 32.6787 15.541 31.9979 16.2416 31.5154C16.7373 31.1982 18.0129 30.5769 18.1979 31.5022C18.2178 32.3019 17.3916 31.9847 16.8628 32.4209C16.1424 33.0025 16.0895 33.4652 16.0367 34.027C16.0301 34.9853 16.8034 35.7718 17.7617 35.7784C18.0657 35.8049 18.3565 35.6396 18.6606 35.6C18.839 35.6 19.0175 35.6925 19.1232 35.8511C20.0089 37.2391 22.2164 36.6641 22.3089 35.025C21.1655 34.8069 20.3724 33.518 20.6566 32.335C20.7161 32.0376 21.0069 31.8459 21.3043 31.9054C21.6017 31.9649 21.7934 32.2557 21.7339 32.5531C21.377 34.1922 23.8489 34.5623 23.9348 32.943L24.0141 22.573C24.0274 20.9075 24.0604 16.3668 24.0736 14.6352C24.0802 14.047 23.5911 13.5645 23.0227 13.5711Z"/>
</mask>
<path d="M18.9977 25.6331C18.5086 26.1354 18.3235 27.1863 18.4887 27.7217C18.568 28.0587 18.2971 28.3892 17.9534 28.3892C16.7835 28.3033 17.4577 25.5406 18.1583 24.9325C18.6275 24.384 19.4537 25.0713 18.9977 25.6331ZM20.8549 19.3939C20.8747 18.6735 19.8106 18.6206 19.7577 19.341C19.6321 20.3457 20.3393 21.727 20.9937 22.1963C21.5489 22.6589 22.2494 21.846 21.7075 21.3635C21.258 21.0396 20.769 20.0879 20.8549 19.3939ZM23.7365 12.1369L26.7504 12.1104C27.3849 12.1038 27.9136 12.6194 27.9202 13.2538L27.9467 15.7456C28.568 15.924 29.1694 16.162 29.7378 16.466L31.4827 14.6815C31.9057 14.2254 32.679 14.2188 33.1152 14.6616L35.2764 16.7766C35.7325 17.1996 35.7391 17.9729 35.2963 18.4091L33.5514 20.1936C33.8686 20.762 34.1198 21.3569 34.3115 21.9716L36.8032 21.9451C37.4443 21.9385 37.9664 22.454 37.973 23.0885L37.9995 26.1024C38.0193 26.7237 37.4773 27.2788 36.8561 27.2722L34.3643 27.2987C34.1859 27.92 33.948 28.5214 33.6439 29.0964L35.4218 30.8413C35.8779 31.2643 35.8845 32.0442 35.4351 32.4804L33.3267 34.635C32.8772 35.0911 32.1436 35.0977 31.6876 34.6549L29.903 32.91C29.3346 33.2272 28.7398 33.485 28.1251 33.6701L28.1516 36.1684C28.1516 36.8095 27.636 37.3316 27.0082 37.3382L23.9877 37.3647C23.4854 37.3779 23.0095 37.0276 22.8773 36.5451C21.9256 37.986 19.5793 38.138 18.4557 36.7897C16.7835 37.2325 15.0585 35.9767 14.9395 34.2715C12.9237 34.5293 11.2449 32.3218 12.0182 30.4447C9.93626 29.8763 9.27533 27.0277 10.9409 25.6067C9.48683 24.3575 9.84373 21.7865 11.5688 20.9868C10.3791 19.1494 11.8199 16.5916 14.0142 16.6577C13.8886 14.8467 15.6005 13.3464 17.3718 13.7099C17.4775 10.8348 21.3836 9.9624 22.7121 12.4938C22.7782 12.4872 22.8443 12.4806 22.917 12.4806C23.1417 12.2624 23.4325 12.1369 23.7365 12.1369ZM25.0518 29.9292L25.032 32.943C25.032 33.7163 24.5958 34.4434 23.915 34.8135L23.9282 36.2014C23.9282 36.2279 23.9613 36.2609 23.9877 36.2609L27.0082 36.2345C27.0412 36.2345 27.0676 36.2014 27.0676 36.1684L27.0346 33.2537C27.0346 33.0025 27.1998 32.7778 27.451 32.7183C28.2441 32.5134 29.0042 32.1896 29.7114 31.7534C29.9229 31.6212 30.2071 31.6476 30.3855 31.8261L32.4675 33.8683C32.4939 33.8948 32.5269 33.8882 32.5534 33.8683L34.6618 31.7137C34.6816 31.7005 34.6882 31.6542 34.6618 31.6344L32.5798 29.5921C32.4014 29.4137 32.3617 29.1361 32.4939 28.9246C32.9169 28.2108 33.2209 27.4441 33.4126 26.6377C33.4721 26.3932 33.6902 26.2147 33.9413 26.2147L36.8561 26.1817C36.8891 26.1817 36.9155 26.1553 36.9155 26.1222L36.8891 23.1084C36.8891 23.0753 36.8627 23.0489 36.8296 23.0489L33.9149 23.0819C33.6638 23.0819 33.439 22.9167 33.3796 22.6655C33.1747 21.8724 32.8508 21.1057 32.4146 20.4051C32.2824 20.187 32.3155 19.9094 32.4873 19.731L34.5296 17.6491C34.5494 17.6292 34.5494 17.5896 34.5296 17.5697L32.3683 15.4548C32.3485 15.4349 32.3088 15.4349 32.289 15.4548L30.2467 17.5367C30.0683 17.7151 29.7973 17.7548 29.5726 17.6226C28.8588 17.1996 28.0921 16.8956 27.2858 16.7039C27.0412 16.6444 26.8628 16.4263 26.8628 16.1752L26.8297 13.2605C26.8297 13.2274 26.8033 13.201 26.7702 13.201L24.6552 13.2208C24.9791 13.6174 25.1774 14.1197 25.1708 14.6352L25.1311 19.5327C29.4867 19.2948 32.17 24.3773 29.5395 27.8605C28.4622 29.2815 26.7901 30.0415 25.0518 29.9292ZM28.6671 27.1995C30.7623 24.4567 28.568 20.3655 25.1245 20.6431C25.1179 21.0991 25.0716 27.3582 25.0716 28.0059L25.065 28.8254C26.453 28.9378 27.8013 28.3363 28.6671 27.1995ZM23.0227 13.5711C22.7319 13.5513 22.4609 13.7958 22.1767 13.6438C22.0379 13.5777 21.9322 13.4587 21.8859 13.3067C21.2911 11.4297 18.5086 11.8461 18.4821 13.809C18.4689 14.5162 18.958 15.2829 19.7181 15.5341C20.2931 15.7257 20.1411 16.6114 19.5396 16.6048C18.7068 16.4924 17.8608 15.6002 17.6163 14.9392C16.5059 14.3642 15.1048 15.2366 15.118 16.4924C15.118 16.7039 15.1576 16.922 15.2369 17.1401C15.4154 17.5565 14.9726 18.0192 14.5496 17.8606C13.4524 17.4706 12.2429 18.3298 12.2495 19.4931C12.1834 21.0396 14.2984 21.8394 15.5806 21.1917C15.8582 21.0661 16.1821 21.1917 16.3077 21.4692C16.6183 22.3813 15.1114 22.4805 14.5165 22.5135C13.7168 22.5333 12.8576 22.1831 12.4148 21.8526C10.8484 22.2425 10.6831 24.4897 12.1768 25.111C12.613 25.2828 12.613 25.9504 12.1702 26.1222C10.5047 26.8228 10.8814 29.2815 12.6725 29.4533C13.0096 28.8849 15.7459 27.5961 15.845 28.9312C15.8384 29.2352 15.5806 29.4864 15.2832 29.4665C14.1134 29.4335 12.9435 30.3059 12.9501 31.4427C12.9105 32.5333 14.0274 33.4321 15.0849 33.1347C15.2237 32.6787 15.541 31.9979 16.2416 31.5154C16.7373 31.1982 18.0129 30.5769 18.1979 31.5022C18.2178 32.3019 17.3916 31.9847 16.8628 32.4209C16.1424 33.0025 16.0895 33.4652 16.0367 34.027C16.0301 34.9853 16.8034 35.7718 17.7617 35.7784C18.0657 35.8049 18.3565 35.6396 18.6606 35.6C18.839 35.6 19.0175 35.6925 19.1232 35.8511C20.0089 37.2391 22.2164 36.6641 22.3089 35.025C21.1655 34.8069 20.3724 33.518 20.6566 32.335C20.7161 32.0376 21.0069 31.8459 21.3043 31.9054C21.6017 31.9649 21.7934 32.2557 21.7339 32.5531C21.377 34.1922 23.8489 34.5623 23.9348 32.943L24.0141 22.573C24.0274 20.9075 24.0604 16.3668 24.0736 14.6352C24.0802 14.047 23.5911 13.5645 23.0227 13.5711Z" fill="white"/>
<path d="M18.9977 25.6331C18.5086 26.1354 18.3235 27.1863 18.4887 27.7217C18.568 28.0587 18.2971 28.3892 17.9534 28.3892C16.7835 28.3033 17.4577 25.5406 18.1583 24.9325C18.6275 24.384 19.4537 25.0713 18.9977 25.6331ZM20.8549 19.3939C20.8747 18.6735 19.8106 18.6206 19.7577 19.341C19.6321 20.3457 20.3393 21.727 20.9937 22.1963C21.5489 22.6589 22.2494 21.846 21.7075 21.3635C21.258 21.0396 20.769 20.0879 20.8549 19.3939ZM23.7365 12.1369L26.7504 12.1104C27.3849 12.1038 27.9136 12.6194 27.9202 13.2538L27.9467 15.7456C28.568 15.924 29.1694 16.162 29.7378 16.466L31.4827 14.6815C31.9057 14.2254 32.679 14.2188 33.1152 14.6616L35.2764 16.7766C35.7325 17.1996 35.7391 17.9729 35.2963 18.4091L33.5514 20.1936C33.8686 20.762 34.1198 21.3569 34.3115 21.9716L36.8032 21.9451C37.4443 21.9385 37.9664 22.454 37.973 23.0885L37.9995 26.1024C38.0193 26.7237 37.4773 27.2788 36.8561 27.2722L34.3643 27.2987C34.1859 27.92 33.948 28.5214 33.6439 29.0964L35.4218 30.8413C35.8779 31.2643 35.8845 32.0442 35.4351 32.4804L33.3267 34.635C32.8772 35.0911 32.1436 35.0977 31.6876 34.6549L29.903 32.91C29.3346 33.2272 28.7398 33.485 28.1251 33.6701L28.1516 36.1684C28.1516 36.8095 27.636 37.3316 27.0082 37.3382L23.9877 37.3647C23.4854 37.3779 23.0095 37.0276 22.8773 36.5451C21.9256 37.986 19.5793 38.138 18.4557 36.7897C16.7835 37.2325 15.0585 35.9767 14.9395 34.2715C12.9237 34.5293 11.2449 32.3218 12.0182 30.4447C9.93626 29.8763 9.27533 27.0277 10.9409 25.6067C9.48683 24.3575 9.84373 21.7865 11.5688 20.9868C10.3791 19.1494 11.8199 16.5916 14.0142 16.6577C13.8886 14.8467 15.6005 13.3464 17.3718 13.7099C17.4775 10.8348 21.3836 9.9624 22.7121 12.4938C22.7782 12.4872 22.8443 12.4806 22.917 12.4806C23.1417 12.2624 23.4325 12.1369 23.7365 12.1369ZM25.0518 29.9292L25.032 32.943C25.032 33.7163 24.5958 34.4434 23.915 34.8135L23.9282 36.2014C23.9282 36.2279 23.9613 36.2609 23.9877 36.2609L27.0082 36.2345C27.0412 36.2345 27.0676 36.2014 27.0676 36.1684L27.0346 33.2537C27.0346 33.0025 27.1998 32.7778 27.451 32.7183C28.2441 32.5134 29.0042 32.1896 29.7114 31.7534C29.9229 31.6212 30.2071 31.6476 30.3855 31.8261L32.4675 33.8683C32.4939 33.8948 32.5269 33.8882 32.5534 33.8683L34.6618 31.7137C34.6816 31.7005 34.6882 31.6542 34.6618 31.6344L32.5798 29.5921C32.4014 29.4137 32.3617 29.1361 32.4939 28.9246C32.9169 28.2108 33.2209 27.4441 33.4126 26.6377C33.4721 26.3932 33.6902 26.2147 33.9413 26.2147L36.8561 26.1817C36.8891 26.1817 36.9155 26.1553 36.9155 26.1222L36.8891 23.1084C36.8891 23.0753 36.8627 23.0489 36.8296 23.0489L33.9149 23.0819C33.6638 23.0819 33.439 22.9167 33.3796 22.6655C33.1747 21.8724 32.8508 21.1057 32.4146 20.4051C32.2824 20.187 32.3155 19.9094 32.4873 19.731L34.5296 17.6491C34.5494 17.6292 34.5494 17.5896 34.5296 17.5697L32.3683 15.4548C32.3485 15.4349 32.3088 15.4349 32.289 15.4548L30.2467 17.5367C30.0683 17.7151 29.7973 17.7548 29.5726 17.6226C28.8588 17.1996 28.0921 16.8956 27.2858 16.7039C27.0412 16.6444 26.8628 16.4263 26.8628 16.1752L26.8297 13.2605C26.8297 13.2274 26.8033 13.201 26.7702 13.201L24.6552 13.2208C24.9791 13.6174 25.1774 14.1197 25.1708 14.6352L25.1311 19.5327C29.4867 19.2948 32.17 24.3773 29.5395 27.8605C28.4622 29.2815 26.7901 30.0415 25.0518 29.9292ZM28.6671 27.1995C30.7623 24.4567 28.568 20.3655 25.1245 20.6431C25.1179 21.0991 25.0716 27.3582 25.0716 28.0059L25.065 28.8254C26.453 28.9378 27.8013 28.3363 28.6671 27.1995ZM23.0227 13.5711C22.7319 13.5513 22.4609 13.7958 22.1767 13.6438C22.0379 13.5777 21.9322 13.4587 21.8859 13.3067C21.2911 11.4297 18.5086 11.8461 18.4821 13.809C18.4689 14.5162 18.958 15.2829 19.7181 15.5341C20.2931 15.7257 20.1411 16.6114 19.5396 16.6048C18.7068 16.4924 17.8608 15.6002 17.6163 14.9392C16.5059 14.3642 15.1048 15.2366 15.118 16.4924C15.118 16.7039 15.1576 16.922 15.2369 17.1401C15.4154 17.5565 14.9726 18.0192 14.5496 17.8606C13.4524 17.4706 12.2429 18.3298 12.2495 19.4931C12.1834 21.0396 14.2984 21.8394 15.5806 21.1917C15.8582 21.0661 16.1821 21.1917 16.3077 21.4692C16.6183 22.3813 15.1114 22.4805 14.5165 22.5135C13.7168 22.5333 12.8576 22.1831 12.4148 21.8526C10.8484 22.2425 10.6831 24.4897 12.1768 25.111C12.613 25.2828 12.613 25.9504 12.1702 26.1222C10.5047 26.8228 10.8814 29.2815 12.6725 29.4533C13.0096 28.8849 15.7459 27.5961 15.845 28.9312C15.8384 29.2352 15.5806 29.4864 15.2832 29.4665C14.1134 29.4335 12.9435 30.3059 12.9501 31.4427C12.9105 32.5333 14.0274 33.4321 15.0849 33.1347C15.2237 32.6787 15.541 31.9979 16.2416 31.5154C16.7373 31.1982 18.0129 30.5769 18.1979 31.5022C18.2178 32.3019 17.3916 31.9847 16.8628 32.4209C16.1424 33.0025 16.0895 33.4652 16.0367 34.027C16.0301 34.9853 16.8034 35.7718 17.7617 35.7784C18.0657 35.8049 18.3565 35.6396 18.6606 35.6C18.839 35.6 19.0175 35.6925 19.1232 35.8511C20.0089 37.2391 22.2164 36.6641 22.3089 35.025C21.1655 34.8069 20.3724 33.518 20.6566 32.335C20.7161 32.0376 21.0069 31.8459 21.3043 31.9054C21.6017 31.9649 21.7934 32.2557 21.7339 32.5531C21.377 34.1922 23.8489 34.5623 23.9348 32.943L24.0141 22.573C24.0274 20.9075 24.0604 16.3668 24.0736 14.6352C24.0802 14.047 23.5911 13.5645 23.0227 13.5711Z" stroke="white" stroke-width="0.2" mask="url(#path-2-outside-1_2483_8593)"/>
</g>
<defs>
<clipPath id="clip0_2483_8593">
<rect width="48" height="48" fill="white"/>
</clipPath>
</defs>
</svg>
