<svg width="48" height="48" viewBox="0 0 48 48" fill="none" xmlns="http://www.w3.org/2000/svg">
<g clip-path="url(#clip0_2483_8608)">
<rect width="48" height="48" rx="8" fill="#353535"/>
<path d="M28.5938 19.2332C31.7306 22.37 33.9767 25.7525 35.0903 28.6594C35.6474 30.1138 35.9082 31.4154 35.8796 32.4892C35.8512 33.5576 35.5403 34.3551 35 34.8955C34.4596 35.4358 33.6621 35.7467 32.5937 35.7751C31.5199 35.8037 30.2183 35.5429 28.7639 34.9858C25.857 33.8722 22.4745 31.6261 19.3377 28.4893C16.2009 25.3525 13.9548 21.97 12.8413 19.0631C12.2841 17.6088 12.0234 16.3071 12.0519 15.2333C12.0803 14.165 12.3913 13.3674 12.9316 12.8271C13.4719 12.2868 14.2695 11.9758 15.3378 11.9474C16.4116 11.9189 17.7133 12.1796 19.1676 12.7368C22.0745 13.8503 25.457 16.0965 28.5938 19.2332Z" stroke="white" stroke-width="1.5"/>
<path d="M28.5938 28.4893C25.457 31.6261 22.0745 33.8722 19.1676 34.9858C17.7133 35.5429 16.4116 35.8037 15.3378 35.7751C14.2695 35.7467 13.4719 35.4358 12.9316 34.8955C12.3913 34.3551 12.0803 33.5576 12.0519 32.4892C12.0234 31.4154 12.2841 30.1138 12.8413 28.6594C13.9548 25.7525 16.2009 22.37 19.3377 19.2332C22.4745 16.0965 25.857 13.8503 28.7639 12.7368C30.2183 12.1796 31.5199 11.9189 32.5937 11.9474C33.6621 11.9758 34.4596 12.2868 35 12.8271C35.5403 13.3674 35.8512 14.165 35.8796 15.2333C35.9082 16.3071 35.6474 17.6088 35.0903 19.0631C33.9767 21.97 31.7306 25.3525 28.5938 28.4893Z" stroke="white" stroke-width="1.5"/>
<circle cx="18.8292" cy="12.5099" r="1.75988" fill="#353535" stroke="white" stroke-width="1.5"/>
<circle cx="29.4742" cy="35.4903" r="1.75988" fill="#353535" stroke="white" stroke-width="1.5"/>
</g>
<defs>
<clipPath id="clip0_2483_8608">
<rect width="48" height="48" fill="white"/>
</clipPath>
</defs>
</svg>
