<svg width="48" height="48" viewBox="0 0 48 48" fill="none" xmlns="http://www.w3.org/2000/svg">
<g clip-path="url(#clip0_2483_8581)">
<rect width="48" height="48" rx="8" fill="#353535"/>
<path d="M19.2835 24.0002C19.2835 26.6014 21.3989 28.7168 24.0002 28.7168C26.6014 28.7168 28.7168 26.6014 28.7168 24.0002C28.7168 21.3989 26.6014 19.2835 24.0002 19.2835C21.3989 19.2835 19.2835 21.3989 19.2835 24.0002ZM20.5502 24.0002C20.5502 22.0981 22.0981 20.5502 24.0002 20.5502C25.9022 20.5502 27.4502 22.0981 27.4502 24.0002C27.4502 25.9022 25.9022 27.4502 24.0002 27.4502C22.0981 27.4502 20.5502 25.9022 20.5502 24.0002Z" fill="white" stroke="white" stroke-width="0.1"/>
<path d="M27.3405 22.9862L27.3406 22.9863C27.4647 23.1116 27.6281 23.175 27.7915 23.175C27.9512 23.175 28.112 23.1142 28.236 22.9927L28.2361 22.9926L37.3384 14.0315C37.7971 13.5799 38.0498 12.9767 38.0498 12.3333C38.0498 11.0189 36.981 9.95 35.6665 9.95C35.2972 9.95 34.9443 10.0322 34.6177 10.1931L26.7766 14.0408L26.7766 14.0408C25.7527 14.5439 25.1165 15.5646 25.1165 16.7048V20.2083C25.1165 20.5579 25.4002 20.8417 25.7498 20.8417C26.0995 20.8417 26.3832 20.5579 26.3832 20.2083V16.7048C26.3832 16.0507 26.748 15.4661 27.3341 15.1782L35.1764 11.3306L35.1767 11.3304C35.3282 11.2547 35.4931 11.2167 35.6665 11.2167C36.2817 11.2167 36.7832 11.7181 36.7832 12.3333C36.7832 12.6349 36.6649 12.9172 36.4504 13.1295C36.4504 13.1296 36.4504 13.1296 36.4503 13.1296L27.3481 22.0907L27.3832 22.1263L27.3481 22.0907C27.0985 22.3365 27.0961 22.7367 27.3405 22.9862Z" fill="white" stroke="white" stroke-width="0.1"/>
<path d="M25.0075 28.2361L25.0074 28.236C24.763 27.9866 24.7655 27.5863 25.015 27.3406C25.2633 27.0948 25.6649 27.0974 25.9106 27.3481L25.9106 27.3481L25.875 27.3832L25.9107 27.3482L25.0075 28.2361ZM25.0075 28.2361L33.9687 37.3384C34.4202 37.7971 35.0234 38.0498 35.6668 38.0498M25.0075 28.2361L35.6668 38.0498M35.6668 38.0498C36.9812 38.0498 38.0501 36.981 38.0501 35.6665C38.0501 35.2973 37.9679 34.9444 37.807 34.6178L35.6668 38.0498ZM32.8219 27.3341L32.8668 27.312L32.8219 27.334L32.8219 27.3341Z" fill="white" stroke="white" stroke-width="0.1"/>
<path d="M20.6593 25.0149L20.6594 25.015C20.9038 25.2645 20.9013 25.6647 20.6518 25.9105L20.6169 25.8751L20.6517 25.9105L11.5494 34.8716L11.5143 34.836L11.5494 34.8717C11.335 35.0827 11.2167 35.3651 11.2167 35.6667C11.2167 36.2819 11.7181 36.7834 12.3333 36.7834C12.5067 36.7834 12.6717 36.7454 12.8231 36.6696L12.8235 36.6695L20.6658 32.8218C21.2519 32.5339 21.6167 31.9493 21.6167 31.2952V27.7917C21.6167 27.4421 21.9004 27.1584 22.25 27.1584C22.5996 27.1584 22.8833 27.4421 22.8833 27.7917V31.2952C22.8833 32.4354 22.2471 33.4562 21.2232 33.9592L21.2232 33.9592L13.3821 37.8069L20.6593 25.0149ZM20.6593 25.0149C20.4125 24.7643 20.0122 24.7616 19.7637 25.0074C19.7637 25.0074 19.7637 25.0075 19.7637 25.0075L10.6614 33.9686C10.2027 34.4201 9.95 35.0233 9.95 35.6667C9.95 36.9811 11.0189 38.05 12.3333 38.05M20.6593 25.0149L12.3333 38.05M12.3333 38.05C12.7026 38.05 13.0555 37.9678 13.382 37.8069L12.3333 38.05Z" fill="white" stroke="white" stroke-width="0.1"/>
<path d="M22.1252 20.6167L13.164 11.5143L22.1252 20.6167ZM22.1252 20.6167C22.3515 20.8453 22.719 20.8488 22.95 20.6237L22.1252 20.6167ZM14.0408 21.2232L14.0408 21.2232C14.5439 22.2471 15.5646 22.8833 16.7048 22.8833H20.2083C20.5579 22.8833 20.8417 22.5996 20.8417 22.25C20.8417 21.9004 20.5579 21.6167 20.2083 21.6167H16.7048C16.0507 21.6167 15.4661 21.2519 15.1782 20.6658L11.3306 12.8235L11.3304 12.8231C11.2547 12.6717 11.2167 12.5067 11.2167 12.3333C11.2167 11.7181 11.7181 11.2167 12.3333 11.2167C12.6349 11.2167 12.9173 11.335 13.1284 11.5494L13.1284 11.5494L22.0895 20.6517L22.0896 20.6518C22.3353 20.9 22.7342 20.9038 22.9849 20.6595L22.9851 20.6593C23.2346 20.4135 23.2371 20.0133 22.9927 19.7638L22.9926 19.7638L14.0315 10.6614C13.5799 10.2027 12.9767 9.95 12.3333 9.95C11.0189 9.95 9.95 11.0189 9.95 12.3333C9.95 12.7026 10.0322 13.0555 10.1931 13.3821C10.1931 13.3821 10.1931 13.3821 10.1931 13.3821L14.0408 21.2232Z" fill="white" stroke="white" stroke-width="0.1"/>
</g>
<defs>
<clipPath id="clip0_2483_8581">
<rect width="48" height="48" fill="white"/>
</clipPath>
</defs>
</svg>
