<svg width="48" height="48" viewBox="0 0 48 48" fill="none" xmlns="http://www.w3.org/2000/svg">
<rect width="48" height="48" rx="8" fill="#353535"/>
<mask id="path-2-inside-1_4134_1773" fill="white">
<path fill-rule="evenodd" clip-rule="evenodd" d="M38.6122 30.5276C38.9276 29.8228 38.3249 29.0819 37.5527 29.0819C30.3795 29.0819 24.5645 23.2669 24.5645 16.0937C24.5645 14.3071 24.9252 12.6048 25.5777 11.0556C26.1489 9.69963 25.4714 8 24 8C15.1634 8 8 15.1634 8 24C8 32.8366 15.1634 40 24 40C30.5115 40 36.1145 36.1103 38.6122 30.5276Z"/>
</mask>
<path d="M25.5777 11.0556L24.1954 10.4733L25.5777 11.0556ZM38.6122 30.5276L39.9814 31.1402L38.6122 30.5276ZM37.5527 27.5819C31.2079 27.5819 26.0645 22.4385 26.0645 16.0937H23.0645C23.0645 24.0953 29.5511 30.5819 37.5527 30.5819V27.5819ZM26.0645 16.0937C26.0645 14.5107 26.3838 13.0061 26.9601 11.6379L24.1954 10.4733C23.4666 12.2035 23.0645 14.1036 23.0645 16.0937H26.0645ZM9.5 24C9.5 15.9919 15.9919 9.5 24 9.5V6.5C14.335 6.5 6.5 14.335 6.5 24H9.5ZM24 38.5C15.9919 38.5 9.5 32.0081 9.5 24H6.5C6.5 33.665 14.335 41.5 24 41.5V38.5ZM37.243 29.9151C34.978 34.9776 29.8987 38.5 24 38.5V41.5C31.1243 41.5 37.251 37.243 39.9814 31.1402L37.243 29.9151ZM26.9601 11.6379C27.4077 10.5753 27.3792 9.3655 26.9101 8.37652C26.422 7.34737 25.4073 6.5 24 6.5V9.5C24.0657 9.5 24.0863 9.51488 24.0954 9.52118C24.113 9.53331 24.1564 9.57111 24.1995 9.6621C24.2943 9.86193 24.3189 10.18 24.1954 10.4733L26.9601 11.6379ZM37.5527 30.5819C37.4586 30.5819 37.365 30.5388 37.2962 30.4483C37.2585 30.3987 37.2185 30.3217 37.2035 30.2177C37.1877 30.1074 37.2053 29.9994 37.243 29.9151L39.9814 31.1402C40.3891 30.229 40.1837 29.2895 39.6844 28.6327C39.2 27.9955 38.419 27.5819 37.5527 27.5819V30.5819Z" fill="white" mask="url(#path-2-inside-1_4134_1773)"/>
<path d="M29.333 17H32.6663" stroke="white" stroke-linecap="round"/>
<path d="M35.333 19.333H39.333" stroke="white" stroke-linecap="round"/>
<path d="M31 15.333L31 18.6663" stroke="white" stroke-linecap="round"/>
<path d="M37.333 17.333L37.333 21.333" stroke="white" stroke-linecap="round"/>
<circle cx="33" cy="22.333" r="1" fill="white"/>
<circle cx="34.333" cy="12.333" r="1" fill="white"/>
<mask id="path-10-inside-2_4134_1773" fill="white">
<path fill-rule="evenodd" clip-rule="evenodd" d="M37.5527 29.0819C38.3249 29.0819 38.9276 29.8228 38.6122 30.5276C36.1145 36.1103 30.5115 40 24 40C23.3726 40 22.7536 39.9639 22.1451 39.8936C22.4791 39.2231 22.667 38.467 22.667 37.667C22.667 34.9056 20.4284 32.667 17.667 32.667C15.6084 32.667 13.8404 33.9111 13.0737 35.6884C9.95147 32.7685 8 28.6121 8 24C8 15.1634 15.1634 8 24 8C25.4714 8 26.1489 9.69963 25.5777 11.0556C24.9252 12.6048 24.5645 14.3071 24.5645 16.0937C24.5645 23.2669 30.3795 29.0819 37.5527 29.0819Z"/>
</mask>
<path d="M38.6122 30.5276L37.243 29.9151L37.243 29.9151L38.6122 30.5276ZM22.1451 39.8936L20.8024 39.2248L19.849 41.1385L21.973 41.3837L22.1451 39.8936ZM13.0737 35.6884L12.0492 36.784L13.6066 38.2404L14.4511 36.2825L13.0737 35.6884ZM25.5777 11.0556L26.9601 11.6379L26.9601 11.6379L25.5777 11.0556ZM39.9814 31.1402C40.3891 30.229 40.1837 29.2895 39.6844 28.6327C39.2 27.9955 38.419 27.5819 37.5527 27.5819V30.5819C37.4586 30.5819 37.365 30.5388 37.2962 30.4483C37.2585 30.3987 37.2185 30.3217 37.2035 30.2177C37.1877 30.1074 37.2053 29.9994 37.243 29.9151L39.9814 31.1402ZM24 41.5C31.1243 41.5 37.251 37.243 39.9814 31.1402L37.243 29.9151C34.978 34.9776 29.8987 38.5 24 38.5V41.5ZM21.973 41.3837C22.6386 41.4606 23.315 41.5 24 41.5V38.5C23.4302 38.5 22.8687 38.4672 22.3171 38.4035L21.973 41.3837ZM21.167 37.667C21.167 38.2297 21.0353 38.7573 20.8024 39.2248L23.4877 40.5625C23.9229 39.6889 24.167 38.7043 24.167 37.667H21.167ZM17.667 34.167C19.6 34.167 21.167 35.734 21.167 37.667H24.167C24.167 34.0771 21.2568 31.167 17.667 31.167V34.167ZM14.4511 36.2825C14.9891 35.0353 16.2283 34.167 17.667 34.167V31.167C14.9885 31.167 12.6917 32.7869 11.6964 35.0943L14.4511 36.2825ZM6.5 24C6.5 29.0445 8.63629 33.5923 12.0492 36.784L14.0983 34.5928C11.2666 31.9447 9.5 28.1798 9.5 24H6.5ZM24 6.5C14.335 6.5 6.5 14.335 6.5 24H9.5C9.5 15.9919 15.9919 9.5 24 9.5V6.5ZM26.9601 11.6379C27.4077 10.5753 27.3792 9.3655 26.9101 8.37652C26.422 7.34737 25.4073 6.5 24 6.5V9.5C24.0657 9.5 24.0863 9.51488 24.0954 9.52118C24.113 9.53331 24.1564 9.57111 24.1995 9.6621C24.2943 9.86193 24.3189 10.18 24.1954 10.4733L26.9601 11.6379ZM26.0645 16.0937C26.0645 14.5107 26.3838 13.0061 26.9601 11.6379L24.1954 10.4733C23.4666 12.2035 23.0645 14.1036 23.0645 16.0937H26.0645ZM37.5527 27.5819C31.2079 27.5819 26.0645 22.4385 26.0645 16.0937H23.0645C23.0645 24.0953 29.5511 30.5819 37.5527 30.5819V27.5819Z" fill="white" mask="url(#path-10-inside-2_4134_1773)"/>
<circle cx="15.3337" cy="23.9997" r="1.91667" stroke="white" stroke-width="1.5"/>
</svg>
