<svg width="48" height="48" viewBox="0 0 48 48" fill="none" xmlns="http://www.w3.org/2000/svg">
<rect width="48" height="48" rx="8" fill="#353535"/>
<mask id="path-2-inside-1_2489_17289" fill="white">
<path fill-rule="evenodd" clip-rule="evenodd" d="M20.9031 21.7307C21.2846 21.3504 21.2846 20.7305 20.9031 20.3502L19.2491 18.6963L20.9031 17.0423C21.2846 16.6621 21.2846 16.0422 20.9031 15.6619C20.5228 15.2803 19.9029 15.2803 19.5226 15.6619L17.8686 17.3158L16.2147 15.6619C15.8344 15.2803 15.2145 15.2803 14.8342 15.6619C14.4527 16.0422 14.4527 16.6621 14.8342 17.0423L16.4882 18.6963L14.8342 20.3502C14.4527 20.7305 14.4527 21.3504 14.8342 21.7307C15.2145 22.1123 15.8344 22.1123 16.2147 21.7307L17.8687 20.0768L19.5226 21.7307C19.9029 22.1123 20.5228 22.1123 20.9031 21.7307Z"/>
</mask>
<path fill-rule="evenodd" clip-rule="evenodd" d="M20.9031 21.7307C21.2846 21.3504 21.2846 20.7305 20.9031 20.3502L19.2491 18.6963L20.9031 17.0423C21.2846 16.6621 21.2846 16.0422 20.9031 15.6619C20.5228 15.2803 19.9029 15.2803 19.5226 15.6619L17.8686 17.3158L16.2147 15.6619C15.8344 15.2803 15.2145 15.2803 14.8342 15.6619C14.4527 16.0422 14.4527 16.6621 14.8342 17.0423L16.4882 18.6963L14.8342 20.3502C14.4527 20.7305 14.4527 21.3504 14.8342 21.7307C15.2145 22.1123 15.8344 22.1123 16.2147 21.7307L17.8687 20.0768L19.5226 21.7307C19.9029 22.1123 20.5228 22.1123 20.9031 21.7307Z" fill="white"/>
<path d="M20.9031 20.3502L20.7263 20.527L20.7266 20.5273L20.9031 20.3502ZM20.9031 21.7307L20.7266 21.5536L20.726 21.5542L20.9031 21.7307ZM19.2491 18.6963L19.0723 18.5195L18.8956 18.6963L19.0723 18.8731L19.2491 18.6963ZM20.9031 17.0423L20.7266 16.8653L20.7263 16.8656L20.9031 17.0423ZM20.9031 15.6619L20.726 15.8383L20.7266 15.8389L20.9031 15.6619ZM19.5226 15.6619L19.6994 15.8386L19.6997 15.8383L19.5226 15.6619ZM17.8686 17.3158L17.6919 17.4926L17.8686 17.6694L18.0454 17.4926L17.8686 17.3158ZM16.2147 15.6619L16.0376 15.8383L16.0379 15.8386L16.2147 15.6619ZM14.8342 15.6619L15.0107 15.839L15.0113 15.8383L14.8342 15.6619ZM14.8342 17.0423L15.011 16.8656L15.0107 16.8653L14.8342 17.0423ZM16.4882 18.6963L16.665 18.8731L16.8417 18.6963L16.665 18.5195L16.4882 18.6963ZM14.8342 20.3502L15.0107 20.5273L15.011 20.527L14.8342 20.3502ZM14.8342 21.7307L15.0113 21.5542L15.0107 21.5536L14.8342 21.7307ZM16.2147 21.7307L16.0379 21.5539L16.0376 21.5542L16.2147 21.7307ZM17.8687 20.0768L18.0454 19.9L17.8687 19.7232L17.6919 19.9L17.8687 20.0768ZM19.5226 21.7307L19.6997 21.5542L19.6994 21.5539L19.5226 21.7307ZM20.7266 20.5273C21.0101 20.8099 21.0101 21.271 20.7266 21.5536L21.0795 21.9078C21.5592 21.4298 21.5592 20.6511 21.0795 20.1732L20.7266 20.5273ZM19.0723 18.8731L20.7263 20.527L21.0798 20.1735L19.4259 18.5195L19.0723 18.8731ZM20.7263 16.8656L19.0723 18.5195L19.4259 18.8731L21.0798 17.2191L20.7263 16.8656ZM20.7266 15.8389C21.0101 16.1215 21.0101 16.5827 20.7266 16.8653L21.0795 17.2194C21.5592 16.7414 21.5592 15.9628 21.0795 15.4848L20.7266 15.8389ZM19.6997 15.8383C19.9823 15.5548 20.4434 15.5548 20.726 15.8383L21.0801 15.4854C20.6022 15.0058 19.8235 15.0058 19.3455 15.4854L19.6997 15.8383ZM18.0454 17.4926L19.6994 15.8386L19.3458 15.4851L17.6919 17.139L18.0454 17.4926ZM16.0379 15.8386L17.6919 17.4926L18.0454 17.139L16.3915 15.4851L16.0379 15.8386ZM15.0113 15.8383C15.2939 15.5548 15.755 15.5548 16.0376 15.8383L16.3918 15.4854C15.9138 15.0058 15.1351 15.0058 14.6572 15.4854L15.0113 15.8383ZM15.0107 16.8653C14.7272 16.5827 14.7272 16.1215 15.0107 15.8389L14.6578 15.4848C14.1781 15.9628 14.1781 16.7414 14.6578 17.2194L15.0107 16.8653ZM16.665 18.5195L15.011 16.8656L14.6575 17.2191L16.3114 18.8731L16.665 18.5195ZM15.011 20.527L16.665 18.8731L16.3114 18.5195L14.6575 20.1735L15.011 20.527ZM15.0107 21.5536C14.7272 21.2711 14.7272 20.8099 15.0107 20.5273L14.6578 20.1732C14.1781 20.6511 14.1781 21.4298 14.6578 21.9078L15.0107 21.5536ZM16.0376 21.5542C15.755 21.8378 15.2939 21.8378 15.0113 21.5542L14.6572 21.9072C15.1351 22.3868 15.9138 22.3868 16.3918 21.9072L16.0376 21.5542ZM17.6919 19.9L16.0379 21.5539L16.3915 21.9075L18.0454 20.2535L17.6919 19.9ZM19.6994 21.5539L18.0454 19.9L17.6919 20.2535L19.3458 21.9075L19.6994 21.5539ZM20.726 21.5542C20.4434 21.8378 19.9823 21.8378 19.6997 21.5542L19.3455 21.9072C19.8235 22.3868 20.6022 22.3868 21.0801 21.9072L20.726 21.5542Z" fill="#353535" mask="url(#path-2-inside-1_2489_17289)"/>
<path d="M24.6511 19.6425C24.1809 19.6425 23.7993 19.2608 23.7993 18.7907C23.7993 18.3206 24.1809 17.939 24.6511 17.939H32.465C32.9351 17.939 33.3168 18.3206 33.3168 18.7907C33.3168 19.2608 32.9351 19.6425 32.465 19.6425H24.6511Z" fill="white" stroke="#353535" stroke-width="0.25"/>
<path d="M15.5348 26.8051C15.0647 26.8051 14.6831 26.4234 14.6831 25.9533C14.6831 25.4832 15.0647 25.1016 15.5348 25.1016H32.4651C32.9352 25.1016 33.3168 25.4832 33.3168 25.9533C33.3168 26.4234 32.9352 26.8051 32.4651 26.8051H15.5348Z" fill="white" stroke="#353535" stroke-width="0.25"/>
<path d="M15.5348 32.6659C15.0647 32.6659 14.6831 32.2843 14.6831 31.8141C14.6831 31.344 15.0647 30.9624 15.5348 30.9624H32.4651C32.9352 30.9624 33.3168 31.344 33.3168 31.8141C33.3168 32.2843 32.9352 32.6659 32.4651 32.6659H15.5348Z" fill="white" stroke="#353535" stroke-width="0.25"/>
<path d="M37.875 14.8837V33.1163C37.875 35.7444 35.7444 37.875 33.1163 37.875H14.8837C12.2556 37.875 10.125 35.7444 10.125 33.1163V14.8837C10.125 12.2556 12.2556 10.125 14.8837 10.125H33.1163C35.7444 10.125 37.875 12.2556 37.875 14.8837ZM36.1715 14.8837C36.1715 13.1959 34.8041 11.8285 33.1163 11.8285H14.8837C13.1959 11.8285 11.8285 13.1959 11.8285 14.8837V33.1163C11.8285 34.8041 13.1959 36.1715 14.8837 36.1715H33.1163C34.8041 36.1715 36.1715 34.8041 36.1715 33.1163V14.8837Z" fill="white" stroke="#353535" stroke-width="0.25"/>
</svg>
