<svg width="48" height="48" viewBox="0 0 48 48" fill="none" xmlns="http://www.w3.org/2000/svg">
<rect width="48" height="48" rx="8" fill="#353535"/>
<path fill-rule="evenodd" clip-rule="evenodd" d="M37.7526 32.182C36.9467 30.9673 35.5669 30.1665 34 30.1665C31.5147 30.1665 29.5 32.1812 29.5 34.6665C29.5 36.1297 30.1983 37.4297 31.2799 38.2516C30.792 38.5013 30.2897 38.7267 29.7744 38.9261C28.6786 37.839 28 36.332 28 34.6665C28 31.3528 30.6863 28.6665 34 28.6665C35.8045 28.6665 37.4229 29.4631 38.5228 30.7238C38.2907 31.2244 38.0334 31.711 37.7526 32.182ZM29.2607 8.88477C28.8811 9.618 28.6667 10.4505 28.6667 11.3332C28.6667 14.2787 31.0545 16.6665 34 16.6665C35.3294 16.6665 36.5452 16.1801 37.4791 15.3756C37.207 14.9512 36.9154 14.5405 36.6056 14.1448C35.9218 14.7789 35.0062 15.1665 34 15.1665C31.8829 15.1665 30.1667 13.4503 30.1667 11.3332C30.1667 10.648 30.3465 10.0048 30.6614 9.44818C30.2056 9.23919 29.7383 9.05098 29.2607 8.88477ZM18.1749 38.9064C18.4906 38.2253 18.6667 37.4665 18.6667 36.6665C18.6667 33.721 16.2789 31.3332 13.3334 31.3332C12.2083 31.3332 11.1646 31.6815 10.3042 32.2763C10.5639 32.7051 10.8431 33.1206 11.1406 33.5218C11.762 33.0878 12.5179 32.8332 13.3334 32.8332C15.4504 32.8332 17.1667 34.5494 17.1667 36.6665C17.1667 37.2486 17.0369 37.8004 16.8048 38.2946C17.25 38.5191 17.7071 38.7234 18.1749 38.9064Z" fill="white"/>
<circle cx="18.9997" cy="22.3337" r="2.91667" stroke="white" stroke-width="1.5"/>
<circle cx="23.333" cy="16.667" r="1.25" stroke="white" stroke-width="1.5"/>
<circle cx="26.3333" cy="21.6663" r="1.58333" stroke="white" stroke-width="1.5"/>
<circle cx="24" cy="24" r="15.25" stroke="white" stroke-width="1.5"/>
</svg>
