<svg width="48" height="48" viewBox="0 0 48 48" fill="none" xmlns="http://www.w3.org/2000/svg">
<rect width="48" height="48" rx="8" fill="#353535"/>
<path d="M31.9059 33.9735C32.5789 33.9735 33.2322 34.3678 33.5626 34.8586C33.723 35.0969 33.7761 35.3113 33.7651 35.4717C33.7555 35.6113 33.6946 35.7758 33.4783 35.9476C30.8755 38.0153 27.583 39.25 24 39.25C15.5777 39.25 8.75 32.4224 8.75 24C8.75 15.5776 15.5777 8.75 24 8.75C24.0043 8.75 24.0078 8.75012 24.0106 8.75028C24.0144 8.75784 24.0195 8.77061 24.0233 8.79016C24.0424 8.88749 24.0039 8.99531 23.9207 9.05487C20.4391 11.5456 18.1676 15.6252 18.1676 20.2353C18.1676 27.8227 24.3185 33.9735 31.9059 33.9735Z" stroke="white" stroke-width="1.5"/>
<path d="M22.667 18.333H26.0003" stroke="white" stroke-linecap="round"/>
<path d="M29.333 25.333H33.333" stroke="white" stroke-linecap="round"/>
<path d="M24.333 16.667L24.333 20.0003" stroke="white" stroke-linecap="round"/>
<path d="M31.333 23.333L31.333 27.333" stroke="white" stroke-linecap="round"/>
<circle cx="25.667" cy="25.667" r="1" fill="white"/>
<circle cx="33" cy="18.333" r="1" fill="white"/>
</svg>
