<svg width="48" height="48" viewBox="0 0 48 48" fill="none" xmlns="http://www.w3.org/2000/svg">
<rect width="48" height="48" rx="8" fill="#353535"/>
<path d="M19.8335 18.1485L19.9219 18.2369L20.0103 18.1485L22.7933 15.3668L22.7935 15.3666C23.1249 15.034 23.6655 15.034 23.9969 15.3666L23.997 15.3668C24.3298 15.6995 24.3298 16.239 23.997 16.5718L20.525 20.0438C20.1923 20.3765 19.6528 20.3765 19.32 20.0438L17.584 18.3078C17.2513 17.975 17.2513 17.4355 17.584 17.1028C17.9155 16.7713 18.4563 16.7713 18.7877 17.1028L19.8335 18.1485Z" fill="white" stroke="#353535" stroke-width="0.25"/>
<path d="M17.5348 26.1542C17.0647 26.1542 16.6831 25.7726 16.6831 25.3024C16.6831 24.8323 17.0647 24.4507 17.5348 24.4507H25.9075C26.3776 24.4507 26.7592 24.8323 26.7592 25.3024C26.7592 25.7726 26.3776 26.1542 25.9075 26.1542H17.5348Z" fill="white" stroke="#353535" stroke-width="0.25"/>
<path d="M17.5348 31.3632C17.0647 31.3632 16.6831 30.9815 16.6831 30.5114C16.6831 30.0413 17.0647 29.6597 17.5348 29.6597H29.2558C29.7259 29.6597 30.1075 30.0413 30.1075 30.5114C30.1075 30.9815 29.7259 31.3632 29.2558 31.3632H17.5348Z" fill="white" stroke="#353535" stroke-width="0.25"/>
<mask id="path-5-inside-1_2489_17303" fill="white">
<path fill-rule="evenodd" clip-rule="evenodd" d="M15.5814 38H32.5116C33.461 38 34.3727 37.6223 35.0447 36.9516C35.7153 36.2796 36.093 35.368 36.093 34.4186V18.6435C36.093 18.0757 35.882 17.53 35.5005 17.1094L29.7155 10.7462C29.2832 10.2709 28.6711 10 28.029 10H15.5814C14.632 10 13.7204 10.3777 13.0484 11.0484C12.3777 11.7204 12 12.632 12 13.5814V34.4186C12 35.368 12.3777 36.2796 13.0484 36.9516C13.7204 37.6223 14.632 38 15.5814 38ZM33.6629 35.5699C33.3568 35.8746 32.944 36.0465 32.5116 36.0465H15.5814C15.149 36.0465 14.7362 35.8746 14.4301 35.5699C14.1254 35.2638 13.9535 34.851 13.9535 34.4186V13.5814C13.9535 13.149 14.1254 12.7362 14.4301 12.4301C14.7362 12.1254 15.149 11.9535 15.5814 11.9535H27.6279V16.8372C27.6279 18.0953 28.6476 19.1163 29.907 19.1163H34.1395V34.4186C34.1395 34.851 33.9676 35.2638 33.6629 35.5699ZM32.9088 17.1628L29.5814 13.5028V16.8372C29.5814 17.0169 29.7273 17.1628 29.907 17.1628H32.9088Z"/>
</mask>
<path fill-rule="evenodd" clip-rule="evenodd" d="M15.5814 38H32.5116C33.461 38 34.3727 37.6223 35.0447 36.9516C35.7153 36.2796 36.093 35.368 36.093 34.4186V18.6435C36.093 18.0757 35.882 17.53 35.5005 17.1094L29.7155 10.7462C29.2832 10.2709 28.6711 10 28.029 10H15.5814C14.632 10 13.7204 10.3777 13.0484 11.0484C12.3777 11.7204 12 12.632 12 13.5814V34.4186C12 35.368 12.3777 36.2796 13.0484 36.9516C13.7204 37.6223 14.632 38 15.5814 38ZM33.6629 35.5699C33.3568 35.8746 32.944 36.0465 32.5116 36.0465H15.5814C15.149 36.0465 14.7362 35.8746 14.4301 35.5699C14.1254 35.2638 13.9535 34.851 13.9535 34.4186V13.5814C13.9535 13.149 14.1254 12.7362 14.4301 12.4301C14.7362 12.1254 15.149 11.9535 15.5814 11.9535H27.6279V16.8372C27.6279 18.0953 28.6476 19.1163 29.907 19.1163H34.1395V34.4186C34.1395 34.851 33.9676 35.2638 33.6629 35.5699ZM32.9088 17.1628L29.5814 13.5028V16.8372C29.5814 17.0169 29.7273 17.1628 29.907 17.1628H32.9088Z" fill="white"/>
<path d="M35.0447 36.9516L35.2213 37.1286L35.2216 37.1282L35.0447 36.9516ZM35.5005 17.1094L35.6856 16.9414L35.6854 16.9412L35.5005 17.1094ZM29.7155 10.7462L29.9005 10.5781L29.9005 10.578L29.7155 10.7462ZM13.0484 11.0484L12.8718 10.8714L12.8714 10.8718L13.0484 11.0484ZM13.0484 36.9516L12.8714 37.1282L12.8718 37.1286L13.0484 36.9516ZM33.6629 35.5699L33.8393 35.747L33.84 35.7463L33.6629 35.5699ZM14.4301 35.5699L14.253 35.7463L14.2537 35.747L14.4301 35.5699ZM14.4301 12.4301L14.2537 12.253L14.253 12.2537L14.4301 12.4301ZM27.6279 11.9535H27.8779V11.7035H27.6279V11.9535ZM34.1395 19.1163H34.3895V18.8663H34.1395V19.1163ZM29.5814 13.5028L29.7664 13.3346L29.3314 12.8562V13.5028H29.5814ZM32.9088 17.1628V17.4128H33.4739L33.0938 16.9946L32.9088 17.1628ZM32.5116 37.75H15.5814V38.25H32.5116V37.75ZM34.868 36.7747C34.2428 37.3987 33.3947 37.75 32.5116 37.75V38.25C33.5274 38.25 34.5025 37.846 35.2213 37.1286L34.868 36.7747ZM35.843 34.4186C35.843 35.3017 35.4917 36.1498 34.8677 36.775L35.2216 37.1282C35.939 36.4094 36.343 35.4343 36.343 34.4186H35.843ZM35.843 18.6435V34.4186H36.343V18.6435H35.843ZM35.3153 17.2774C35.6552 17.6521 35.843 18.1379 35.843 18.6435H36.343C36.343 18.0135 36.1089 17.408 35.6856 16.9414L35.3153 17.2774ZM29.5306 10.9144L35.3155 17.2776L35.6854 16.9412L29.9005 10.5781L29.5306 10.9144ZM28.029 10.25C28.6006 10.25 29.1455 10.4911 29.5306 10.9145L29.9005 10.578C29.4208 10.0506 28.7416 9.75 28.029 9.75V10.25ZM15.5814 10.25H28.029V9.75H15.5814V10.25ZM13.225 11.2253C13.8502 10.6013 14.6983 10.25 15.5814 10.25V9.75C14.5657 9.75 13.5906 10.154 12.8718 10.8714L13.225 11.2253ZM12.25 13.5814C12.25 12.6983 12.6013 11.8502 13.2253 11.225L12.8714 10.8718C12.154 11.5906 11.75 12.5657 11.75 13.5814H12.25ZM12.25 34.4186V13.5814H11.75V34.4186H12.25ZM13.2253 36.775C12.6013 36.1498 12.25 35.3017 12.25 34.4186H11.75C11.75 35.4343 12.154 36.4094 12.8714 37.1282L13.2253 36.775ZM15.5814 37.75C14.6983 37.75 13.8502 37.3987 13.225 36.7747L12.8718 37.1286C13.5906 37.846 14.5657 38.25 15.5814 38.25V37.75ZM32.5116 36.2965C33.0106 36.2965 33.4868 36.098 33.8393 35.747L33.4865 35.3927C33.2269 35.6512 32.8774 35.7965 32.5116 35.7965V36.2965ZM15.5814 36.2965H32.5116V35.7965H15.5814V36.2965ZM14.2537 35.747C14.6063 36.098 15.0824 36.2965 15.5814 36.2965V35.7965C15.2157 35.7965 14.8661 35.6512 14.6065 35.3927L14.2537 35.747ZM13.7035 34.4186C13.7035 34.9176 13.902 35.3937 14.253 35.7463L14.6073 35.3935C14.3488 35.1339 14.2035 34.7843 14.2035 34.4186H13.7035ZM13.7035 13.5814V34.4186H14.2035V13.5814H13.7035ZM14.253 12.2537C13.902 12.6063 13.7035 13.0824 13.7035 13.5814H14.2035C14.2035 13.2157 14.3488 12.8661 14.6073 12.6065L14.253 12.2537ZM15.5814 11.7035C15.0824 11.7035 14.6063 11.902 14.2537 12.253L14.6065 12.6073C14.8661 12.3488 15.2157 12.2035 15.5814 12.2035V11.7035ZM27.6279 11.7035H15.5814V12.2035H27.6279V11.7035ZM27.8779 16.8372V11.9535H27.3779V16.8372H27.8779ZM29.907 18.8663C28.7858 18.8663 27.8779 17.9573 27.8779 16.8372H27.3779C27.3779 18.2332 28.5095 19.3663 29.907 19.3663V18.8663ZM34.1395 18.8663H29.907V19.3663H34.1395V18.8663ZM34.3895 34.4186V19.1163H33.8895V34.4186H34.3895ZM33.84 35.7463C34.1911 35.3937 34.3895 34.9176 34.3895 34.4186H33.8895C33.8895 34.7843 33.7442 35.1339 33.4857 35.3935L33.84 35.7463ZM29.3964 13.671L32.7238 17.331L33.0938 16.9946L29.7664 13.3346L29.3964 13.671ZM29.8314 16.8372V13.5028H29.3314V16.8372H29.8314ZM29.907 16.9128C29.8653 16.9128 29.8314 16.8789 29.8314 16.8372H29.3314C29.3314 17.155 29.5892 17.4128 29.907 17.4128V16.9128ZM32.9088 16.9128H29.907V17.4128H32.9088V16.9128Z" fill="#353535" mask="url(#path-5-inside-1_2489_17303)"/>
</svg>
